<svg width="465" height="465" viewBox="0 0 465 465" fill="none" xmlns="http://www.w3.org/2000/svg">
    <path d="M208.01 24.0124C207.72 11.9524 217.89 0.882371 229.92 0.112371C239.8 -0.897629 249.87 4.99237 253.84 14.0924C256.27 19.0324 256.05 24.6624 256 30.0124C256.01 115.362 255.98 200.712 256.02 286.062C272.7 269.402 289.32 252.692 306.04 236.072C314.61 227.552 329.66 227.382 338.49 235.602C346.01 242.132 348.6 253.562 344.65 262.712C342.98 267.002 339.74 270.362 336.48 273.502C307.13 302.802 277.87 332.202 248.47 361.442C239.73 370.102 224.31 370.112 215.56 361.462C185.16 331.172 154.86 300.792 124.52 270.452C117.95 264.012 115.69 253.672 119.02 245.082C122.08 236.712 130.13 230.442 139.03 229.642C146.09 228.862 153.39 231.472 158.42 236.492C174.96 252.982 191.45 269.532 207.99 286.022C208.01 198.692 207.98 111.352 208.01 24.0124Z"
          fill="black"/>
    <path d="M8.06 214.082C14.35 208.392 23.74 206.492 31.74 209.302C41.26 212.382 48.1 221.962 47.98 231.962C48.02 293.312 47.98 354.662 48 416.012C170.67 416.012 293.33 416.012 415.99 416.012C416.01 354.682 415.98 293.352 416.01 232.022C415.93 224.262 419.95 216.652 426.36 212.292C433.1 207.512 442.37 206.682 449.87 210.142C458.32 213.822 464.08 222.782 463.98 232.002C464.02 295.672 463.99 359.342 464 423.012C464.16 432.372 461.06 441.792 455.13 449.072C447.7 458.442 435.88 464.052 423.93 463.992C296.31 464.032 168.69 464.002 41.06 464.012C31.44 464.192 21.75 460.922 14.38 454.682C5.37 447.242 -0.0399999 435.702 0.0200001 424.022C-0.00999988 360.022 -1.14553e-07 296.032 0.00999989 232.042C-0.0400001 225.262 2.98 218.562 8.06 214.082Z"
          fill="black"/>
</svg>
