<svg width="289" height="289" viewBox="0 0 289 289" fill="none" xmlns="http://www.w3.org/2000/svg">
    <g clip-path="url(#clip0_251_12)">
        <path d="M120.021 101.196L104.47 57.8574L146.222 63.0176L161.773 106.355L120.021 101.196Z" fill="#FFD102"/>
        <path d="M196.168 162.097L180.616 118.758L222.369 123.918L237.92 167.256L196.168 162.097Z" fill="#FFD102"/>
        <path d="M119.367 93.8948L179.135 101.281L199.474 157.963L259.239 165.346L186.209 242.221L40.0812 125.351L99.0263 37.2121L119.367 93.8948Z"
              fill="#FFE368"/>
        <path d="M175.37 206.094C173.911 204.928 173.675 202.799 174.841 201.341C176.008 199.882 178.136 199.646 179.594 200.812C181.053 201.979 181.29 204.107 180.123 205.565C178.957 207.024 176.829 207.261 175.37 206.094Z"
              fill="#FFAA0E"/>
        <path d="M194.383 203.98C192.925 202.814 192.688 200.686 193.855 199.227C195.021 197.769 197.149 197.532 198.608 198.698C200.066 199.865 200.303 201.993 199.137 203.452C197.97 204.91 195.842 205.147 194.383 203.98Z"
              fill="#FFAA0E"/>
        <path d="M42.897 121.83L189.025 238.7C192.914 241.811 193.546 247.485 190.435 251.375C187.324 255.264 181.65 255.895 177.761 252.785L31.633 135.915C27.7435 132.804 27.1125 127.13 30.223 123.241C33.3335 119.351 39.0078 118.72 42.897 121.83Z"
              fill="#FFAA0E"/>
    </g>
    <defs>
        <clipPath id="clip0_251_12">
            <rect width="205.15" height="205.15" fill="white"
                  transform="matrix(-0.780954 -0.624589 -0.624589 0.780954 289 128.134)"/>
        </clipPath>
    </defs>
</svg>
