<svg width="405" height="405" viewBox="0 0 405 405" fill="none" xmlns="http://www.w3.org/2000/svg">
    <path d="M324.624 121.201H305.065C314.524 97.361 323.724 62.3338 311.345 34.8635C304.045 18.665 290.166 7.14481 271.207 1.55744C267.707 0.521165 264.067 0 260.4 0C235.728 0 213.403 21.895 180.778 78.1021C166.118 103.379 145.02 124.662 130.16 136.139C123.854 141.012 118.814 145.981 114.728 150.871C103.462 135.648 84.3425 125.619 62.6902 125.619C28.1253 125.619 0 151.186 0 182.608V348.011C0 379.439 28.1253 405 62.6902 405C85.3958 405 105.261 393.928 116.261 377.451C131.007 393.983 153.499 404.582 178.685 404.582H332.164C395.54 404.582 405 367.397 405 345.236V194.28C405.007 153.986 368.948 121.201 324.624 121.201ZM85.3825 348.011C85.3825 359.386 75.203 368.64 62.6969 368.64C50.1842 368.64 40.0047 359.386 40.0047 348.011V182.608C40.0047 171.233 50.1842 161.979 62.6969 161.979C75.203 161.979 85.3825 171.233 85.3825 182.608V348.011ZM365.009 345.236C365.009 358.695 362.649 368.221 332.17 368.221H178.691C156.426 368.221 138.307 351.756 138.307 331.516V194.28L138.36 193.704L138.22 192.637C138.18 192.055 137.513 178.178 156.059 163.852C173.765 150.168 198.85 124.916 216.156 95.0642C243.701 47.6139 256.847 38.3844 260.414 36.6391C267.34 38.9904 271.667 42.7416 274.326 48.6441C282.946 67.7697 272.12 104.542 256.974 130.982L241.755 157.556H324.617C346.89 157.556 365.009 174.027 365.009 194.273V345.236Z"
          fill="black"/>
</svg>
