<svg width="1090" height="750" viewBox="0 0 1090 750" fill="none" xmlns="http://www.w3.org/2000/svg">
    <path d="M898.979 332.841L895.647 329.917L894.332 331.417L897.663 334.341L898.979 332.841Z" fill="#4483FF"/>
    <path d="M892.599 329.452L848.1 373.964L852.801 378.666L897.299 334.154L892.599 329.452Z" fill="#4287FF"/>
    <path d="M1073.09 63.7856C1005.29 -51.2543 714.12 -5.14966 422.732 166.413C131.123 338.419 -50.1357 570.715 17.6701 685.755C85.4759 800.795 376.642 754.69 668.03 583.128C959.418 411.344 1140.68 178.826 1073.09 63.7856ZM636.786 523.945C376.864 677.11 126.248 733.411 77.0556 649.846C27.8631 566.282 198.707 374.327 458.408 221.162C718.33 67.9971 968.724 11.6963 1018.14 95.2609C1067.33 178.826 896.487 370.78 636.786 523.945Z"
          fill="url(#paint0_linear_243_455)"/>
    <path d="M942.134 373.662L896.487 417.328C995.094 511.311 1043.62 597.979 1015.04 647.851C966.509 731.859 715.45 677.553 454.42 526.827C372.21 479.392 298.865 427.968 238.372 377.208L215.105 397.822L192.503 419.323C257.207 476.954 335.649 533.698 424.284 584.901C717.223 754.025 1008.83 797.47 1075.53 681.987C1116.97 609.505 1061.35 492.47 942.134 373.662ZM665.814 165.969C372.875 -3.15463 81.2658 -46.5993 14.5679 68.8838C-27.0906 140.922 28.5279 257.957 147.521 376.765L188.293 337.975L191.173 335.094C90.3509 239.781 40.0506 151.562 69.0785 101.246C117.606 17.2378 368.665 71.5437 629.696 222.27C713.234 270.591 787.687 322.903 848.846 374.549L872.112 354.599L896.93 330.882C832.448 273.695 754.228 217.172 665.814 165.969Z"
          fill="url(#paint1_linear_243_455)"/>
    <path d="M942.134 373.662L896.487 417.328C995.094 511.311 1043.62 597.979 1015.04 647.851C966.509 731.859 715.45 677.553 454.42 526.827C372.21 479.392 298.865 427.968 238.372 377.208L215.105 397.822L192.503 419.323C257.207 476.954 335.649 533.698 424.284 584.901C717.223 754.025 1008.83 797.47 1075.53 681.987C1116.97 609.505 1061.35 492.47 942.134 373.662ZM665.814 165.969C372.875 -3.15463 81.2658 -46.5993 14.5679 68.8838C-27.0906 140.922 28.5279 257.957 147.521 376.765L188.293 337.975L191.173 335.094C90.3509 239.781 40.0506 151.562 69.0785 101.246C117.606 17.2378 368.665 71.5437 629.696 222.27C713.234 270.591 787.687 322.903 848.846 374.549L872.112 354.599L896.93 330.882C832.448 273.695 754.228 217.172 665.814 165.969Z"
          fill="url(#paint2_linear_243_455)"/>
    <path d="M761.931 316.031C762.153 271.257 761.488 226.704 760.158 181.929C759.937 172.62 748.414 167.522 741.545 174.171C721.159 194.342 696.784 218.059 668.864 227.591C667.313 224.487 664.211 222.049 659.336 222.492C645.376 223.157 631.194 222.936 617.234 222.271C615.683 221.606 614.132 221.162 612.138 221.384C610.808 221.606 609.7 221.606 608.371 221.827C601.945 221.384 595.74 220.941 589.314 220.497C586.655 220.054 583.774 219.833 581.115 219.833C551.201 217.394 521.508 214.291 491.594 214.513C464.56 214.734 438.413 221.162 411.601 222.271C404.288 222.492 398.749 222.049 393.209 217.173C388.112 212.739 383.681 207.641 378.806 202.987C370.385 194.785 362.187 186.362 353.766 178.161C353.988 176.831 353.988 175.501 354.21 174.171C355.317 162.202 339.585 160.65 334.267 169.073C328.727 171.733 324.96 178.161 329.392 183.924C330.056 184.811 330.721 185.476 331.164 186.362C324.074 258.844 318.977 331.326 326.068 404.251C329.17 435.948 332.494 468.531 345.124 498.012C357.755 527.049 380.135 547.884 409.606 559.411C442.623 572.488 478.963 572.267 513.974 572.932C551.866 573.597 590.865 576.921 628.757 574.04C663.103 571.38 690.801 555.421 712.517 529.044C713.403 527.935 714.29 526.827 715.176 525.719C718.5 524.832 721.159 522.616 722.267 518.404C722.488 517.739 722.488 517.074 722.71 516.409C740.215 493.8 753.511 470.305 757.942 440.603C763.704 399.818 761.709 357.26 761.931 316.031Z"
          fill="white"/>
    <path d="M323.135 471.308C321.363 465.102 320.919 458.895 319.812 452.689C319.147 449.143 318.925 445.375 318.704 441.828C318.704 439.833 318.039 439.168 316.266 438.503C306.738 435.178 297.431 431.853 288.124 428.529C287.46 428.307 287.016 428.085 286.352 427.863C281.698 426.09 279.482 421.879 280.369 416.559C281.034 412.348 285.022 408.579 289.232 408.136C291.005 407.914 292.556 408.358 294.107 409.023C301.198 411.461 308.289 414.121 315.38 416.559C316.266 416.781 316.931 417.224 318.039 417.224C318.703 416.559 318.482 415.672 318.482 415.007C318.482 414.121 318.482 413.234 318.482 412.348C318.482 327.01 318.482 241.672 318.482 156.334C318.482 155.669 318.482 155.004 318.482 154.339C318.26 148.133 325.13 143.921 330.891 147.246C332.22 147.911 333.328 149.019 334.436 149.906C361.027 170.963 387.839 192.021 414.429 213.078C416.202 214.408 417.753 215.073 419.969 214.408C428.168 212.856 436.367 211.305 444.787 209.975C451.878 208.867 458.969 208.202 465.838 207.093C478.025 205.32 490.212 204.433 502.4 203.768C521.899 202.438 541.621 201.995 561.342 202.66C564.888 202.882 568.433 202.882 571.978 202.882C579.956 202.882 587.933 203.768 595.91 204.433C601.671 204.877 607.432 205.32 613.415 205.985C621.836 206.872 630.256 208.202 638.676 209.088C648.869 210.418 659.062 212.635 669.255 214.408C671.471 214.851 672.801 214.186 674.352 213.078C700.056 192.686 725.982 172.293 751.686 152.122C753.237 150.792 754.788 149.684 756.339 148.354C759.22 146.138 762.544 145.251 766.089 147.024C769.413 148.798 770.521 151.679 770.521 155.447C770.521 194.681 770.521 234.135 770.521 273.369C770.521 320.138 770.521 366.908 770.521 413.678C770.521 415.007 770.299 416.337 770.743 417.889C771.851 418.332 772.959 417.667 773.845 417.224C781.6 414.564 789.356 411.683 797.112 409.023C802.43 407.249 807.083 409.244 809.52 414.121C812.18 419.441 809.742 425.869 804.202 427.863C794.231 431.41 784.038 434.957 774.066 438.503C772.958 438.946 771.629 439.168 770.521 440.276C769.856 450.473 768.305 460.89 766.311 471.087C767.64 471.752 769.192 471.752 770.521 471.752C777.612 471.752 784.481 471.973 791.572 471.973C793.345 471.973 794.896 471.973 796.668 471.973C801.986 472.195 804.424 473.525 805.975 477.958C807.526 482.391 806.418 487.933 803.316 490.814C801.986 492.144 800.214 492.366 798.441 492.366C787.362 492.144 776.282 491.922 765.203 491.701C763.43 491.701 761.879 491.701 760.55 491.701C759.663 492.144 759.663 492.809 759.442 493.252C752.129 511.65 741.493 528.052 727.533 542.017C716.675 553.1 704.266 562.188 690.528 569.502C675.681 577.26 660.17 582.802 643.773 586.127C636.239 587.678 628.705 588.343 620.949 588.343C570.87 588.121 520.57 588.121 470.491 588.343C459.633 588.343 448.997 587.013 438.583 584.575C423.293 581.028 408.668 575.265 394.93 567.507C381.191 559.749 369.004 549.997 358.368 538.249C350.391 529.382 343.521 519.851 337.76 509.433C335.101 504.557 332.664 499.459 330.448 494.139C330.226 493.474 330.004 492.809 329.561 492.366C328.453 491.701 327.124 491.922 326.016 491.922C315.38 492.144 304.965 492.366 294.329 492.366C291.891 492.366 289.454 492.587 287.46 490.371C285.244 487.933 284.357 485.051 284.357 481.948C284.357 480.84 284.579 479.731 284.801 478.845C285.908 474.411 288.789 471.973 293.664 471.973C301.863 471.752 310.283 471.752 318.482 471.752C319.811 471.752 321.363 471.973 323.135 471.308ZM351.942 492.144C353.714 496.577 355.93 500.567 358.368 504.557C367.674 520.294 380.083 533.151 394.93 543.568C409.333 553.765 425.287 560.636 442.571 564.848C451.435 567.064 460.298 568.172 469.605 568.172C521.013 567.951 572.2 568.172 623.608 568.172C629.591 568.172 635.352 567.286 641.114 566.177C655.96 563.074 669.92 557.976 682.994 550.44C690.528 546.228 697.619 541.13 704.266 535.589C712.687 528.496 719.999 520.294 726.204 511.207C729.971 505.665 733.516 499.902 736.175 493.696C736.397 493.031 737.061 492.587 736.396 491.701C735.289 491.257 734.181 491.257 733.294 491.257C728.862 491.257 724.431 491.036 719.999 491.257C716.897 491.257 714.681 489.706 713.351 487.268C711.8 484.608 711.579 481.948 712.022 478.845C712.908 473.525 716.01 470.643 721.55 470.643C728.419 470.643 735.288 470.865 742.379 471.087C744.817 471.087 744.817 471.087 745.482 468.87C747.254 462.664 748.141 456.236 749.027 449.586C749.027 448.921 749.249 448.256 748.805 447.591C747.697 447.591 747.033 448.034 745.925 448.256C737.283 451.359 728.419 454.462 719.777 457.566C711.357 460.447 705.817 452.689 706.704 446.483C707.147 442.493 709.363 439.833 713.351 438.503C724.431 434.735 735.51 430.745 746.589 426.755C747.697 426.312 749.027 426.09 750.135 425.204C750.135 343.634 750.135 261.843 750.135 180.051C748.584 180.273 747.919 181.159 746.811 181.824C724.431 199.114 702.272 216.403 679.892 233.914C677.454 235.687 675.017 236.352 672.136 235.687C661.721 233.692 651.307 231.697 641.114 229.924C634.023 228.816 627.154 227.929 620.063 227.042C613.858 226.377 607.654 225.269 601.45 225.048C600.785 225.048 599.898 224.826 599.012 225.491C598.791 226.599 598.79 227.707 598.79 228.816C598.79 245.218 598.79 261.621 598.79 278.023C598.79 279.353 598.79 280.683 598.569 282.235C597.683 286.668 594.137 289.55 589.484 289.771C584.609 289.993 580.62 287.333 579.291 282.9C578.848 281.57 578.848 280.24 578.848 278.688C578.848 261.399 578.848 244.11 578.848 226.821C578.848 225.712 579.069 224.383 578.183 223.274C570.427 222.831 562.893 222.388 554.695 222.831C554.695 224.383 554.695 225.491 554.695 226.599C554.695 237.682 554.695 248.765 554.695 259.848C554.695 270.265 554.695 280.683 554.695 291.323C554.695 294.204 554.251 296.864 552.257 299.081C549.598 301.962 546.274 302.627 542.507 302.406C538.519 301.962 535.195 299.081 534.308 295.313C533.865 293.761 533.865 292.21 533.865 290.658C533.865 269.379 533.865 248.1 533.865 227.042C533.865 225.712 534.087 224.604 533.644 223.274C529.434 222.609 512.593 223.053 510.155 224.161C509.712 225.269 509.934 226.599 509.934 227.707C509.934 244.775 509.934 261.843 509.934 278.91C509.934 280.462 509.934 281.792 509.491 283.343C508.161 287.776 504.173 290.436 499.298 289.993C494.866 289.771 491.32 286.668 490.434 282.235C490.213 280.905 490.212 279.575 490.212 278.023C490.212 261.621 490.212 245.218 490.212 228.816C490.212 227.707 490.434 226.377 489.769 225.491C489.104 225.047 488.44 225.269 487.775 225.269C483.343 225.491 479.133 225.934 474.923 226.377C466.281 227.486 457.639 228.372 449.219 229.702C438.361 231.476 427.503 233.249 416.645 235.687C413.986 236.13 411.77 235.687 409.776 234.135C403.35 229.037 396.924 223.939 390.498 219.063C374.544 206.65 358.589 194.237 342.635 181.824C341.749 181.159 340.862 180.051 339.533 180.273C339.533 261.843 339.533 343.412 339.533 424.982C343.078 426.312 346.624 427.42 349.947 428.75C359.254 432.075 368.782 435.4 378.089 438.725C381.191 439.833 383.407 441.828 384.294 444.931C385.401 449.143 384.293 452.689 381.191 455.792C378.089 458.674 374.544 458.896 370.777 457.566C361.692 454.241 352.606 451.138 343.521 448.034C342.635 447.591 341.527 447.148 340.197 447.369C341.084 455.571 342.192 463.55 344.629 471.087C345.959 471.53 347.067 471.53 347.953 471.53C355.487 471.308 363.021 471.308 370.555 471.087C373.879 471.087 376.095 472.638 377.646 475.52C379.197 478.401 379.419 481.283 378.754 484.386C377.867 489.041 374.987 491.479 370.112 491.701C365.237 491.701 360.14 491.701 355.266 491.922C354.158 491.479 353.05 491.257 351.942 492.144Z"
          fill="black"/>
    <path d="M438.583 390.625C454.98 390.625 467.832 403.703 467.832 420.105C467.832 436.286 454.537 449.364 438.361 449.364C422.185 449.364 409.333 436.286 409.333 420.105C409.333 403.481 422.185 390.625 438.583 390.625Z"
          fill="black"/>
    <path d="M649.755 449.585C633.579 449.807 620.284 436.951 620.063 420.548C619.841 404.589 632.915 391.289 648.869 390.846C665.045 390.624 678.562 403.481 678.783 419.662C678.783 436.508 665.931 449.364 649.755 449.585Z"
          fill="black"/>
    <path d="M543.889 438.946C550.537 438.946 557.406 438.946 564.054 438.946C565.826 438.946 567.377 439.167 568.929 440.054C572.474 441.827 573.582 446.704 570.923 449.585C562.946 458.673 555.19 467.983 547.213 477.293C544.997 479.952 543.446 479.952 541.23 477.293C533.474 468.205 525.719 459.117 517.742 450.25C515.747 448.034 515.083 445.596 516.412 442.936C517.742 440.276 519.958 439.168 522.838 439.168C529.929 438.946 536.798 438.946 543.889 438.946Z"
          fill="black"/>
    <defs>
        <linearGradient id="paint0_linear_243_455" x1="3.50644" y1="374.884" x2="1087.3" y2="374.885"
                        gradientUnits="userSpaceOnUse">
            <stop stop-color="#F11712"/>
            <stop offset="0.515625" stop-color="#5614B0"/>
            <stop offset="1" stop-color="#F11712"/>
        </linearGradient>
        <linearGradient id="paint1_linear_243_455" x1="15.3741" y1="416.52" x2="1074.11" y2="432.324"
                        gradientUnits="userSpaceOnUse">
            <stop stop-color="#03001E"/>
            <stop offset="0.192708" stop-color="#7303C0"/>
            <stop offset="0.390625" stop-color="#EC38BC"/>
            <stop offset="0.536458" stop-color="#FDEFF9"/>
            <stop offset="0.651042" stop-color="#FCF3BB"/>
            <stop offset="0.994792" stop-color="#F7FF00"/>
        </linearGradient>
        <linearGradient id="paint2_linear_243_455" x1="15.3741" y1="416.52" x2="1074.11" y2="432.324"
                        gradientUnits="userSpaceOnUse">
            <stop stop-color="#5614B0"/>
            <stop offset="0.526042" stop-color="#F11712"/>
            <stop offset="1" stop-color="#5614B0"/>
        </linearGradient>
    </defs>
</svg>
