<svg width="274" height="235" viewBox="0 0 274 235" fill="none" xmlns="http://www.w3.org/2000/svg">
    <path d="M22.1397 172.13C21.2261 168.845 20.9977 165.56 20.4267 162.276C20.0841 160.399 19.9699 158.404 19.8557 156.527C19.8557 155.472 19.513 155.12 18.5994 154.768C13.6888 153.008 8.89235 151.248 4.09593 149.489C3.75332 149.371 3.52494 149.254 3.18234 149.137C0.784125 148.198 -0.357894 145.969 0.0989079 143.154C0.441509 140.925 2.49712 138.93 4.66693 138.696C5.58053 138.578 6.37995 138.813 7.17935 139.165C10.8338 140.455 14.4882 141.863 18.1426 143.154C18.5994 143.271 18.942 143.506 19.513 143.506C19.8556 143.154 19.7414 142.684 19.7414 142.332C19.7414 141.863 19.7414 141.394 19.7414 140.925C19.7414 95.7591 19.7414 50.5937 19.7414 5.42817C19.7414 5.07623 19.7414 4.7243 19.7414 4.37236C19.6272 1.0876 23.1675 -1.14137 26.1367 0.618329C26.8219 0.970268 27.3929 1.55685 27.9639 2.0261C41.6679 13.1708 55.4862 24.3156 69.1902 35.4603C70.1038 36.1642 70.9032 36.5161 72.0452 36.1641C76.2707 35.343 80.4961 34.5218 84.8357 33.8179C88.4901 33.2313 92.1446 32.8794 95.6848 32.2928C101.966 31.3543 108.247 30.8851 114.528 30.5331C124.578 29.8293 134.741 29.5946 144.905 29.9466C146.732 30.0639 148.56 30.0639 150.387 30.0639C154.498 30.0639 158.609 30.5331 162.72 30.8851C165.69 31.1197 168.659 31.3543 171.742 31.7063C176.082 32.1755 180.422 32.8794 184.761 33.3486C190.014 34.0525 195.268 35.2256 200.521 36.1641C201.663 36.3988 202.348 36.0469 203.148 35.4603C216.395 24.6675 229.756 13.8747 243.004 3.19923C243.803 2.49535 244.602 1.90877 245.402 1.20489C246.886 0.0317646 248.599 -0.437495 250.427 0.501009C252.14 1.43951 252.711 2.9646 252.711 4.95892C252.711 25.7233 252.711 46.605 252.711 67.3694C252.711 92.1224 252.711 116.876 252.711 141.629C252.711 142.332 252.596 143.036 252.825 143.857C253.396 144.092 253.967 143.74 254.424 143.506C258.421 142.098 262.418 140.573 266.415 139.165C269.155 138.226 271.554 139.282 272.81 141.863C274.18 144.679 272.924 148.081 270.069 149.137C264.93 151.014 259.677 152.891 254.538 154.768C253.967 155.002 253.282 155.12 252.711 155.706C252.368 161.103 251.569 166.616 250.541 172.013C251.226 172.365 252.025 172.365 252.711 172.365C256.365 172.365 259.905 172.482 263.56 172.482C264.473 172.482 265.273 172.482 266.186 172.482C268.927 172.599 270.183 173.303 270.983 175.649C271.782 177.996 271.211 180.928 269.612 182.453C268.927 183.157 268.013 183.275 267.1 183.275C261.39 183.157 255.68 183.04 249.97 182.923C249.056 182.923 248.257 182.923 247.572 182.923C247.115 183.157 247.115 183.509 247.001 183.744C243.232 193.481 237.75 202.162 230.556 209.553C224.96 215.418 218.564 220.228 211.484 224.1C203.833 228.206 195.839 231.138 187.388 232.898C183.505 233.719 179.622 234.071 175.625 234.071C149.816 233.954 123.892 233.954 98.083 234.071C92.4872 234.071 87.0055 233.367 81.6381 232.077C73.7583 230.2 66.221 227.15 59.1406 223.044C52.0602 218.938 45.7791 213.776 40.2975 207.558C36.1863 202.866 32.6461 197.821 29.6769 192.308C28.3065 189.727 27.0503 187.029 25.9083 184.213C25.7941 183.861 25.6798 183.509 25.4514 183.275C24.8804 182.923 24.1953 183.04 23.6243 183.04C18.1426 183.157 12.7752 183.275 7.2936 183.275C6.03739 183.275 4.78114 183.392 3.75334 182.219C2.61133 180.928 2.15457 179.403 2.15457 177.761C2.15457 177.174 2.26872 176.588 2.38292 176.119C2.95392 173.772 4.43853 172.482 6.95094 172.482C11.1764 172.365 15.516 172.365 19.7414 172.365C20.4266 172.365 21.2261 172.482 22.1397 172.13ZM36.9857 183.157C37.8993 185.504 39.0413 187.615 40.2975 189.727C45.0939 198.056 51.4892 204.86 59.1406 210.374C66.5636 215.77 74.7861 219.407 83.6937 221.636C88.2617 222.809 92.8298 223.396 97.6262 223.396C124.121 223.278 150.501 223.396 176.996 223.396C180.079 223.396 183.048 222.926 186.017 222.34C193.669 220.697 200.863 217.999 207.601 214.011C211.484 211.782 215.139 209.084 218.565 206.151C222.904 202.397 226.673 198.056 229.87 193.246C231.812 190.313 233.639 187.263 235.009 183.979C235.124 183.627 235.466 183.392 235.124 182.923C234.553 182.688 233.982 182.688 233.525 182.688C231.241 182.688 228.957 182.571 226.673 182.688C225.074 182.688 223.932 181.867 223.247 180.576C222.447 179.169 222.333 177.761 222.562 176.119C223.018 173.303 224.617 171.778 227.472 171.778C231.012 171.778 234.553 171.895 238.207 172.013C239.463 172.013 239.463 172.013 239.806 170.839C240.719 167.555 241.176 164.153 241.633 160.633C241.633 160.281 241.747 159.929 241.519 159.577C240.948 159.577 240.605 159.812 240.034 159.929C235.58 161.572 231.012 163.214 226.559 164.857C222.219 166.382 219.364 162.276 219.821 158.991C220.049 156.879 221.191 155.472 223.247 154.768C228.957 152.773 234.667 150.662 240.377 148.55C240.948 148.315 241.633 148.198 242.204 147.729C242.204 104.558 242.204 61.2691 242.204 17.9806C241.405 18.0979 241.062 18.5672 240.491 18.9192C228.957 28.0696 217.537 37.22 206.003 46.4877C204.746 47.4262 203.49 47.7781 202.006 47.4262C196.638 46.3704 191.271 45.3146 186.017 44.3761C182.363 43.7895 178.823 43.3203 175.168 42.851C171.971 42.4991 168.773 41.9125 165.576 41.7952C165.233 41.7952 164.776 41.6779 164.319 42.0298C164.205 42.6164 164.205 43.2029 164.205 43.7895C164.205 52.4707 164.205 61.1518 164.205 69.833C164.205 70.5369 164.205 71.2407 164.091 72.0619C163.634 74.4082 161.807 75.9332 159.409 76.0506C156.896 76.1679 154.841 74.7601 154.155 72.4139C153.927 71.71 153.927 71.0061 153.927 70.1849C153.927 61.0345 153.927 51.8841 153.927 42.7337C153.927 42.1471 154.041 41.4432 153.584 40.8567C149.587 40.622 145.705 40.3874 141.479 40.6221C141.479 41.4433 141.479 42.0298 141.479 42.6164C141.479 48.482 141.479 54.3477 141.479 60.2133C141.479 65.727 141.479 71.2407 141.479 76.8718C141.479 78.3968 141.251 79.8046 140.223 80.9777C138.853 82.5028 137.14 82.8547 135.198 82.7374C133.143 82.5028 131.43 80.9777 130.973 78.9834C130.744 78.1622 130.744 77.341 130.744 76.5198C130.744 65.2578 130.744 53.9957 130.744 42.851C130.744 42.1471 130.859 41.5605 130.63 40.8567C128.46 40.5047 119.781 40.7394 118.525 41.3259C118.296 41.9125 118.411 42.6164 118.411 43.2029C118.411 52.236 118.411 61.2691 118.411 70.3022C118.411 71.1234 118.411 71.8273 118.182 72.6485C117.497 74.9948 115.442 76.4025 112.929 76.1679C110.645 76.0506 108.818 74.4082 108.361 72.0619C108.247 71.358 108.247 70.6542 108.247 69.833C108.247 61.1518 108.247 52.4707 108.247 43.7895C108.247 43.2029 108.361 42.499 108.018 42.0298C107.676 41.7952 107.333 41.9125 106.991 41.9125C104.707 42.0298 102.537 42.2645 100.367 42.4991C95.9132 43.0856 91.4593 43.5549 87.1197 44.2588C81.5239 45.1973 75.9281 46.1358 70.3322 47.4262C68.9618 47.6608 67.8199 47.4262 66.792 46.605C63.4802 43.9068 60.1684 41.2086 56.8566 38.6277C48.6341 32.0582 40.4117 25.4887 32.1893 18.9192C31.7325 18.5672 31.2757 17.9806 30.5905 18.098C30.5905 61.2691 30.5905 104.44 30.5905 147.611C32.4177 148.315 34.2449 148.902 35.9579 149.606C40.7543 151.366 45.665 153.125 50.4614 154.885C52.0602 155.471 53.2022 156.527 53.659 158.17C54.23 160.399 53.659 162.276 52.0602 163.918C50.4613 165.443 48.6342 165.56 46.6928 164.857C42.0106 163.097 37.3283 161.454 32.6461 159.812C32.1893 159.577 31.6183 159.343 30.9331 159.46C31.3899 163.801 31.9609 168.024 33.2171 172.013C33.9023 172.247 34.4733 172.247 34.9301 172.247C38.8129 172.13 42.6957 172.13 46.5785 172.013C48.2915 172.013 49.4336 172.834 50.233 174.359C51.0324 175.884 51.1466 177.409 50.804 179.051C50.3472 181.515 48.8625 182.805 46.3501 182.923C43.8377 182.923 41.2112 182.923 38.6987 183.04C38.1277 182.805 37.5567 182.688 36.9857 183.157Z"
          fill="black"/>
    <path d="M81.6383 129.428C90.0892 129.428 96.7128 136.349 96.7128 145.031C96.7128 153.594 89.8608 160.516 81.5242 160.516C73.1875 160.516 66.5638 153.594 66.5638 145.031C66.5638 136.232 73.1875 129.428 81.6383 129.428Z"
          fill="black"/>
    <path d="M190.471 160.633C182.135 160.75 175.283 153.946 175.169 145.265C175.054 136.819 181.792 129.78 190.015 129.545C198.351 129.428 205.318 136.232 205.432 144.796C205.432 153.712 198.808 160.516 190.471 160.633Z"
          fill="black"/>
    <path d="M136.454 155.002C139.88 155.002 143.421 155.002 146.847 155.002C147.76 155.002 148.56 155.119 149.359 155.589C151.186 156.527 151.757 159.108 150.387 160.633C146.276 165.443 142.279 170.37 138.167 175.297C137.025 176.705 136.226 176.705 135.084 175.297C131.087 170.487 127.09 165.678 122.979 160.985C121.951 159.812 121.608 158.521 122.294 157.114C122.979 155.706 124.121 155.119 125.605 155.119C129.26 155.002 132.8 155.002 136.454 155.002Z"
          fill="black"/>
</svg>
