<svg width="44" height="44" viewBox="0 0 44 44" fill="none" xmlns="http://www.w3.org/2000/svg">
    <path d="M43.1977 37.3648L33.0913 27.2584C34.777 24.5304 35.7506 21.3156 35.7506 17.8753C35.7506 8.00263 27.7479 0 17.8753 0C8.00263 0 0 8.00263 0 17.8753C0 27.7479 8.00263 35.7506 17.8753 35.7506C21.3156 35.7506 24.5304 34.777 27.2584 33.0913L37.3648 43.1977C38.4346 44.2674 40.1836 44.2674 41.2534 43.1977L43.1977 41.2534C44.2674 40.1836 44.2674 38.4346 43.1977 37.3648ZM9.12464 26.6259C6.78711 24.2884 5.50009 21.1808 5.50009 17.8753C5.50009 14.5697 6.78711 11.4622 9.12464 9.12464C11.4622 6.78711 14.5697 5.50009 17.8753 5.50009C21.1808 5.50009 24.2884 6.78711 26.6259 9.12464C28.9635 11.4622 30.2505 14.5697 30.2505 17.8753C30.2505 21.1808 28.9635 24.2884 26.6259 26.6259C24.2884 28.9635 21.1808 30.2505 17.8753 30.2505C14.5697 30.2505 11.4622 28.9635 9.12464 26.6259Z"
          fill="black"/>
</svg>
