<svg width="742" height="742" viewBox="0 0 742 742" fill="none" xmlns="http://www.w3.org/2000/svg">
<circle cx="371" cy="371" r="371" fill="url(#paint0_linear_1079_11)" style="mix-blend-mode:darken"/>
<path fill-rule="evenodd" clip-rule="evenodd" d="M516.032 228.15L595.558 166.934L595.558 247.572V449.592H595.53C594.867 483.395 582.351 514.243 562.033 538.016C536.625 569.838 497.584 590.213 453.804 590.213C451.597 590.213 449.406 590.162 447.23 590.06H296.022C293.485 590.215 290.933 590.294 288.37 590.294C281.155 590.294 274.096 589.687 267.225 588.526C197.7 579.175 146.978 512.838 148.251 445.11C148.288 443.152 148.375 441.199 148.511 439.25V279.476L148.51 279.476L148.51 166.934L226.581 227.775L226.602 227.766L228.017 228.332L229.715 228.615H231.129L233.11 228.185L253.199 224.224L263.385 222.673L263.334 222.731C294.625 216.974 332.196 213.619 372.6 213.619C420.309 213.619 464.067 218.296 498.203 226.084L498.226 226.068L511.742 228.67L512.424 228.706L515.612 228.289L516.032 228.15Z" fill="white"/>
<path fill-rule="evenodd" clip-rule="evenodd" d="M126.175 471.215C126.818 475.715 127.461 480.215 128.747 484.715C127.192 485.298 125.793 485.254 124.551 485.216C124.253 485.206 123.963 485.197 123.683 485.197H123.676C114.757 485.197 105.596 485.197 96.6766 485.438C91.3718 485.438 88.2371 488.09 87.0314 492.911C86.7903 493.876 86.5493 495.081 86.5493 496.286C86.5493 499.661 87.5137 502.795 89.925 505.447C91.9141 507.657 94.3085 507.638 96.7365 507.62C96.9576 507.618 97.1788 507.617 97.4001 507.617C108.741 507.617 119.851 507.385 131.183 507.149L131.882 507.135C132.117 507.135 132.362 507.125 132.612 507.116C133.643 507.077 134.77 507.035 135.74 507.617C136.222 508.099 136.463 508.822 136.704 509.545C139.115 515.331 141.768 520.876 144.661 526.179C150.931 537.509 158.406 547.875 167.086 557.518C178.661 570.295 191.923 580.902 206.873 589.339C221.823 597.777 237.737 604.045 254.375 607.902C265.708 610.554 277.283 612 289.098 612C343.593 611.759 398.33 611.759 452.825 612C461.264 612 469.463 611.277 477.661 609.589C495.505 605.973 512.384 599.947 528.539 591.509C543.49 583.554 556.993 573.67 568.808 561.616C583.999 546.429 595.574 528.59 603.531 508.581C603.588 508.467 603.631 508.34 603.677 508.206C603.826 507.771 604 507.262 604.737 506.894H609.8L645.97 507.617C647.899 507.617 649.828 507.376 651.274 505.929C654.65 502.795 655.856 496.769 654.168 491.947C652.48 487.126 649.828 485.679 644.041 485.438H638.495C634.637 485.438 630.839 485.378 627.041 485.318C623.243 485.258 619.446 485.197 615.587 485.197C614.141 485.197 612.453 485.197 611.006 484.474C613.176 473.385 614.864 462.054 615.587 450.965C616.509 450.044 617.571 449.686 618.559 449.353C618.864 449.251 619.161 449.15 619.445 449.037C624.871 447.108 630.357 445.18 635.842 443.251C641.328 441.322 646.814 439.394 652.239 437.465C658.267 435.296 660.92 428.305 658.026 422.519C655.374 417.215 650.31 415.046 644.523 416.974C640.303 418.421 636.084 419.927 631.864 421.434C627.644 422.941 623.424 424.447 619.204 425.894C619.118 425.937 619.031 425.982 618.941 426.027C618.025 426.495 616.927 427.056 615.829 426.617C615.466 425.347 615.512 424.214 615.558 423.114C615.573 422.753 615.587 422.395 615.587 422.037V269.439V141.19C615.587 137.092 614.382 133.958 610.765 132.03C606.907 130.101 603.29 131.065 600.155 133.476C599.311 134.199 598.467 134.862 597.623 135.525C596.779 136.188 595.935 136.851 595.091 137.574C567.12 159.512 538.908 181.69 510.937 203.868C509.249 205.074 507.802 205.797 505.391 205.315C501.694 204.672 497.996 203.976 494.299 203.279C486.904 201.886 479.51 200.493 472.115 199.529C467.534 199.047 462.952 198.444 458.371 197.842C453.79 197.239 449.208 196.636 444.627 196.154C438.116 195.431 431.847 194.949 425.577 194.467C423.841 194.322 422.105 194.168 420.369 194.014C413.425 193.396 406.48 192.779 399.535 192.779C395.677 192.779 391.819 192.779 387.961 192.538C366.501 191.815 345.04 192.297 323.821 193.743C310.559 194.467 297.296 195.431 284.034 197.36C280.183 197.981 276.267 198.474 272.321 198.971C268.608 199.438 264.867 199.909 261.127 200.493C251.964 201.94 243.042 203.627 234.12 205.315C231.709 206.038 230.021 205.315 228.092 203.868C213.624 192.417 199.096 180.966 184.568 169.515C170.04 158.065 155.512 146.614 141.044 135.163C140.731 134.913 140.418 134.646 140.101 134.376C139.197 133.606 138.258 132.806 137.186 132.271C130.917 128.655 123.442 133.235 123.683 139.985V142.155V420.59V423.483C123.683 423.622 123.692 423.771 123.701 423.924C123.74 424.569 123.785 425.31 123.201 425.894C122.397 425.894 121.808 425.68 121.218 425.465C120.924 425.358 120.629 425.251 120.307 425.171C116.449 423.845 112.591 422.459 108.733 421.073C104.875 419.686 101.017 418.3 97.1589 416.974C95.471 416.251 93.7831 415.769 91.854 416.01C87.2726 416.492 82.9322 420.59 82.2088 425.171C81.2443 430.956 83.6556 435.537 88.7194 437.465C89.0811 437.586 89.3826 437.706 89.684 437.827C89.9854 437.948 90.2867 438.068 90.6484 438.189L90.6662 438.195C100.788 441.809 110.909 445.423 121.272 449.037C123.201 449.76 123.924 450.483 123.924 452.653L123.946 452.993C124.18 456.75 124.428 460.721 125.13 464.465C125.532 466.715 125.853 468.965 126.175 471.215ZM167.086 520.876C164.434 516.536 162.023 512.197 160.094 507.376C160.105 507.366 160.117 507.357 160.128 507.348L165.262 507.071C170.089 506.894 175.074 506.894 179.862 506.894H179.866C185.171 506.652 188.306 504.001 189.27 498.938C189.994 495.563 189.753 492.429 188.065 489.295C186.377 486.161 183.966 484.474 180.349 484.474C176.25 484.594 172.151 484.655 168.052 484.715C163.952 484.775 159.853 484.836 155.753 484.956C154.789 484.956 153.583 484.956 152.136 484.474C149.484 476.278 148.278 467.599 147.314 458.68C148.761 458.438 149.966 458.921 150.931 459.403L150.936 459.404C160.82 462.779 170.705 466.153 180.59 469.769C184.689 471.215 188.547 470.974 191.923 467.84C195.299 464.465 196.504 460.608 195.299 456.028C194.334 452.653 191.923 450.483 188.547 449.278C183.483 447.47 178.359 445.662 173.236 443.854C168.111 442.046 162.987 440.238 157.924 438.43C155.847 437.599 153.69 436.848 151.5 436.085C149.876 435.519 148.233 434.947 146.59 434.331V168.19C147.739 167.999 148.584 168.719 149.366 169.386C149.569 169.559 149.768 169.729 149.966 169.878L202.05 210.377C209.042 215.68 216.035 221.225 223.027 226.769L223.029 226.77C225.199 228.458 227.61 228.94 230.503 228.458C242.318 225.806 254.132 223.878 265.947 221.949L265.95 221.949C272.176 220.966 278.513 220.206 284.886 219.441C287.892 219.081 290.907 218.719 293.921 218.333C298.502 217.851 303.084 217.368 307.906 217.127C308.087 217.127 308.268 217.112 308.449 217.097C308.991 217.052 309.534 217.007 310.076 217.368C310.657 218.143 310.616 219.228 310.577 220.25C310.568 220.5 310.559 220.747 310.559 220.984V274.502C310.559 276.189 310.559 277.636 310.8 279.082C311.764 283.904 315.622 287.279 320.445 287.52C325.75 288.002 330.09 285.109 331.537 280.288C332.019 278.6 332.019 277.154 332.019 275.466V219.779C332.019 219.485 332.005 219.176 331.99 218.86C331.944 217.882 331.896 216.833 332.26 215.922C334.913 214.717 353.238 214.234 357.82 214.958C358.179 216.035 358.137 216.978 358.092 217.986C358.077 218.333 358.061 218.686 358.061 219.056V288.243C358.061 289.93 358.061 291.618 358.543 293.305C359.508 297.404 363.125 300.538 367.465 301.02C371.564 301.261 375.181 300.538 378.075 297.404C380.245 294.993 380.727 292.1 380.727 288.966V254.734V218.574V214.476C389.529 214 397.626 214.463 405.946 214.938L406.287 214.958C407.094 215.966 407.057 217.144 407.023 218.208C407.017 218.415 407.01 218.618 407.01 218.815V275.225C407.01 276.913 407.01 278.359 407.493 279.806C408.939 284.627 413.28 287.52 418.584 287.279C423.648 287.038 427.506 283.904 428.471 279.082C428.712 277.395 428.712 275.949 428.712 274.503V274.502V220.984C428.712 219.779 428.712 218.574 428.953 217.368C429.734 216.783 430.515 216.829 431.168 216.868C431.321 216.877 431.468 216.886 431.606 216.886C436.107 217.047 440.608 217.636 445.109 218.226C447.359 218.52 449.61 218.815 451.86 219.056C459.577 220.02 467.052 220.984 474.768 222.19C485.859 224.118 497.191 226.288 508.524 228.457L508.526 228.458C511.661 229.181 514.313 228.458 516.965 226.529C541.32 207.484 565.432 188.681 589.786 169.878C590.141 169.665 590.454 169.431 590.762 169.202C591.501 168.65 592.212 168.119 593.403 167.949V434.573C592.541 435.262 591.556 435.582 590.624 435.884C590.252 436.005 589.889 436.122 589.545 436.26L589.52 436.269C577.472 440.605 565.424 444.941 553.376 449.037C549.036 450.483 546.624 453.376 546.142 457.715C545.178 464.465 551.206 472.903 560.369 469.769C565.07 468.081 569.831 466.394 574.593 464.707C579.356 463.019 584.119 461.332 588.822 459.644C589.285 459.551 589.677 459.423 590.052 459.3C590.654 459.104 591.214 458.921 591.957 458.921C592.318 459.463 592.273 460.005 592.228 460.548C592.213 460.729 592.198 460.909 592.198 461.09C591.233 468.322 590.269 475.313 588.34 482.063C587.616 484.474 587.616 484.474 584.964 484.474L584.276 484.452C576.803 484.219 569.55 483.992 562.298 483.992C556.269 483.992 552.894 487.126 551.929 492.911C551.447 496.286 551.688 499.179 553.376 502.072C554.823 504.724 557.234 506.411 560.61 506.411C563.825 506.251 567.04 506.304 570.255 506.358C571.863 506.385 573.47 506.411 575.078 506.411C576.042 506.411 577.248 506.411 578.453 506.894C578.986 507.603 578.735 508.051 578.469 508.527C578.374 508.697 578.276 508.872 578.212 509.063C575.319 515.813 571.461 522.081 567.362 528.108C560.61 537.992 552.653 546.911 543.49 554.625C536.256 560.652 528.54 566.197 520.341 570.777C506.115 578.973 490.923 584.518 474.768 587.893C468.498 589.098 462.229 590.063 455.718 590.063C437.062 590.063 418.433 590.036 399.812 590.009C362.598 589.956 325.419 589.902 288.133 590.063C278.006 590.063 268.361 588.857 258.716 586.447C239.908 581.866 222.546 574.393 206.873 563.304C190.717 551.974 177.214 537.992 167.086 520.876Z" fill="black"/>
<path d="M370.695 449.784C377.929 449.784 385.404 449.784 392.638 449.784C394.567 449.784 396.255 450.026 397.943 450.99C401.801 452.918 403.007 458.222 400.113 461.356C391.432 471.24 382.993 481.365 374.312 491.49C371.901 494.383 370.213 494.383 367.801 491.49C359.362 481.606 350.922 471.722 342.242 462.079C340.072 459.668 339.348 457.017 340.795 454.124C342.242 451.231 344.653 450.026 347.788 450.026C355.504 449.785 362.979 449.784 370.695 449.784Z" fill="black"/>
<rect x="227.678" y="382" width="108" height="25" rx="12.5" transform="rotate(45 227.678 382)" fill="black"/>
<rect x="457.678" y="382" width="108" height="25" rx="12.5" transform="rotate(45 457.678 382)" fill="black"/>
<rect x="210" y="458.368" width="108" height="25" rx="12.5" transform="rotate(-45 210 458.368)" fill="black"/>
<rect x="440" y="458.368" width="108" height="25" rx="12.5" transform="rotate(-45 440 458.368)" fill="black"/>
<defs>
<linearGradient id="paint0_linear_1079_11" x1="123.546" y1="84.0547" x2="618.454" y2="670.988" gradientUnits="userSpaceOnUse">
<stop stop-color="#B8B2B2" stop-opacity="0.5"/>
<stop offset="0.494792" stop-color="#786366" stop-opacity="0.5"/>
<stop offset="1" stop-opacity="0.5"/>
</linearGradient>
</defs>
</svg>
