<svg width="45" height="45" viewBox="0 0 45 45" fill="none" xmlns="http://www.w3.org/2000/svg">
<path d="M28.302 39.8437C28.309 38.7494 28.3158 34.9514 28.3158 33.4476C28.3158 31.2745 27.5735 29.8525 26.741 29.1328C31.9092 28.5553 37.335 26.5868 37.335 17.6327C37.335 15.0886 36.4388 13.0073 34.9502 11.3789C35.1886 10.7892 35.9845 8.41872 34.7189 5.21012C34.7189 5.21012 32.7745 4.58387 28.3434 7.60169C26.4891 7.08301 24.5065 6.82637 22.5347 6.81606C20.5627 6.82637 18.5803 7.08325 16.7257 7.60169C12.2946 4.58387 10.3505 5.21012 10.3505 5.21012C9.08484 8.41872 9.88078 10.7892 10.1191 11.3789C8.63062 13.0073 7.73438 15.0886 7.73438 17.6327C7.73438 26.5868 13.1599 28.5553 18.3281 29.1328C17.4959 29.8525 16.7534 31.2745 16.7534 33.4476C16.7534 34.9514 16.7604 38.7494 16.7672 39.8437M6.32812 30.4687C8.65758 30.6335 10.0008 32.7504 10.0008 32.7504C12.0712 36.3126 15.4331 35.2823 16.7543 34.6875" stroke="black" stroke-width="2.8125" stroke-linecap="round" stroke-linejoin="round"/>
</svg>
