<svg width="43" height="43" viewBox="0 0 43 43" fill="none" xmlns="http://www.w3.org/2000/svg">
<path d="M38.3714 18.5145C38.5505 19.6045 38.6552 20.7243 38.6552 21.9038C38.6552 27.3535 36.7141 31.952 33.3398 35.0725C30.3836 37.8048 26.3375 39.4173 21.5 39.4173C14.4975 39.4173 8.45062 35.3861 5.50929 29.5332C4.28499 27.1145 3.58325 24.3972 3.58325 21.5006C3.58325 18.6041 4.28499 15.8868 5.50929 13.468C8.45062 7.61523 14.4975 3.58398 21.5 3.58398C26.3375 3.58398 30.3836 5.36073 33.4742 8.25724L28.368 13.3635C26.5016 11.5868 24.1427 10.676 21.5 10.676C16.8267 10.676 12.8701 13.8263 11.4517 18.0816C11.0933 19.1566 10.8843 20.3061 10.8843 21.5006C10.8843 22.6952 11.0784 23.8447 11.4517 24.9197C12.8701 29.1749 16.8267 32.3254 21.5 32.3254C23.9187 32.3254 25.9641 31.6684 27.5766 30.5934C29.4578 29.3243 30.7271 27.4579 31.1599 25.2483H21.5V18.5145H38.3714Z" stroke="black" stroke-width="1.79167" stroke-linejoin="round"/>
</svg>
