<svg width="290" height="289" viewBox="0 0 290 289" fill="none" xmlns="http://www.w3.org/2000/svg">
    <g clip-path="url(#clip0_251_21)">
        <path d="M120.194 101.32L104.643 57.9817L146.396 63.1419L161.947 106.479L120.194 101.32Z" fill="#E7A063"/>
        <path d="M196.341 162.221L180.789 118.882L222.542 124.043L238.093 167.38L196.341 162.221Z" fill="#E7A063"/>
        <path d="M119.54 94.0195L179.308 101.406L199.648 158.087L259.412 165.471L186.383 242.346L40.2545 125.476L99.1996 37.3368L119.54 94.0195Z"
              fill="#F37F32"/>
        <path d="M175.543 206.219C174.085 205.052 173.848 202.924 175.014 201.465C176.181 200.007 178.309 199.77 179.768 200.937C181.226 202.103 181.463 204.231 180.296 205.69C179.13 207.148 177.002 207.385 175.543 206.219Z"
              fill="#FFAA0E"/>
        <path d="M194.557 204.105C193.098 202.938 192.861 200.81 194.028 199.352C195.194 197.893 197.323 197.656 198.781 198.823C200.24 199.989 200.476 202.117 199.31 203.576C198.143 205.035 196.015 205.271 194.557 204.105Z"
              fill="#FFAA0E"/>
        <path d="M43.0704 121.955L189.199 238.825C193.088 241.935 193.719 247.61 190.609 251.499C187.498 255.389 181.823 256.02 177.934 252.909L31.8064 136.039C27.9169 132.929 27.2859 127.254 30.3964 123.365C33.5068 119.475 39.1812 118.844 43.0704 121.955Z"
              fill="#FFAA0E"/>
    </g>
    <defs>
        <clipPath id="clip0_251_21">
            <rect width="205.15" height="205.15" fill="white"
                  transform="matrix(-0.780954 -0.624589 -0.624589 0.780954 289.174 128.259)"/>
        </clipPath>
    </defs>
</svg>
