<svg width="892" height="614" viewBox="0 0 892 614" fill="none" xmlns="http://www.w3.org/2000/svg">
<path d="M734.836 274.177L735.913 272.497L730.913 269L732.913 270.499L732.106 271.782L734.836 274.177Z" fill="#8E1678"/>
<path d="M730.685 270.172L694.225 306.635L698.076 310.486L734.537 274.023L730.685 270.172Z" fill="#8F1677"/>
<path d="M878.576 52.5512C823.018 -41.6858 584.445 -3.91833 345.69 136.62C106.754 277.522 -41.7643 467.811 13.7938 562.048C69.3519 656.285 307.925 618.518 546.68 477.979C785.434 337.259 933.952 146.788 878.576 52.5512ZM521.079 429.499C308.107 554.967 102.759 601.087 62.4525 532.633C22.1456 464.18 162.13 306.937 374.922 181.469C587.894 56.0011 793.06 9.88129 833.548 78.3347C873.855 146.788 733.871 304.031 521.079 429.499Z" fill="url(#paint0_linear_909_90)"/>
<path d="M771.273 306.391L733.871 342.162C814.667 419.149 854.429 490.144 831.007 530.999C791.245 599.815 585.535 555.33 371.654 431.859C304.294 393.002 244.197 350.877 194.631 309.297L175.567 326.183L157.047 343.796C210.064 391.005 274.337 437.488 346.962 479.432C586.987 617.973 825.924 653.561 880.574 558.961C914.526 499.586 868.954 403.715 771.273 306.391ZM544.865 136.257C304.839 -2.28448 65.9028 -37.873 11.2525 56.7271C-22.8813 115.739 22.6909 211.61 120.19 308.934L153.598 277.158L155.958 274.798C73.3469 196.721 32.1322 124.454 55.9169 83.2369C95.6791 14.4204 301.389 58.906 515.27 182.376C583.719 221.96 644.724 264.811 694.835 307.118L713.899 290.776L734.235 271.348C681.4 224.502 617.308 178.2 544.865 136.257Z" fill="url(#paint1_linear_909_90)"/>
<path d="M771.273 306.391L733.871 342.162C814.667 419.149 854.429 490.144 831.007 530.999C791.245 599.815 585.535 555.33 371.654 431.859C304.294 393.002 244.197 350.877 194.631 309.297L175.567 326.183L157.047 343.796C210.064 391.005 274.337 437.488 346.962 479.432C586.987 617.973 825.924 653.561 880.574 558.961C914.526 499.586 868.954 403.715 771.273 306.391ZM544.865 136.257C304.839 -2.28448 65.9028 -37.873 11.2525 56.7271C-22.8813 115.739 22.6909 211.61 120.19 308.934L153.598 277.158L155.958 274.798C73.3469 196.721 32.1322 124.454 55.9169 83.2369C95.6791 14.4204 301.389 58.906 515.27 182.376C583.719 221.96 644.724 264.811 694.835 307.118L713.899 290.776L734.235 271.348C681.4 224.502 617.308 178.2 544.865 136.257Z" fill="url(#paint2_linear_909_90)"/>
<g filter="url(#filter0_d_909_90)">
<path fill-rule="evenodd" clip-rule="evenodd" d="M552.513 191.716L612.445 145.583L612.445 206.353H612.446V358.603H612.424C611.925 384.085 602.488 407.338 587.169 425.257C568.021 449.232 538.603 464.582 505.614 464.582C503.951 464.582 502.299 464.543 500.659 464.466H386.705C384.793 464.584 382.87 464.643 380.938 464.643C375.502 464.643 370.184 464.185 365.008 463.311C312.608 456.267 274.379 406.271 275.338 355.227C275.366 353.751 275.431 352.278 275.534 350.809V219.037L275.534 219.037L275.534 145.583L334.371 191.435L334.386 191.429L335.452 191.855L336.732 192.068H337.798L339.291 191.744L354.43 188.759L362.107 187.59L362.069 187.634C385.651 183.295 413.966 180.767 444.416 180.767C480.371 180.767 513.348 184.292 539.074 190.161L539.092 190.148L549.289 192.111L549.786 192.137L552.192 191.823L552.513 191.716Z" fill="white"/>
</g>
<path fill-rule="evenodd" clip-rule="evenodd" d="M260.205 374.899C260.69 378.29 261.174 381.682 262.143 385.073C260.971 385.513 259.917 385.48 258.981 385.45C258.756 385.443 258.538 385.436 258.327 385.436H258.324C251.601 385.436 244.697 385.436 237.974 385.618C233.976 385.618 231.614 387.616 230.705 391.25C230.523 391.977 230.342 392.885 230.342 393.794C230.342 396.337 231.068 398.699 232.886 400.697C234.385 402.363 236.189 402.349 238.019 402.335C238.186 402.334 238.352 402.333 238.519 402.333C247.066 402.333 255.438 402.158 263.978 401.98L264.506 401.969C264.683 401.969 264.868 401.962 265.057 401.955C265.834 401.926 266.682 401.894 267.413 402.333C267.777 402.696 267.959 403.241 268.14 403.786C269.957 408.146 271.956 412.325 274.137 416.322C278.862 424.861 284.495 432.673 291.037 439.94C299.76 449.569 309.755 457.563 321.022 463.922C332.289 470.281 344.283 475.004 356.822 477.911C365.363 479.91 374.086 481 382.99 481C424.06 480.818 465.311 480.818 506.381 481C512.741 481 518.92 480.455 525.098 479.183C538.546 476.458 551.267 471.916 563.442 465.557C574.709 459.562 584.886 452.113 593.79 443.029C605.239 431.583 613.962 418.139 619.959 403.059C620.001 402.973 620.034 402.878 620.069 402.776C620.181 402.449 620.312 402.065 620.867 401.788H624.683L651.942 402.333C653.396 402.333 654.85 402.151 655.94 401.061C658.484 398.699 659.393 394.157 658.121 390.523C656.849 386.89 654.85 385.8 650.488 385.618H646.309C643.401 385.618 640.539 385.573 637.677 385.527C634.815 385.482 631.952 385.436 629.045 385.436C627.954 385.436 626.682 385.436 625.592 384.891C627.228 376.534 628.5 367.995 629.045 359.638C629.739 358.944 630.54 358.674 631.285 358.423C631.514 358.346 631.738 358.27 631.952 358.185C636.041 356.731 640.175 355.278 644.31 353.824C648.444 352.371 652.578 350.917 656.667 349.464C661.21 347.829 663.209 342.56 661.028 338.2C659.029 334.203 655.213 332.568 650.852 334.021C647.672 335.111 644.491 336.247 641.311 337.382C638.131 338.518 634.951 339.653 631.771 340.743C631.706 340.776 631.64 340.809 631.572 340.844C630.882 341.196 630.054 341.619 629.227 341.288C628.953 340.331 628.988 339.477 629.022 338.648C629.034 338.376 629.045 338.106 629.045 337.836V222.833V126.18C629.045 123.091 628.136 120.729 625.41 119.276C622.503 117.822 619.777 118.549 617.414 120.366C616.778 120.911 616.142 121.411 615.506 121.91C614.87 122.41 614.234 122.91 613.598 123.455C592.518 139.987 571.256 156.702 550.176 173.416C548.904 174.325 547.814 174.87 545.997 174.506C543.21 174.022 540.424 173.497 537.637 172.972C532.064 171.923 526.492 170.873 520.919 170.146C517.466 169.783 514.013 169.329 510.561 168.874C507.108 168.42 503.655 167.966 500.202 167.603C495.296 167.058 490.571 166.694 485.846 166.331C484.538 166.222 483.229 166.106 481.921 165.989C476.687 165.524 471.454 165.059 466.22 165.059C463.312 165.059 460.405 165.059 457.497 164.877C441.324 164.332 425.15 164.696 409.158 165.786C399.163 166.331 389.169 167.058 379.174 168.511C376.271 168.979 373.32 169.351 370.346 169.725C367.548 170.078 364.729 170.433 361.91 170.873C355.004 171.963 348.281 173.235 341.557 174.506C339.74 175.051 338.467 174.507 337.014 173.416C326.11 164.787 315.161 156.157 304.213 147.527C293.264 138.897 282.315 130.268 271.411 121.638C271.175 121.449 270.939 121.248 270.7 121.044C270.019 120.464 269.311 119.861 268.504 119.458C263.779 116.732 258.145 120.184 258.327 125.271V126.906V336.746V338.926C258.327 339.031 258.334 339.143 258.341 339.259C258.37 339.745 258.404 340.303 257.964 340.743C257.358 340.743 256.914 340.582 256.469 340.42C256.247 340.339 256.025 340.259 255.783 340.198C252.875 339.199 249.968 338.154 247.06 337.11C244.153 336.065 241.245 335.02 238.337 334.021C237.065 333.476 235.793 333.113 234.339 333.294C230.887 333.658 227.616 336.746 227.07 340.198C226.344 344.558 228.161 348.01 231.977 349.464C232.25 349.555 232.477 349.645 232.704 349.736C232.931 349.827 233.158 349.918 233.431 350.009L233.433 350.01C241.065 352.735 248.697 355.46 256.51 358.185C257.964 358.73 258.509 359.275 258.509 360.91L258.525 361.166C258.702 363.998 258.888 366.99 259.417 369.812C259.72 371.508 259.963 373.203 260.205 374.899ZM291.037 412.325C289.038 409.055 287.221 405.784 285.768 402.151C285.776 402.144 285.784 402.138 285.793 402.131L289.693 401.92C293.32 401.788 297.066 401.788 300.665 401.788H300.669C304.667 401.606 307.029 399.607 307.756 395.792C308.301 393.249 308.12 390.887 306.847 388.525C305.575 386.163 303.758 384.891 301.032 384.891C297.943 384.982 294.854 385.028 291.764 385.073C288.675 385.118 285.586 385.164 282.496 385.255C281.769 385.255 280.861 385.255 279.771 384.891C277.772 378.714 276.863 372.174 276.136 365.452C277.226 365.27 278.135 365.633 278.862 365.997L278.87 365.999C286.318 368.542 293.766 371.085 301.214 373.809C304.303 374.899 307.211 374.717 309.755 372.355C312.299 369.812 313.208 366.905 312.299 363.453C311.572 360.91 309.755 359.275 307.211 358.366C303.395 357.004 299.533 355.641 295.671 354.278C291.81 352.916 287.948 351.553 284.132 350.191C282.567 349.565 280.942 348.999 279.291 348.424C278.067 347.997 276.829 347.566 275.591 347.102V146.528C276.457 146.384 277.093 146.926 277.683 147.429C277.836 147.56 277.985 147.687 278.135 147.8L317.387 178.322C322.657 182.319 327.927 186.497 333.197 190.676L333.198 190.676C334.833 191.948 336.65 192.311 338.831 191.948C347.735 189.949 356.639 188.496 365.543 187.043L365.544 187.042C370.237 186.302 375.013 185.729 379.816 185.153C382.081 184.881 384.353 184.608 386.625 184.317L386.625 184.317C390.077 183.954 393.53 183.59 397.165 183.409C397.301 183.409 397.437 183.397 397.573 183.386C397.982 183.352 398.391 183.318 398.8 183.59C399.238 184.174 399.207 184.992 399.178 185.762C399.17 185.951 399.163 186.137 399.163 186.316V226.648C399.163 227.92 399.163 229.01 399.345 230.1C400.072 233.734 402.98 236.277 406.614 236.459C410.612 236.823 413.883 234.642 414.973 231.009C415.337 229.737 415.337 228.647 415.337 227.375V185.407C415.337 185.186 415.326 184.953 415.315 184.715C415.281 183.978 415.244 183.187 415.519 182.5C417.518 181.592 431.329 181.229 434.781 181.774C435.052 182.585 435.02 183.296 434.987 184.056C434.975 184.317 434.963 184.584 434.963 184.862V237.004C434.963 238.276 434.963 239.548 435.327 240.819C436.054 243.908 438.779 246.27 442.05 246.633C445.14 246.815 447.866 246.27 450.046 243.908C451.682 242.091 452.045 239.911 452.045 237.549V211.751V184.499V181.41C458.678 181.052 464.781 181.401 471.051 181.759L471.308 181.774C471.916 182.534 471.888 183.421 471.863 184.223C471.858 184.379 471.853 184.532 471.853 184.681V227.194C471.853 228.465 471.853 229.555 472.217 230.645C473.307 234.279 476.578 236.459 480.576 236.277C484.392 236.096 487.3 233.734 488.027 230.1C488.208 228.829 488.208 227.739 488.208 226.65V226.648V186.316C488.208 185.407 488.208 184.499 488.39 183.59C488.979 183.149 489.567 183.184 490.059 183.214C490.175 183.221 490.285 183.227 490.389 183.227C493.781 183.348 497.174 183.792 500.566 184.236C502.262 184.458 503.958 184.681 505.654 184.862C511.469 185.589 517.103 186.316 522.918 187.224C531.277 188.677 539.817 190.312 548.358 191.947L548.359 191.948C550.722 192.493 552.721 191.948 554.72 190.494C573.074 176.142 591.246 161.971 609.6 147.8C609.867 147.639 610.103 147.463 610.335 147.29C610.892 146.874 611.428 146.474 612.326 146.346V347.284C611.676 347.803 610.934 348.044 610.231 348.272C609.951 348.363 609.677 348.452 609.418 348.555L609.402 348.561C600.322 351.829 591.241 355.098 582.16 358.185C578.889 359.275 577.072 361.455 576.708 364.725C575.981 369.812 580.524 376.171 587.43 373.809C590.974 372.537 594.563 371.265 598.152 369.994C601.741 368.722 605.33 367.45 608.873 366.178C609.222 366.109 609.517 366.012 609.8 365.92C610.254 365.771 610.676 365.633 611.236 365.633C611.508 366.042 611.474 366.451 611.44 366.86C611.429 366.996 611.417 367.132 611.417 367.268C610.691 372.719 609.964 377.987 608.51 383.075C607.965 384.891 607.965 384.891 605.966 384.891L605.445 384.875C599.814 384.699 594.349 384.528 588.884 384.528C584.34 384.528 581.796 386.89 581.07 391.25C580.706 393.794 580.888 395.974 582.16 398.154C583.25 400.152 585.067 401.424 587.612 401.424C590.035 401.303 592.458 401.343 594.881 401.384C596.092 401.404 597.304 401.424 598.515 401.424C599.242 401.424 600.151 401.424 601.059 401.788C601.46 402.322 601.271 402.66 601.071 403.018C600.999 403.147 600.926 403.279 600.878 403.423C598.697 408.51 595.789 413.233 592.7 417.775C587.612 425.224 581.615 431.946 574.709 437.76C569.257 442.302 563.442 446.481 557.264 449.933C546.542 456.11 535.093 460.288 522.918 462.832C518.193 463.74 513.468 464.467 508.561 464.467C494.501 464.467 480.462 464.447 466.428 464.427C438.382 464.386 410.363 464.346 382.263 464.467C374.631 464.467 367.362 463.559 360.093 461.742C345.918 458.29 332.834 452.658 321.022 444.301C308.846 435.762 298.67 425.224 291.037 412.325Z" fill="black"/>
<path d="M356.901 318.716C370.348 318.716 380.888 329.435 380.888 342.879C380.888 356.142 369.985 366.861 356.719 366.861C343.453 366.861 332.913 356.142 332.913 342.879C332.913 329.253 343.453 318.716 356.901 318.716Z" fill="black"/>
<path d="M531.084 367.044C517.818 367.226 506.914 356.688 506.733 343.244C506.551 330.163 517.273 319.262 530.357 318.899C543.623 318.717 554.708 329.255 554.89 342.517C554.89 356.325 544.35 366.862 531.084 367.044Z" fill="black"/>
<path d="M443.485 358.749C448.937 358.749 454.57 358.749 460.022 358.749C461.476 358.749 462.748 358.931 464.02 359.657C466.927 361.111 467.836 365.108 465.655 367.47C459.113 374.919 452.753 382.549 446.211 390.18C444.394 392.36 443.121 392.36 441.304 390.18C434.944 382.731 428.584 375.282 422.041 368.015C420.406 366.198 419.861 364.199 420.951 362.019C422.041 359.839 423.859 358.931 426.221 358.931C432.036 358.749 437.67 358.749 443.485 358.749Z" fill="black"/>
<path d="M312.735 321.013C309.802 317.716 311.465 312.515 315.564 310.88C322.927 307.945 327.577 303.874 331.349 296.889C333.428 293.037 338.755 291.974 341.665 295.245C343.112 296.871 343.535 299.186 342.665 301.182C337.251 313.612 331.345 319.047 318.486 322.743C316.404 323.342 314.176 322.633 312.735 321.013Z" fill="black"/>
<path d="M547.246 295.266C550.178 291.968 555.538 293.013 557.639 296.893C561.414 303.864 565.999 308.007 573.376 310.938C577.445 312.555 579.122 317.721 576.213 320.992C574.766 322.619 572.516 323.309 570.432 322.679C557.455 318.751 551.369 313.519 546.199 301.179C545.361 299.18 545.805 296.885 547.246 295.266Z" fill="black"/>
<defs>
<filter id="filter0_d_909_90" x="271.32" y="145.583" width="345.125" height="327.061" filterUnits="userSpaceOnUse" color-interpolation-filters="sRGB">
<feFlood flood-opacity="0" result="BackgroundImageFix"/>
<feColorMatrix in="SourceAlpha" type="matrix" values="0 0 0 0 0 0 0 0 0 0 0 0 0 0 0 0 0 0 127 0" result="hardAlpha"/>
<feOffset dy="4"/>
<feGaussianBlur stdDeviation="2"/>
<feComposite in2="hardAlpha" operator="out"/>
<feColorMatrix type="matrix" values="0 0 0 0 0 0 0 0 0 0 0 0 0 0 0 0 0 0 0.25 0"/>
<feBlend mode="normal" in2="BackgroundImageFix" result="effect1_dropShadow_909_90"/>
<feBlend mode="normal" in="SourceGraphic" in2="effect1_dropShadow_909_90" result="shape"/>
</filter>
<linearGradient id="paint0_linear_909_90" x1="2.18849" y1="307.393" x2="890.216" y2="307.394" gradientUnits="userSpaceOnUse">
<stop stop-color="#F11712"/>
<stop offset="0.515625" stop-color="#5614B0"/>
<stop offset="1" stop-color="#F11712"/>
</linearGradient>
<linearGradient id="paint1_linear_909_90" x1="11.9131" y1="341.5" x2="879.414" y2="354.452" gradientUnits="userSpaceOnUse">
<stop stop-color="#03001E"/>
<stop offset="0.192708" stop-color="#7303C0"/>
<stop offset="0.390625" stop-color="#EC38BC"/>
<stop offset="0.536458" stop-color="#FDEFF9"/>
<stop offset="0.651042" stop-color="#FCF3BB"/>
<stop offset="0.994792" stop-color="#F7FF00"/>
</linearGradient>
<linearGradient id="paint2_linear_909_90" x1="11.9131" y1="341.5" x2="879.414" y2="354.452" gradientUnits="userSpaceOnUse">
<stop stop-color="#5614B0"/>
<stop offset="0.526042" stop-color="#F11712"/>
<stop offset="1" stop-color="#5614B0"/>
</linearGradient>
</defs>
</svg>
