<svg width="534" height="763" viewBox="0 0 534 763" fill="none" xmlns="http://www.w3.org/2000/svg">
    <g clip-path="url(#clip0_216_3)">
        <path d="M469.175 177.485L468.655 177.178L467.451 176.81C467.935 177.221 468.542 177.457 469.175 177.485Z"
              fill="#0D0C22"/>
        <path d="M476.757 231.999L476.175 232.163L476.757 231.999Z" fill="#0D0C22"/>
        <path d="M469.4 177.402C469.325 177.393 469.253 177.376 469.183 177.35C469.179 177.399 469.179 177.448 469.183 177.495C469.262 177.484 469.337 177.452 469.4 177.402Z"
              fill="#0D0C22"/>
        <path d="M469.18 177.495H469.267V177.44L469.18 177.495Z" fill="#0D0C22"/>
        <path d="M476.294 231.894L477.172 231.394L477.498 231.21L477.794 230.895C477.237 231.134 476.729 231.473 476.294 231.894Z"
              fill="#0D0C22"/>
        <path d="M470.693 178.676L469.836 177.86L469.253 177.542C469.566 178.095 470.083 178.501 470.693 178.676Z"
              fill="#0D0C22"/>
        <path d="M255.023 707.627C254.338 707.923 253.737 708.387 253.278 708.975L253.818 708.627C254.186 708.291 254.706 707.893 255.023 707.627Z"
              fill="#0D0C22"/>
        <path d="M380.261 682.844C380.261 682.068 379.883 682.212 379.976 684.966C379.976 684.742 380.068 684.518 380.107 684.304C380.159 683.814 380.2 683.334 380.261 682.844Z"
              fill="#0D0C22"/>
        <path d="M367.268 707.627C366.583 707.923 365.984 708.387 365.523 708.975L366.065 708.627C366.431 708.291 366.953 707.893 367.268 707.627Z"
              fill="#0D0C22"/>
        <path d="M166.828 713.518C166.307 713.065 165.671 712.767 164.991 712.66C165.542 712.926 166.092 713.191 166.46 713.394L166.828 713.518Z"
              fill="#0D0C22"/>
        <path d="M146.986 694.394C146.905 693.59 146.658 692.812 146.261 692.108C146.542 692.841 146.777 693.591 146.966 694.353L146.986 694.394Z"
              fill="#0D0C22"/>
        <path d="M280.297 352.469C253.051 364.203 222.13 377.505 182.057 377.505C165.294 377.471 148.612 375.158 132.465 370.627L160.18 656.858C161.161 668.821 166.579 679.976 175.358 688.109C184.137 696.239 195.635 700.751 207.569 700.75C207.569 700.75 246.867 702.802 259.979 702.802C274.092 702.802 316.41 700.75 316.41 700.75C328.341 700.75 339.838 696.236 348.615 688.104C357.391 679.973 362.807 668.82 363.788 656.858L393.474 340.562C380.208 336.005 366.82 332.978 351.728 332.978C325.624 332.967 304.594 342.01 280.297 352.469Z"
              fill="white"/>
        <path d="M46.6653 230.35L47.1347 230.789L47.441 230.972C47.2051 230.739 46.9451 230.53 46.6653 230.35Z"
              fill="#0D0C22"/>
        <path d="M521.636 203.933L517.461 182.757C513.717 163.758 505.216 145.804 485.827 138.937C479.613 136.741 472.563 135.796 467.796 131.249C463.031 126.702 461.623 119.64 460.52 113.091C458.48 101.071 456.561 89.0409 454.469 77.0415C452.663 66.7254 451.235 55.1367 446.531 45.6726C440.408 32.965 427.703 25.5333 415.071 20.6166C408.597 18.1858 401.991 16.1295 395.284 14.4577C363.721 6.08175 330.537 3.00234 298.067 1.24709C259.092 -0.916178 220.014 -0.264416 181.133 3.19737C152.194 5.84566 121.713 9.04825 94.2121 19.1179C84.1608 22.8029 73.8034 27.2269 66.1602 35.0383C56.7824 44.6358 53.721 59.4786 60.5681 71.4472C65.4357 79.9464 73.6809 85.9512 82.4261 89.9235C93.8171 95.042 105.713 98.9368 117.917 101.543C151.898 109.098 187.092 112.065 221.808 113.327C260.285 114.889 298.825 113.623 337.119 109.539C346.589 108.492 356.041 107.237 365.477 105.772C376.589 104.058 383.722 89.4411 380.446 79.2586C376.528 67.0846 365.997 62.3629 354.088 64.2003C352.333 64.4775 350.588 64.7341 348.833 64.9907L347.568 65.1755C343.534 65.6886 339.499 66.1677 335.465 66.6125C327.131 67.5159 318.778 68.2549 310.404 68.8296C291.648 70.1435 272.84 70.7492 254.044 70.78C235.575 70.78 217.094 70.2564 198.665 69.035C190.257 68.4806 181.868 67.7758 173.501 66.9204C169.695 66.5202 165.899 66.0993 162.103 65.6272L158.49 65.1652L157.704 65.0523L153.96 64.5083C146.306 63.3484 138.652 62.0139 131.081 60.4024C130.317 60.2318 129.633 59.8042 129.143 59.1903C128.654 58.5763 128.387 57.8125 128.387 57.0252C128.387 56.2381 128.654 55.4744 129.143 54.8603C129.633 54.2464 130.317 53.8188 131.081 53.6482H131.224C137.785 52.242 144.398 51.041 151.03 49.994C153.241 49.6451 155.46 49.3029 157.684 48.9675H157.745C161.898 48.6904 166.072 47.9411 170.204 47.4484C206.162 43.6862 242.332 42.4036 278.463 43.6094C296.005 44.1226 313.536 45.1594 330.996 46.9454C334.751 47.3354 338.486 47.7461 342.221 48.208C343.649 48.3824 345.088 48.5877 346.526 48.7623L349.425 49.1831C357.875 50.4491 366.28 51.9853 374.641 53.792C387.028 56.5018 402.937 57.3846 408.447 71.0365C410.202 75.3682 410.998 80.1824 411.967 84.7296L413.203 90.5292C413.235 90.6333 413.26 90.7396 413.275 90.8474C416.192 104.534 419.115 118.22 422.04 131.906C422.254 132.917 422.26 133.962 422.055 134.975C421.849 135.988 421.44 136.948 420.85 137.794C420.259 138.641 419.503 139.356 418.627 139.895C417.75 140.435 416.772 140.786 415.754 140.929H415.672L413.887 141.175L412.121 141.411C406.53 142.143 400.93 142.828 395.325 143.464C384.283 144.73 373.225 145.825 362.15 146.749C340.143 148.59 318.09 149.797 295.995 150.372C284.736 150.673 273.48 150.814 262.228 150.793C217.44 150.757 172.693 148.139 128.203 142.951C123.387 142.376 118.57 141.76 113.754 141.134C117.489 141.616 111.039 140.764 109.733 140.58C106.672 140.149 103.61 139.7 100.549 139.235C90.2733 137.685 80.0586 135.776 69.8031 134.103C57.4048 132.05 45.5473 133.076 34.3325 139.235C25.127 144.302 17.6765 152.073 12.9747 161.509C8.13779 171.568 6.69897 182.522 4.53563 193.33C2.37229 204.139 -0.995185 215.769 0.28037 226.864C3.02537 250.812 19.6687 270.274 43.6084 274.627C66.1296 278.732 88.7732 282.058 111.478 284.89C200.668 295.879 290.774 297.193 380.243 288.812C387.528 288.127 394.804 287.382 402.07 286.574C404.339 286.323 406.635 286.586 408.791 287.344C410.947 288.101 412.906 289.334 414.526 290.952C416.146 292.571 417.385 294.532 418.154 296.694C418.923 298.856 419.201 301.165 418.969 303.45L416.703 325.601C412.138 370.362 407.573 415.119 403.008 459.872C398.247 506.872 393.454 553.866 388.63 600.858C387.271 614.093 385.91 627.323 384.549 640.551C383.243 653.577 383.06 667.013 380.6 679.885C376.722 700.127 363.099 712.558 343.22 717.106C325.009 721.275 306.405 723.463 287.728 723.634C267.024 723.747 246.33 722.823 225.624 722.936C203.523 723.058 176.45 721.006 159.388 704.46C144.398 689.924 142.326 667.167 140.285 647.491C137.564 621.439 134.867 595.39 132.193 569.346L117.193 424.521L107.488 330.815C107.325 329.265 107.162 327.736 107.009 326.175C105.845 314.997 97.9777 304.055 85.5793 304.62C74.9666 305.092 62.905 314.165 64.1499 326.175L71.3441 395.646L86.2221 539.352C90.4604 580.171 94.6884 620.997 98.9063 661.831C99.7227 669.652 100.488 677.494 101.345 685.316C106.008 728.058 138.459 751.091 178.644 757.58C202.114 761.376 226.155 762.158 249.973 762.547C280.504 763.04 311.342 764.221 341.374 758.657C385.876 750.446 419.265 720.554 424.03 674.188C425.39 660.804 426.751 647.415 428.111 634.022C432.636 589.735 437.152 545.443 441.662 501.148L456.419 356.416L463.184 290.085C463.521 286.796 464.902 283.703 467.122 281.265C469.342 278.826 472.283 277.172 475.512 276.546C488.236 274.051 500.399 269.791 509.451 260.05C523.86 244.54 526.727 224.319 521.636 203.933ZM42.9553 218.242C43.1492 218.149 42.792 219.823 42.639 220.603C42.6083 219.422 42.6696 218.375 42.9553 218.242ZM44.19 227.85C44.2921 227.778 44.5982 228.189 44.9146 228.682C44.4349 228.23 44.1288 227.891 44.1798 227.85H44.19ZM45.4043 229.462C45.8431 230.211 46.0779 230.682 45.4043 229.462V229.462ZM47.8432 231.453H47.9044C47.9044 231.525 48.0167 231.596 48.0576 231.668C47.9898 231.589 47.9147 231.517 47.8331 231.453H47.8432ZM474.92 228.476C470.347 232.849 463.46 234.882 456.654 235.898C380.324 247.291 302.883 253.06 225.717 250.514C170.491 248.616 115.845 242.446 61.1702 234.676C55.8129 233.916 50.0065 232.932 46.3228 228.958C39.3837 221.465 42.792 206.376 44.5982 197.322C46.2513 189.029 49.4147 177.974 59.2212 176.793C74.5278 174.986 92.304 181.484 107.447 183.794C125.679 186.593 143.979 188.833 162.347 190.518C240.738 197.702 320.444 196.584 398.488 186.073C412.713 184.15 426.887 181.916 441.009 179.371C453.592 177.101 467.541 172.841 475.144 185.949C480.357 194.879 481.052 206.828 480.246 216.918C479.997 221.314 478.089 225.45 474.909 228.476H474.92Z"
              fill="#0D0C22"/>
    </g>
    <defs>
        <clipPath id="clip0_216_3">
            <rect width="534" height="763" fill="white"/>
        </clipPath>
    </defs>
</svg>
