<svg width="382" height="382" viewBox="0 0 382 382" fill="none" xmlns="http://www.w3.org/2000/svg">
<path d="M9.17341 73.5599C10.5036 39.1007 43.3319 9.20559 79.4591 9.2563C152.139 9.02809 224.846 9.2563 297.526 9.12952C336.446 6.69531 373.238 38.9232 372.999 76.2477C372.972 128.608 372.972 180.969 372.999 233.33C372.414 267.333 340.995 297.304 305.586 299.053C282.335 299.637 259.057 299.18 235.78 299.256C207.953 322.508 180.604 346.267 152.698 369.443C144.717 377.303 128.648 371.218 128.861 360.162C128.648 339.902 128.861 319.617 128.835 299.358C107.685 298.47 86.2695 301.133 65.3594 297.507C33.7282 290.838 8.32211 262.033 9.0138 230.82C9.22662 178.408 8.93398 125.971 9.17341 73.5599ZM33.7016 78.7579C33.3823 126.124 33.7548 173.489 33.5153 220.88C33.542 229.298 33.8346 237.945 36.9206 245.932C43.1989 262.566 60.624 274.864 79.2463 275.269C103.934 275.675 128.622 275.193 153.31 275.472C153.336 295.808 153.256 316.144 153.336 336.479C177.758 316.397 201.674 295.783 225.91 275.498C250.651 275.244 275.418 275.548 300.159 275.371C325.486 276.284 348.125 255.01 348.231 230.946C348.87 182.744 348.231 134.516 348.551 86.3141C348.63 76.0955 347.752 65.4205 342.246 56.419C334.265 42.0166 317.425 32.4827 300.292 32.9898C226.575 33.1673 152.831 33.0152 79.0866 33.0659C54.186 33.3194 33.3291 55.3287 33.7016 78.7579Z" fill="black" stroke="black" stroke-width="18"/>
</svg>
