<svg width="360" height="360" viewBox="0 0 360 360" fill="none" xmlns="http://www.w3.org/2000/svg">
<path d="M4.16769 66.4315C5.454 33.1083 37.2001 4.19881 72.1362 4.24785C142.42 4.02717 212.73 4.24785 283.014 4.12525C320.651 1.77129 356.23 32.9367 355.999 69.0307C355.973 119.665 355.973 170.3 355.999 220.934C355.433 253.816 325.05 282.799 290.809 284.491C268.324 285.055 245.814 284.614 223.303 284.687C196.394 307.173 169.947 330.148 142.96 352.56C135.243 360.161 119.704 354.276 119.91 343.585C119.704 323.994 119.91 304.377 119.884 284.786C99.4317 283.927 78.7222 286.502 58.5014 282.996C27.913 276.547 3.34446 248.692 4.01334 218.507C4.21915 167.823 3.93616 117.115 4.16769 66.4315ZM27.8872 71.4582C27.5785 117.262 27.9387 163.066 27.7071 208.895C27.7329 217.036 28.0159 225.397 31.0001 233.121C37.0715 249.206 53.9221 261.099 71.9305 261.491C95.8043 261.884 119.678 261.418 143.552 261.687C143.578 281.353 143.501 301.018 143.578 320.683C167.194 301.263 190.322 281.328 213.759 261.712C237.684 261.467 261.635 261.761 285.561 261.589C310.052 262.472 331.945 241.899 332.048 218.63C332.665 172.016 332.048 125.379 332.357 78.7653C332.434 68.8836 331.585 58.5605 326.259 49.8558C318.542 35.9282 302.257 26.7085 285.689 27.1989C214.402 27.3706 143.089 27.2234 71.7761 27.2725C47.6964 27.5177 27.5271 48.8014 27.8872 71.4582Z" fill="black" stroke="black" stroke-width="8"/>
</svg>
