<svg width="50" height="50" viewBox="0 0 50 50" fill="none" xmlns="http://www.w3.org/2000/svg">
<g clip-path="url(#clip0_923_71)">
<path d="M11.961 31.645L28.7812 14.7039C29.751 13.7271 31.0663 13.1784 32.4378 13.1784C33.8093 13.1784 35.1246 13.7271 36.0943 14.7039V14.7039C37.0641 15.6806 37.6089 17.0054 37.6089 18.3867C37.6089 19.7681 37.0641 21.0928 36.0943 22.0696L19.261 39.0239C17.7093 40.5867 15.6048 41.4647 13.4105 41.4647C11.2161 41.4647 9.11162 40.5867 7.55997 39.0239V39.0239C6.00832 37.4611 5.13661 35.3415 5.13661 33.1314C5.13661 30.9212 6.00832 28.8016 7.55997 27.2388L25.8677 8.79953C28.0701 6.78636 30.9379 5.67113 33.9121 5.67113C36.8864 5.67113 39.7541 6.78636 41.9566 8.79953V8.79953C43.9549 11.0181 45.0619 13.9063 45.0619 16.9018C45.0619 19.8973 43.9549 22.7855 41.9566 25.0041L23.662 43.4301" stroke="black" stroke-width="3.125" stroke-miterlimit="10"/>
</g>
<defs>
<clipPath id="clip0_923_71">
<rect width="50" height="50" fill="white"/>
</clipPath>
</defs>
</svg>
