<svg width="35" height="35" viewBox="0 0 35 35" fill="none" xmlns="http://www.w3.org/2000/svg">
<path d="M17.5001 3.27644C14.0373 3.27658 10.6875 4.50889 8.05007 6.75288C5.41268 8.99687 3.65981 12.1061 3.10511 15.5242C2.5504 18.9424 3.23006 22.4463 5.02247 25.4092C6.81489 28.3721 9.60308 30.6005 12.8882 31.6957C13.6173 31.8233 13.8908 31.3858 13.8908 31.003C13.8908 30.6566 13.8725 29.5082 13.8725 28.2868C10.2085 28.9613 9.26054 27.3937 8.96887 26.5734C8.64523 25.7755 8.13219 25.0685 7.47408 24.5134C6.96366 24.24 6.2345 23.5655 7.45584 23.5473C7.92219 23.5979 8.36948 23.7602 8.75979 24.0204C9.1501 24.2806 9.47194 24.631 9.69804 25.042C9.8975 25.4004 10.1657 25.7158 10.4873 25.9703C10.8088 26.2248 11.1775 26.4133 11.572 26.525C11.9666 26.6368 12.3793 26.6696 12.7866 26.6216C13.1939 26.5736 13.5877 26.4456 13.9454 26.2452C14.0085 25.5038 14.339 24.8106 14.8751 24.2947C11.6303 23.9301 8.2397 22.6723 8.2397 17.0942C8.21921 15.6448 8.75404 14.2425 9.7345 13.1749C9.28866 11.9152 9.34082 10.5328 9.88033 9.31033C9.88033 9.31033 11.1016 8.92751 13.8907 10.8051C16.277 10.1488 18.7962 10.1488 21.1824 10.8051C23.9714 8.90929 25.1928 9.31033 25.1928 9.31033C25.7324 10.5328 25.7846 11.9152 25.3387 13.1749C26.3221 14.2407 26.8574 15.6442 26.8335 17.0942C26.8335 22.6905 23.4246 23.9301 20.1798 24.2947C20.5278 24.6475 20.7959 25.071 20.9657 25.5365C21.1356 26.002 21.2033 26.4986 21.1642 26.9926C21.1642 28.9432 21.1459 30.5108 21.1459 31.003C21.1459 31.3859 21.4194 31.8416 22.1485 31.6957C25.4278 30.5916 28.208 28.358 29.9928 25.3936C31.7776 22.4292 32.4508 18.927 31.8922 15.5122C31.3337 12.0974 29.5798 8.99219 26.9435 6.75093C24.3073 4.50968 20.9603 3.27824 17.5001 3.27644Z" fill="black" fill-opacity="0.65"/>
</svg>
