<svg width="573" height="559" viewBox="0 0 573 559" fill="none" xmlns="http://www.w3.org/2000/svg">
<path d="M286.499 0C218.469 0.00282171 152.66 24.2184 100.847 68.3137C49.034 112.409 14.5979 173.507 3.70042 240.675C-7.19704 307.842 6.15527 376.697 41.3682 434.919C76.5811 493.141 131.357 536.93 195.894 558.451C210.219 560.959 215.591 552.363 215.591 544.839C215.591 538.034 215.233 515.466 215.233 491.466C143.25 504.72 124.627 473.915 118.897 457.795C112.539 442.118 102.46 428.225 89.5314 417.316C79.504 411.943 65.1791 398.689 89.173 398.332C98.3348 399.326 107.122 402.515 114.79 407.628C122.458 412.741 128.781 419.628 133.222 427.704C137.141 434.745 142.41 440.944 148.727 445.944C155.045 450.945 162.287 454.649 170.038 456.846C177.79 459.042 185.898 459.687 193.899 458.743C201.9 457.799 209.636 455.286 216.664 451.346C217.905 436.778 224.396 423.156 234.929 413.019C171.183 405.854 104.573 381.137 104.573 271.525C104.17 243.044 114.677 215.489 133.939 194.51C125.18 169.756 126.205 142.591 136.804 118.569C136.804 118.569 160.797 111.046 215.59 147.942C262.47 135.046 311.96 135.046 358.839 147.942C413.632 110.688 437.626 118.569 437.626 118.569C448.227 142.591 449.252 169.757 440.491 194.51C459.811 215.453 470.327 243.032 469.857 271.525C469.857 381.495 402.888 405.854 339.143 413.019C345.98 419.95 351.246 428.273 354.583 437.42C357.92 446.568 359.249 456.327 358.481 466.034C358.481 504.363 358.123 535.168 358.123 544.84C358.123 552.363 363.495 561.318 377.82 558.453C442.244 536.755 496.862 492.864 531.925 434.612C566.988 376.361 580.213 307.541 569.24 240.438C558.267 173.336 523.81 112.317 472.02 68.2754C420.229 24.2337 354.476 0.0353886 286.499 0V0Z" fill="black" fill-opacity="0.65"/>
</svg>
