<svg width="626" height="536" viewBox="0 0 626 536" fill="none" xmlns="http://www.w3.org/2000/svg">
<path d="M50.6992 394.127C48.6071 386.606 48.084 379.085 46.7765 371.564C45.9919 367.266 45.7304 362.699 45.4689 358.402C45.4689 355.984 44.6842 355.178 42.5921 354.372C31.3469 350.343 20.3632 346.314 9.37955 342.285C8.59501 342.016 8.07201 341.748 7.28746 341.479C1.79562 339.33 -0.819568 334.226 0.226496 327.78C1.01104 322.676 5.71833 318.11 10.6871 317.573C12.7793 317.304 14.6099 317.841 16.4405 318.647C24.809 321.602 33.1776 324.825 41.5461 327.78C42.5922 328.048 43.3766 328.586 44.6842 328.586C45.4688 327.78 45.2073 326.705 45.2073 325.899C45.2073 324.825 45.2073 323.751 45.2073 322.676C45.2073 219.26 45.2073 115.845 45.2073 12.4289C45.2073 11.6231 45.2073 10.8173 45.2073 10.0114C44.9458 2.49028 53.0528 -2.61339 59.8523 1.41579C61.4214 2.22163 62.7289 3.56472 64.0364 4.63917C95.4184 30.1573 127.062 55.6755 158.444 81.1937C160.536 82.8054 162.366 83.6111 164.982 82.8053C174.658 80.925 184.334 79.0447 194.271 77.4331C202.64 76.09 211.008 75.2842 219.115 73.9411C233.499 71.7922 247.882 70.7178 262.265 69.9119C285.279 68.3003 308.554 67.763 331.829 68.5689C336.013 68.8375 340.197 68.8375 344.382 68.8375C353.796 68.8375 363.211 69.9119 372.625 70.7177C379.425 71.255 386.224 71.7922 393.285 72.5981C403.223 73.6725 413.16 75.2842 423.098 76.3586C435.128 77.9703 447.157 80.6564 459.187 82.8053C461.802 83.3425 463.371 82.5368 465.202 81.1937C495.538 56.4814 526.135 31.769 556.471 7.3253C558.302 5.71362 560.132 4.37053 561.963 2.75886C565.363 0.0727317 569.285 -1.00173 573.47 1.14716C577.392 3.29606 578.7 6.78807 578.7 11.3545C578.7 58.8989 578.7 106.712 578.7 154.256C578.7 210.933 578.7 267.611 578.7 324.288C578.7 325.9 578.438 327.511 578.961 329.391C580.269 329.929 581.577 329.123 582.623 328.586C591.776 325.362 600.929 321.87 610.082 318.647C616.358 316.498 621.85 318.916 624.727 324.825C627.865 331.272 624.988 339.061 618.45 341.479C606.682 345.777 594.652 350.075 582.884 354.372C581.577 354.91 580.007 355.178 578.7 356.521C577.915 368.878 576.085 381.502 573.731 393.858C575.3 394.664 577.131 394.664 578.7 394.664C587.068 394.664 595.175 394.933 603.544 394.933C605.636 394.933 607.466 394.933 609.559 394.933C615.835 395.201 618.712 396.813 620.542 402.185C622.373 407.558 621.065 414.273 617.404 417.765C615.835 419.377 613.743 419.645 611.651 419.645C598.575 419.377 585.499 419.108 572.423 418.839C570.331 418.839 568.501 418.839 566.932 418.839C565.886 419.377 565.886 420.182 565.624 420.72C556.994 443.014 544.441 462.892 527.966 479.814C515.151 493.245 500.506 504.258 484.292 513.122C466.771 522.524 448.465 529.239 429.113 533.268C420.221 535.149 411.33 535.954 402.177 535.954C343.074 535.686 283.71 535.686 224.607 535.954C211.793 535.954 199.24 534.343 186.949 531.388C168.904 527.09 151.644 520.106 135.43 510.705C119.216 501.303 104.833 489.484 92.2801 475.248C82.8656 464.504 74.7586 452.953 67.9592 440.328C64.821 434.419 61.9444 428.241 59.3292 421.794C59.0677 420.988 58.8061 420.182 58.2831 419.645C56.9755 418.839 55.4065 419.108 54.0989 419.108C41.5461 419.377 29.2549 419.645 16.7021 419.645C13.8255 419.645 10.9487 419.914 8.59504 417.228C5.97988 414.273 4.93391 410.781 4.93391 407.02C4.93391 405.677 5.1953 404.334 5.45681 403.26C6.76439 397.888 10.1641 394.933 15.9175 394.933C25.5935 394.664 35.5312 394.664 45.2073 394.664C46.7764 394.664 48.6071 394.933 50.6992 394.127ZM84.6963 419.377C86.7884 424.749 89.4035 429.584 92.2801 434.419C103.264 453.49 117.909 469.07 135.43 481.695C152.429 494.051 171.258 502.378 191.656 507.482C202.117 510.168 212.577 511.511 223.561 511.511C284.233 511.242 344.643 511.511 405.315 511.511C412.376 511.511 419.175 510.436 425.975 509.093C443.496 505.333 459.972 499.155 475.401 490.022C484.293 484.918 492.661 478.74 500.507 472.025C510.444 463.429 519.074 453.49 526.397 442.477C530.843 435.762 535.027 428.778 538.165 421.257C538.426 420.451 539.211 419.914 538.426 418.839C537.119 418.302 535.811 418.302 534.765 418.302C529.535 418.302 524.304 418.034 519.074 418.302C515.413 418.302 512.798 416.422 511.229 413.467C509.398 410.244 509.137 407.02 509.66 403.26C510.706 396.813 514.367 393.321 520.905 393.321C529.012 393.321 537.119 393.59 545.487 393.858C548.364 393.858 548.364 393.858 549.148 391.172C551.241 383.651 552.287 375.861 553.333 367.803C553.333 366.997 553.594 366.191 553.071 365.386C551.764 365.386 550.979 365.923 549.671 366.191C539.472 369.952 529.012 373.713 518.813 377.473C508.875 380.965 502.337 371.564 503.383 364.042C503.906 359.207 506.521 355.984 511.229 354.372C524.304 349.806 537.38 344.971 550.456 340.136C551.764 339.599 553.333 339.33 554.64 338.256C554.64 239.406 554.64 140.288 554.64 41.1704C552.81 41.439 552.025 42.5135 550.718 43.3193C524.304 64.2711 498.153 85.2229 471.74 106.443C468.863 108.592 465.986 109.398 462.587 108.592C450.296 106.175 438.004 103.757 425.975 101.608C417.606 100.265 409.499 99.1907 401.131 98.1162C393.808 97.3104 386.486 95.9674 379.163 95.6987C378.379 95.6987 377.333 95.4301 376.287 96.2359C376.025 97.579 376.025 98.922 376.025 100.265C376.025 120.142 376.025 140.02 376.025 159.897C376.025 161.509 376.025 163.12 375.763 165.001C374.717 170.373 370.533 173.865 365.041 174.133C359.288 174.402 354.581 171.179 353.012 165.807C352.489 164.195 352.488 162.583 352.488 160.703C352.488 139.751 352.488 118.799 352.488 97.8476C352.488 96.5045 352.75 94.8929 351.704 93.5498C342.551 93.0126 333.659 92.4754 323.983 93.0126C323.983 94.8929 323.983 96.2359 323.983 97.579C323.983 111.01 323.983 124.44 323.983 137.871C323.983 150.496 323.983 163.12 323.983 176.014C323.983 179.506 323.46 182.729 321.107 185.415C317.968 188.907 314.046 189.713 309.6 189.444C304.893 188.907 300.97 185.415 299.924 180.849C299.401 178.969 299.401 177.088 299.401 175.208C299.401 149.421 299.401 123.634 299.401 98.1162C299.401 96.5046 299.662 95.1615 299.139 93.5498C294.171 92.744 274.295 93.2812 271.419 94.6243C270.896 95.9674 271.157 97.579 271.157 98.922C271.157 119.605 271.157 140.288 271.157 160.972C271.157 162.852 271.157 164.463 270.634 166.344C269.065 171.716 264.358 174.939 258.604 174.402C253.374 174.134 249.19 170.373 248.144 165.001C247.882 163.389 247.882 161.777 247.882 159.897C247.882 140.02 247.882 120.142 247.882 100.265C247.882 98.922 248.144 97.3104 247.359 96.2359C246.574 95.6987 245.79 95.9674 245.005 95.9674C239.775 96.236 234.806 96.7732 229.838 97.3104C219.638 98.6535 209.439 99.7279 199.502 101.34C186.687 103.489 173.873 105.637 161.059 108.592C157.921 109.129 155.306 108.592 152.952 106.712C145.368 100.534 137.784 94.3556 130.2 88.4462C111.371 73.4039 92.5417 58.3616 73.7126 43.3193C72.6665 42.5135 71.6204 41.1704 70.0513 41.439C70.0513 140.288 70.0513 239.138 70.0513 337.987C74.2355 339.599 78.4198 340.942 82.3426 342.553C93.3262 346.583 104.571 350.612 115.555 354.641C119.216 355.984 121.831 358.402 122.878 362.162C124.185 367.266 122.877 371.564 119.216 375.324C115.555 378.816 111.371 379.085 106.925 377.473C96.203 373.444 85.4807 369.683 74.7585 365.923C73.7125 365.386 72.4049 364.848 70.8358 365.117C71.8819 375.056 73.1894 384.726 76.0661 393.858C77.6352 394.396 78.9428 394.396 79.9889 394.396C88.8804 394.127 97.772 394.127 106.664 393.858C110.586 393.858 113.201 395.739 115.032 399.231C116.863 402.723 117.124 406.215 116.34 409.975C115.294 415.616 111.894 418.571 106.14 418.839C100.387 418.839 94.3724 418.839 88.619 419.108C87.3114 418.571 86.0038 418.302 84.6963 419.377Z" fill="black"/>
<path d="M186.949 296.352C206.301 296.352 221.469 312.2 221.469 332.078C221.469 351.686 205.778 367.535 186.688 367.535C167.597 367.535 152.429 351.686 152.429 332.078C152.429 311.932 167.597 296.352 186.949 296.352Z" fill="black"/>
<path d="M436.174 367.803C417.083 368.072 401.392 352.492 401.131 332.615C400.869 313.275 416.299 297.158 435.128 296.621C454.219 296.352 470.172 311.932 470.433 331.54C470.433 351.955 455.265 367.534 436.174 367.803Z" fill="black"/>
<path d="M312.476 354.909C320.322 354.909 328.429 354.909 336.274 354.909C338.366 354.909 340.197 355.178 342.028 356.252C346.212 358.401 347.519 364.311 344.381 367.803C334.967 378.816 325.814 390.098 316.399 401.379C313.784 404.603 311.953 404.603 309.338 401.379C300.185 390.366 291.032 379.353 281.618 368.608C279.264 365.922 278.479 362.968 280.049 359.744C281.618 356.521 284.233 355.178 287.633 355.178C296.001 354.909 304.108 354.909 312.476 354.909Z" fill="black"/>
</svg>
