<svg width="964" height="964" viewBox="0 0 964 964" fill="none" xmlns="http://www.w3.org/2000/svg">
<rect width="964" height="964" rx="482" fill="white"/>
<path d="M729.063 452.906L726.741 450.866L725.824 451.912L728.146 453.952L729.063 452.906Z" fill="#4483FF"/>
<path d="M724.615 450.541L693.597 481.598L696.874 484.879L727.892 453.822L724.615 450.541Z" fill="#4287FF"/>
<path d="M850.431 265.181C803.166 184.916 600.205 217.084 397.089 336.786C193.819 456.797 67.4704 618.875 114.735 699.14C162 779.405 364.961 747.237 568.077 627.535C771.192 507.678 897.541 345.446 850.431 265.181ZM546.298 586.243C365.116 693.108 190.421 732.39 156.131 674.086C121.84 615.781 240.93 481.851 421.957 374.985C603.139 268.119 777.68 228.837 812.124 287.142C846.415 345.446 727.326 479.377 546.298 586.243Z" fill="url(#paint0_linear_37_167)"/>
<path d="M759.145 481.387L727.326 511.854C796.061 577.427 829.888 637.897 809.962 672.694C776.135 731.308 601.131 693.417 419.177 588.253C361.872 555.157 310.746 519.277 268.578 483.862L252.36 498.244L236.605 513.246C281.707 553.456 336.386 593.047 398.17 628.772C602.367 746.773 805.637 777.085 852.13 696.511C881.014 645.939 842.244 564.281 759.145 481.387ZM566.532 336.476C362.336 218.475 159.065 188.163 112.573 268.738C83.5342 319 122.304 400.658 205.249 483.552L233.67 456.488L235.678 454.477C165.398 387.976 130.336 326.424 150.57 291.317C184.397 232.704 359.401 270.594 541.355 375.758C599.587 409.473 651.486 445.971 694.117 482.006L710.335 468.087L727.635 451.539C682.687 411.638 628.162 372.201 566.532 336.476Z" fill="url(#paint1_linear_37_167)"/>
<path d="M632.796 441.177C632.95 409.937 632.487 378.852 631.56 347.612C631.406 341.116 623.374 337.559 618.585 342.199C604.375 356.272 587.384 372.82 567.922 379.47C566.841 377.305 564.679 375.604 561.281 375.913C551.55 376.377 541.664 376.222 531.933 375.759C530.852 375.295 529.771 374.985 528.38 375.14C527.454 375.295 526.681 375.295 525.755 375.449C521.275 375.14 516.95 374.831 512.471 374.521C510.618 374.212 508.61 374.057 506.756 374.057C485.904 372.356 465.206 370.191 444.354 370.346C425.51 370.5 407.283 374.985 388.594 375.759C383.497 375.913 379.635 375.604 375.774 372.201C372.221 369.108 369.132 365.551 365.734 362.304C359.864 356.581 354.149 350.705 348.28 344.982C348.434 344.054 348.434 343.127 348.589 342.199C349.361 333.847 338.394 332.765 334.687 338.642C330.826 340.497 328.2 344.982 331.289 349.003C331.752 349.622 332.216 350.086 332.525 350.705C327.582 401.276 324.029 451.848 328.972 502.729C331.134 524.845 333.451 547.579 342.256 568.148C351.06 588.408 366.66 602.945 387.204 610.987C410.218 620.112 435.55 619.957 459.954 620.421C486.367 620.885 513.552 623.205 539.965 621.194C563.906 619.338 583.214 608.203 598.351 589.799C598.969 589.026 599.587 588.253 600.205 587.48C602.522 586.861 604.375 585.314 605.147 582.376C605.302 581.912 605.302 581.448 605.456 580.984C617.659 565.209 626.926 548.816 630.015 528.093C634.031 499.636 632.641 469.943 632.796 441.177Z" fill="white"/>
<path d="M326.192 548.043C324.956 543.713 324.647 539.382 323.875 535.052C323.412 532.578 323.257 529.949 323.103 527.474C323.103 526.082 322.639 525.618 321.403 525.154C314.762 522.834 308.274 520.515 301.787 518.195C301.324 518.04 301.015 517.885 300.551 517.731C297.308 516.494 295.763 513.555 296.381 509.843C296.844 506.905 299.625 504.276 302.559 503.967C303.795 503.812 304.876 504.121 305.957 504.585C310.9 506.286 315.843 508.142 320.786 509.843C321.404 509.998 321.867 510.307 322.639 510.307C323.103 509.843 322.948 509.225 322.948 508.761C322.948 508.142 322.948 507.524 322.948 506.905C322.948 447.363 322.948 387.822 322.948 328.28C322.948 327.816 322.948 327.352 322.948 326.888C322.794 322.558 327.582 319.619 331.598 321.939C332.525 322.403 333.297 323.176 334.069 323.795C352.605 338.487 371.294 353.179 389.829 367.871C391.065 368.799 392.146 369.263 393.691 368.799C399.406 367.717 405.121 366.634 410.991 365.706C415.933 364.933 420.876 364.469 425.664 363.696C434.16 362.458 442.655 361.84 451.15 361.376C464.743 360.448 478.49 360.138 492.237 360.602C494.708 360.757 497.18 360.757 499.651 360.757C505.212 360.757 510.772 361.376 516.333 361.84C520.349 362.149 524.365 362.458 528.535 362.922C534.405 363.541 540.274 364.469 546.144 365.087C553.249 366.015 560.354 367.562 567.459 368.799C569.004 369.108 569.931 368.644 571.012 367.871C588.929 353.643 607.001 339.415 624.919 325.341C626 324.413 627.081 323.64 628.162 322.712C630.17 321.166 632.487 320.547 634.958 321.784C637.275 323.022 638.048 325.032 638.048 327.661C638.048 355.035 638.048 382.563 638.048 409.937C638.048 442.569 638.048 475.201 638.048 507.833C638.048 508.761 637.893 509.689 638.202 510.771C638.974 511.081 639.747 510.617 640.365 510.307C645.771 508.452 651.177 506.441 656.583 504.585C660.29 503.348 663.534 504.74 665.233 508.142C667.086 511.854 665.387 516.339 661.526 517.731C654.575 520.205 647.47 522.68 640.519 525.154C639.747 525.464 638.82 525.618 638.048 526.391C637.584 533.506 636.503 540.774 635.113 547.888C636.04 548.352 637.121 548.352 638.048 548.352C642.99 548.352 647.779 548.507 652.721 548.507C653.957 548.507 655.038 548.507 656.274 548.507C659.981 548.662 661.68 549.59 662.761 552.683C663.843 555.776 663.07 559.642 660.908 561.653C659.981 562.58 658.745 562.735 657.51 562.735C649.787 562.58 642.064 562.426 634.341 562.271C633.105 562.271 632.024 562.271 631.097 562.271C630.479 562.58 630.479 563.044 630.325 563.354C625.227 576.19 617.813 587.634 608.082 597.378C600.514 605.11 591.864 611.451 582.287 616.555C571.938 621.968 561.126 625.834 549.696 628.154C544.444 629.236 539.193 629.7 533.787 629.7C498.879 629.546 463.816 629.546 428.908 629.7C421.339 629.7 413.925 628.772 406.666 627.071C396.008 624.597 385.814 620.576 376.237 615.163C366.66 609.75 358.165 602.945 350.751 594.749C345.19 588.562 340.402 581.912 336.386 574.643C334.533 571.241 332.834 567.684 331.289 563.972C331.135 563.508 330.98 563.044 330.671 562.735C329.899 562.271 328.972 562.426 328.2 562.426C320.786 562.58 313.526 562.735 306.112 562.735C304.413 562.735 302.714 562.89 301.324 561.343C299.779 559.642 299.161 557.632 299.161 555.466C299.161 554.693 299.316 553.92 299.47 553.301C300.242 550.208 302.25 548.507 305.648 548.507C311.364 548.352 317.233 548.352 322.948 548.352C323.875 548.352 324.956 548.507 326.192 548.043ZM346.272 562.58C347.507 565.673 349.052 568.457 350.751 571.241C357.238 582.222 365.888 591.191 376.237 598.46C386.277 605.574 397.398 610.369 409.446 613.307C415.624 614.854 421.803 615.627 428.29 615.627C464.125 615.472 499.805 615.627 535.64 615.627C539.811 615.627 543.827 615.008 547.843 614.235C558.192 612.07 567.922 608.513 577.036 603.254C582.287 600.316 587.23 596.759 591.864 592.893C597.733 587.944 602.831 582.222 607.156 575.881C609.781 572.014 612.253 567.993 614.106 563.663C614.261 563.199 614.724 562.89 614.261 562.271C613.488 561.962 612.716 561.962 612.098 561.962C609.009 561.962 605.92 561.807 602.831 561.962C600.668 561.962 599.124 560.879 598.197 559.178C597.116 557.322 596.961 555.466 597.27 553.301C597.888 549.589 600.05 547.579 603.912 547.579C608.7 547.579 613.488 547.734 618.431 547.888C620.13 547.888 620.13 547.888 620.594 546.342C621.829 542.011 622.447 537.527 623.065 532.887C623.065 532.423 623.219 531.959 622.91 531.495C622.138 531.495 621.675 531.804 620.902 531.959C614.878 534.124 608.7 536.289 602.676 538.454C596.807 540.465 592.945 535.052 593.563 530.722C593.872 527.938 595.416 526.082 598.197 525.154C605.92 522.525 613.643 519.741 621.366 516.958C622.138 516.648 623.065 516.494 623.837 515.875C623.837 458.962 623.837 401.895 623.837 344.828C622.756 344.982 622.293 345.601 621.52 346.065C605.92 358.128 590.474 370.191 574.873 382.409C573.174 383.646 571.475 384.11 569.467 383.646C562.208 382.254 554.948 380.862 547.843 379.625C542.9 378.852 538.112 378.233 533.169 377.614C528.844 377.15 524.519 376.377 520.194 376.223C519.731 376.223 519.113 376.068 518.495 376.532C518.341 377.305 518.341 378.078 518.341 378.852C518.341 390.296 518.341 401.74 518.341 413.185C518.341 414.113 518.341 415.041 518.186 416.123C517.568 419.216 515.097 421.227 511.853 421.381C508.455 421.536 505.675 419.68 504.748 416.587C504.439 415.659 504.439 414.731 504.439 413.649C504.439 401.586 504.439 389.523 504.439 377.46C504.439 376.686 504.594 375.759 503.976 374.985C498.57 374.676 493.318 374.367 487.603 374.676C487.603 375.759 487.603 376.532 487.603 377.305C487.603 385.038 487.603 392.77 487.603 400.503C487.603 407.772 487.603 415.041 487.603 422.464C487.603 424.475 487.294 426.33 485.904 427.877C484.05 429.887 481.734 430.351 479.108 430.197C476.327 429.887 474.011 427.877 473.393 425.248C473.084 424.165 473.084 423.083 473.084 422C473.084 407.153 473.084 392.307 473.084 377.614C473.084 376.686 473.238 375.913 472.929 374.985C469.995 374.521 458.256 374.831 456.556 375.604C456.248 376.377 456.402 377.305 456.402 378.078C456.402 389.987 456.402 401.895 456.402 413.803C456.402 414.886 456.402 415.814 456.093 416.896C455.166 419.99 452.386 421.845 448.988 421.536C445.899 421.381 443.427 419.216 442.81 416.123C442.655 415.195 442.655 414.267 442.655 413.185C442.655 401.74 442.655 390.296 442.655 378.852C442.655 378.078 442.809 377.15 442.346 376.532C441.883 376.222 441.419 376.377 440.956 376.377C437.867 376.532 434.932 376.841 431.997 377.15C425.973 377.924 419.949 378.542 414.08 379.47C406.511 380.707 398.943 381.945 391.374 383.646C389.521 383.955 387.976 383.646 386.586 382.563C382.106 379.006 377.627 375.449 373.148 372.047C362.027 363.386 350.905 354.726 339.784 346.065C339.166 345.601 338.549 344.828 337.622 344.982C337.622 401.895 337.622 458.808 337.622 515.72C340.093 516.648 342.565 517.422 344.881 518.349C351.369 520.669 358.011 522.989 364.498 525.309C366.66 526.082 368.205 527.474 368.823 529.639C369.595 532.578 368.823 535.052 366.66 537.217C364.498 539.228 362.027 539.382 359.401 538.454C353.068 536.135 346.735 533.97 340.402 531.804C339.784 531.495 339.012 531.186 338.085 531.34C338.703 537.063 339.475 542.63 341.174 547.888C342.101 548.198 342.873 548.198 343.491 548.198C348.743 548.043 353.995 548.043 359.246 547.888C361.563 547.888 363.108 548.971 364.189 550.981C365.27 552.992 365.425 555.002 364.961 557.168C364.344 560.415 362.335 562.117 358.937 562.271C355.539 562.271 351.987 562.271 348.589 562.426C347.816 562.116 347.044 561.962 346.272 562.58Z" fill="black"/>
<path d="M406.666 491.749C418.096 491.749 427.055 500.873 427.055 512.318C427.055 523.607 417.787 532.732 406.511 532.732C395.236 532.732 386.277 523.607 386.277 512.318C386.277 500.719 395.236 491.749 406.666 491.749Z" fill="black"/>
<path d="M553.866 532.887C542.591 533.042 533.323 524.072 533.169 512.627C533.014 501.492 542.128 492.213 553.249 491.904C564.524 491.749 573.946 500.719 574.101 512.009C574.101 523.762 565.142 532.732 553.866 532.887Z" fill="black"/>
<path d="M480.807 525.463C485.441 525.463 490.229 525.463 494.863 525.463C496.098 525.463 497.18 525.618 498.261 526.237C500.732 527.474 501.505 530.876 499.651 532.887C494.091 539.228 488.684 545.723 483.124 552.218C481.579 554.074 480.498 554.074 478.953 552.218C473.547 545.878 468.141 539.537 462.58 533.351C461.19 531.804 460.727 530.103 461.654 528.247C462.58 526.391 464.125 525.618 466.133 525.618C471.076 525.463 475.864 525.463 480.807 525.463Z" fill="black"/>
<defs>
<linearGradient id="paint0_linear_37_167" x1="104.862" y1="482.24" x2="860.333" y2="482.24" gradientUnits="userSpaceOnUse">
<stop stop-color="#9600FF"/>
<stop offset="0.5138" stop-color="#00F0FF"/>
<stop offset="0.5725" stop-color="#0EDAFF"/>
<stop offset="0.6948" stop-color="#31A2FF"/>
<stop offset="0.8684" stop-color="#6948FF"/>
<stop offset="1" stop-color="#9600FF"/>
</linearGradient>
<linearGradient id="paint1_linear_37_167" x1="671.951" y1="811.455" x2="291.971" y2="154.132" gradientUnits="userSpaceOnUse">
<stop stop-color="#9600FF"/>
<stop offset="0.5138" stop-color="#00F0FF"/>
<stop offset="0.5725" stop-color="#0EDAFF"/>
<stop offset="0.6948" stop-color="#31A2FF"/>
<stop offset="0.8684" stop-color="#6948FF"/>
<stop offset="1" stop-color="#9600FF"/>
</linearGradient>
</defs>
</svg>
