<svg width="892" height="614" viewBox="0 0 892 614" fill="none" xmlns="http://www.w3.org/2000/svg">
<path d="M735.913 272.273L733.184 269.878L732.106 271.107L734.836 273.502L735.913 272.273Z" fill="#4483FF"/>
<path d="M730.686 269.497L694.225 305.96L698.076 309.812L734.537 273.349L730.686 269.497Z" fill="#4287FF"/>
<path d="M878.577 51.8715C823.018 -42.3655 584.445 -4.59802 345.691 135.94C106.754 276.842 -41.7637 467.132 13.7944 561.369C69.3525 655.605 307.926 617.838 546.68 477.3C785.435 336.58 933.953 146.108 878.577 51.8715ZM521.08 428.819C308.107 554.287 102.76 600.407 62.4531 531.953C22.1462 463.5 162.131 306.257 374.922 180.789C587.895 55.3214 793.06 9.2016 833.549 77.655C873.856 146.108 733.871 303.352 521.08 428.819Z" fill="url(#paint0_linear_39_1304)"/>
<path d="M771.273 305.712L733.871 341.482C814.667 418.47 854.429 489.465 831.007 530.319C791.245 599.136 585.535 554.65 371.654 431.18C304.294 392.323 244.197 350.198 194.631 308.617L175.567 325.504L157.047 343.116C210.064 390.326 274.337 436.809 346.962 478.752C586.987 617.293 825.924 652.882 880.574 558.282C914.526 498.907 868.954 403.036 771.273 305.712ZM544.865 135.577C304.839 -2.96393 65.9028 -38.5524 11.2525 56.0477C-22.8813 115.059 22.6909 210.93 120.19 308.254L153.598 276.479L155.958 274.118C73.3469 196.041 32.1322 123.775 55.9169 82.5575C95.6791 13.7409 301.389 58.2265 515.27 181.697C583.719 221.28 644.724 264.132 694.835 306.438L713.899 290.097L734.235 270.668C681.4 223.822 617.308 177.521 544.865 135.577Z" fill="url(#paint1_linear_39_1304)"/>
<path d="M622.755 258.503C622.937 221.825 622.392 185.328 621.303 148.65C621.121 141.024 611.68 136.848 606.051 142.295C589.348 158.819 569.376 178.247 546.499 186.055C545.228 183.513 542.686 181.515 538.692 181.879C527.253 182.423 515.633 182.242 504.195 181.697C502.924 181.152 501.653 180.789 500.019 180.971C498.929 181.152 498.022 181.152 496.932 181.334C491.667 180.971 486.583 180.608 481.318 180.244C479.139 179.881 476.779 179.7 474.6 179.7C450.089 177.702 425.76 175.16 401.249 175.342C379.098 175.523 357.674 180.789 335.705 181.697C329.713 181.879 325.174 181.515 320.635 177.521C316.459 173.889 312.828 169.713 308.833 165.9C301.934 159.182 295.216 152.282 288.317 145.564C288.498 144.474 288.498 143.385 288.68 142.295C289.588 132.49 276.697 131.219 272.339 138.119C267.8 140.298 264.714 145.564 268.345 150.285C268.89 151.011 269.434 151.556 269.797 152.282C263.987 211.657 259.812 271.031 265.622 330.769C268.163 356.734 270.887 383.426 281.236 407.575C291.585 431.361 309.923 448.429 334.071 457.871C361.124 468.584 390.9 468.402 419.587 468.947C450.634 469.492 482.589 472.215 513.636 469.855C541.778 467.676 564.474 454.603 582.267 432.995C582.993 432.088 583.719 431.18 584.446 430.272C587.169 429.546 589.348 427.73 590.255 424.28C590.437 423.735 590.437 423.19 590.618 422.646C604.962 404.125 615.856 384.878 619.487 360.547C624.208 327.138 622.574 292.276 622.755 258.503Z" fill="white"/>
<path d="M262.354 383.971C260.901 378.886 260.538 373.802 259.63 368.718C259.085 365.813 258.904 362.726 258.722 359.821C258.722 358.187 258.178 357.642 256.725 357.098C248.918 354.374 241.292 351.65 233.667 348.927C233.122 348.745 232.759 348.563 232.214 348.382C228.401 346.929 226.586 343.479 227.312 339.122C227.857 335.672 231.125 332.585 234.574 332.222C236.027 332.04 237.298 332.403 238.569 332.948C244.379 334.945 250.189 337.124 255.999 339.122C256.725 339.303 257.27 339.666 258.178 339.666C258.722 339.122 258.541 338.395 258.541 337.851C258.541 337.124 258.541 336.398 258.541 335.672C258.541 265.766 258.541 195.86 258.541 125.954C258.541 125.409 258.541 124.864 258.541 124.32C258.359 119.235 263.988 115.786 268.708 118.509C269.798 119.054 270.705 119.962 271.613 120.688C293.401 137.938 315.37 155.187 337.157 172.437C338.61 173.526 339.881 174.071 341.696 173.526C348.414 172.255 355.132 170.984 362.031 169.895C367.841 168.987 373.651 168.442 379.28 167.534C389.266 166.082 399.252 165.355 409.238 164.811C425.215 163.721 441.374 163.358 457.533 163.903C460.438 164.084 463.343 164.084 466.248 164.084C472.785 164.084 479.321 164.811 485.857 165.355C490.578 165.718 495.298 166.082 500.2 166.626C507.1 167.353 513.999 168.442 520.899 169.168C529.25 170.258 537.602 172.073 545.954 173.526C547.77 173.889 548.859 173.345 550.13 172.437C571.191 155.732 592.434 139.027 613.496 122.504C614.766 121.414 616.037 120.506 617.308 119.417C619.669 117.601 622.392 116.875 625.297 118.328C628.021 119.78 628.928 122.141 628.928 125.227C628.928 157.366 628.928 189.686 628.928 221.825C628.928 260.137 628.928 298.449 628.928 336.761C628.928 337.851 628.747 338.94 629.11 340.211C630.018 340.574 630.926 340.03 631.652 339.666C638.006 337.487 644.361 335.127 650.716 332.948C655.073 331.496 658.886 333.13 660.883 337.124C663.062 341.482 661.065 346.748 656.526 348.382C648.355 351.287 640.004 354.192 631.833 357.098C630.925 357.461 629.836 357.642 628.928 358.55C628.384 366.903 627.113 375.436 625.479 383.789C626.568 384.334 627.839 384.334 628.928 384.334C634.738 384.334 640.367 384.515 646.177 384.515C647.629 384.515 648.9 384.515 650.353 384.515C654.71 384.697 656.707 385.786 657.978 389.418C659.249 393.049 658.341 397.589 655.799 399.949C654.71 401.038 653.258 401.22 651.805 401.22C642.727 401.038 633.649 400.857 624.571 400.675C623.118 400.675 621.847 400.675 620.758 400.675C620.032 401.039 620.032 401.583 619.85 401.946C613.859 417.017 605.144 430.453 593.705 441.893C584.809 450.971 574.641 458.416 563.384 464.408C551.219 470.763 538.51 475.302 525.074 478.026C518.901 479.297 512.728 479.842 506.374 479.842C465.34 479.66 424.126 479.66 383.093 479.842C374.196 479.842 365.481 478.752 356.948 476.755C344.42 473.85 332.437 469.129 321.18 462.774C309.923 456.419 299.937 448.429 291.222 438.806C284.686 431.543 279.057 423.735 274.337 415.201C272.158 411.207 270.161 407.03 268.345 402.673C268.164 402.128 267.982 401.583 267.619 401.22C266.711 400.675 265.622 400.857 264.714 400.857C255.999 401.038 247.465 401.22 238.75 401.22C236.753 401.22 234.756 401.402 233.122 399.586C231.306 397.589 230.58 395.228 230.58 392.686C230.58 391.778 230.762 390.87 230.943 390.144C231.851 386.512 234.211 384.515 238.206 384.515C244.923 384.334 251.823 384.334 258.541 384.334C259.63 384.334 260.901 384.515 262.354 383.971ZM285.957 401.038C287.409 404.67 289.225 407.938 291.222 411.207C298.848 424.098 309.015 434.63 321.18 443.164C332.981 451.516 346.054 457.145 360.216 460.595C367.478 462.411 374.741 463.318 382.366 463.318C424.489 463.137 466.43 463.318 508.552 463.318C513.454 463.318 518.175 462.592 522.896 461.684C535.06 459.142 546.499 454.966 557.211 448.792C563.384 445.343 569.194 441.166 574.641 436.627C581.54 430.817 587.532 424.098 592.616 416.654C595.702 412.115 598.607 407.394 600.786 402.309C600.968 401.765 601.512 401.402 600.968 400.675C600.06 400.312 599.152 400.312 598.426 400.312C594.794 400.312 591.163 400.131 587.532 400.312C584.99 400.312 583.174 399.041 582.085 397.044C580.814 394.865 580.633 392.686 580.996 390.144C581.722 385.786 584.264 383.426 588.803 383.426C594.431 383.426 600.06 383.607 605.87 383.789C607.867 383.789 607.867 383.789 608.412 381.973C609.864 376.889 610.59 371.624 611.317 366.176C611.317 365.632 611.498 365.087 611.135 364.542C610.227 364.542 609.683 364.905 608.775 365.087C601.694 367.629 594.431 370.171 587.35 372.713C580.451 375.073 575.912 368.718 576.638 363.634C577.001 360.366 578.817 358.187 582.085 357.098C591.163 354.011 600.241 350.742 609.319 347.474C610.227 347.111 611.317 346.929 612.224 346.203C612.224 279.384 612.224 212.383 612.224 145.382C610.954 145.564 610.409 146.29 609.501 146.835C591.163 160.998 573.007 175.16 554.669 189.505C552.672 190.957 550.675 191.502 548.315 190.957C539.781 189.323 531.248 187.689 522.896 186.236C517.086 185.328 511.457 184.602 505.647 183.876C500.564 183.331 495.48 182.423 490.396 182.242C489.851 182.242 489.125 182.06 488.399 182.605C488.217 183.513 488.217 184.421 488.217 185.328C488.217 198.765 488.217 212.201 488.217 225.638C488.217 226.727 488.217 227.817 488.036 229.088C487.31 232.719 484.404 235.08 480.592 235.261C476.597 235.443 473.329 233.264 472.24 229.633C471.877 228.543 471.877 227.454 471.877 226.183C471.877 212.02 471.877 197.857 471.877 183.694C471.877 182.786 472.058 181.697 471.332 180.789C464.977 180.426 458.804 180.063 452.086 180.426C452.086 181.697 452.086 182.605 452.086 183.513C452.086 192.591 452.086 201.67 452.086 210.749C452.086 219.283 452.086 227.817 452.086 236.532C452.086 238.893 451.723 241.072 450.089 242.887C447.91 245.248 445.187 245.793 442.1 245.611C438.832 245.248 436.109 242.887 435.383 239.801C435.02 238.53 435.019 237.259 435.019 235.988C435.019 218.557 435.019 201.125 435.019 183.876C435.019 182.786 435.201 181.878 434.838 180.789C431.388 180.244 417.589 180.608 415.592 181.515C415.229 182.423 415.411 183.513 415.411 184.421C415.411 198.402 415.411 212.383 415.411 226.364C415.411 227.635 415.411 228.725 415.048 229.996C413.958 233.627 410.69 235.806 406.696 235.443C403.065 235.261 400.16 232.719 399.433 229.088C399.252 227.998 399.252 226.909 399.252 225.638C399.252 212.201 399.252 198.765 399.252 185.328C399.252 184.421 399.433 183.331 398.888 182.605C398.344 182.242 397.799 182.423 397.254 182.423C393.623 182.605 390.174 182.968 386.724 183.331C379.643 184.239 372.562 184.965 365.663 186.055C356.766 187.507 347.869 188.96 338.973 190.957C336.794 191.32 334.979 190.957 333.344 189.686C328.079 185.51 322.814 181.334 317.549 177.339C304.476 167.171 291.404 157.003 278.331 146.835C277.605 146.29 276.879 145.382 275.789 145.564C275.789 212.383 275.789 279.202 275.789 346.021C278.694 347.111 281.599 348.019 284.323 349.108C291.948 351.832 299.755 354.555 307.381 357.279C309.923 358.187 311.739 359.821 312.465 362.363C313.373 365.813 312.465 368.718 309.923 371.26C307.381 373.621 304.476 373.802 301.39 372.713C293.945 369.989 286.501 367.447 279.057 364.905C278.331 364.542 277.423 364.179 276.334 364.361C277.06 371.079 277.968 377.615 279.965 383.789C281.054 384.152 281.962 384.152 282.688 384.152C288.862 383.97 295.035 383.97 301.208 383.789C303.931 383.789 305.747 385.06 307.018 387.42C308.289 389.781 308.47 392.141 307.926 394.683C307.199 398.496 304.839 400.494 300.845 400.675C296.85 400.675 292.675 400.675 288.68 400.857C287.772 400.494 286.865 400.312 285.957 401.038Z" fill="black"/>
<path d="M356.948 317.877C370.383 317.877 380.914 328.59 380.914 342.027C380.914 355.282 370.02 365.995 356.766 365.995C343.512 365.995 332.981 355.282 332.981 342.027C332.981 328.409 343.512 317.877 356.948 317.877Z" fill="black"/>
<path d="M529.977 366.176C516.722 366.358 505.829 355.826 505.647 342.39C505.466 329.316 516.178 318.422 529.25 318.059C542.504 317.877 553.58 328.409 553.761 341.664C553.761 355.463 543.231 365.995 529.977 366.176Z" fill="black"/>
<path d="M444.098 357.46C449.545 357.46 455.173 357.46 460.62 357.46C462.072 357.46 463.343 357.642 464.614 358.368C467.519 359.821 468.427 363.816 466.248 366.176C459.712 373.621 453.357 381.247 446.821 388.873C445.005 391.052 443.735 391.052 441.919 388.873C435.564 381.428 429.21 373.984 422.673 366.721C421.039 364.905 420.494 362.908 421.584 360.729C422.673 358.55 424.489 357.642 426.849 357.642C432.659 357.461 438.288 357.46 444.098 357.46Z" fill="black"/>
<defs>
<linearGradient id="paint0_linear_39_1304" x1="2.1891" y1="306.714" x2="890.216" y2="306.714" gradientUnits="userSpaceOnUse">
<stop stop-color="#9600FF"/>
<stop offset="0.5138" stop-color="#00F0FF"/>
<stop offset="0.5725" stop-color="#0EDAFF"/>
<stop offset="0.6948" stop-color="#31A2FF"/>
<stop offset="0.8684" stop-color="#6948FF"/>
<stop offset="1" stop-color="#9600FF"/>
</linearGradient>
<linearGradient id="paint1_linear_39_1304" x1="668.781" y1="693.234" x2="222.922" y2="-78.9663" gradientUnits="userSpaceOnUse">
<stop stop-color="#9600FF"/>
<stop offset="0.5138" stop-color="#00F0FF"/>
<stop offset="0.5725" stop-color="#0EDAFF"/>
<stop offset="0.6948" stop-color="#31A2FF"/>
<stop offset="0.8684" stop-color="#6948FF"/>
<stop offset="1" stop-color="#9600FF"/>
</linearGradient>
</defs>
</svg>
