<svg width="1941" height="1336" viewBox="0 0 1941 1336" fill="none" xmlns="http://www.w3.org/2000/svg">
<path d="M1601.84 593.035L1595.9 587.822L1593.55 590.496L1599.5 595.709L1601.84 593.035Z" fill="#4483FF"/>
<path d="M1590.46 586.992L1511.1 666.36L1519.48 674.744L1598.85 595.376L1590.46 586.992Z" fill="#4287FF"/>
<path d="M1912.37 113.293C1791.44 -91.83 1272.15 -9.62264 752.455 296.283C232.369 602.98 -90.9062 1017.18 30.0256 1222.3C150.957 1427.42 670.253 1345.22 1189.94 1039.31C1709.63 733.009 2032.91 318.416 1912.37 113.293ZM1134.22 933.785C670.648 1206.89 223.675 1307.27 135.94 1158.27C48.2048 1009.27 352.906 667.007 816.082 393.904C1279.65 120.802 1726.23 20.4146 1814.36 169.415C1902.1 318.416 1597.4 660.683 1134.22 933.785Z" fill="url(#paint0_linear_243_455)"/>
<path d="M1678.81 665.821L1597.4 743.68C1773.26 911.257 1859.81 1065.79 1808.83 1154.72C1722.28 1304.51 1274.52 1207.68 808.969 938.923C662.349 854.344 531.537 762.651 423.647 672.144L382.151 708.901L341.84 747.238C457.239 849.997 597.141 951.175 755.222 1042.47C1277.68 1344.03 1797.76 1421.5 1916.72 1215.58C1990.62 1086.34 1891.43 877.662 1678.81 665.821ZM1185.99 295.493C663.535 -6.06562 143.449 -83.5301 24.4929 122.383C-49.8051 250.832 49.3907 459.512 261.614 671.354L334.331 602.189L339.469 597.051C159.652 427.104 69.9413 269.803 121.713 180.086C208.262 30.2954 656.026 127.126 1121.57 395.88C1270.57 482.04 1403.35 575.314 1512.43 667.402L1553.93 631.831L1598.19 589.542C1483.18 487.573 1343.68 386.79 1185.99 295.493Z" fill="url(#paint1_linear_243_455)"/>
<path d="M1678.81 665.821L1597.4 743.68C1773.26 911.257 1859.81 1065.79 1808.83 1154.72C1722.28 1304.51 1274.52 1207.68 808.969 938.923C662.349 854.344 531.537 762.651 423.647 672.144L382.151 708.901L341.84 747.238C457.239 849.997 597.141 951.175 755.222 1042.47C1277.68 1344.03 1797.76 1421.5 1916.72 1215.58C1990.62 1086.34 1891.43 877.662 1678.81 665.821ZM1185.99 295.493C663.535 -6.06562 143.449 -83.5301 24.4929 122.383C-49.8051 250.832 49.3907 459.512 261.614 671.354L334.331 602.189L339.469 597.051C159.652 427.104 69.9413 269.803 121.713 180.086C208.262 30.2954 656.026 127.126 1121.57 395.88C1270.57 482.04 1403.35 575.314 1512.43 667.402L1553.93 631.831L1598.19 589.542C1483.18 487.573 1343.68 386.79 1185.99 295.493Z" fill="url(#paint2_linear_243_455)"/>
<path d="M1355.53 563.062C1355.93 483.226 1354.74 403.785 1352.37 323.949C1351.98 307.35 1331.43 298.26 1319.17 310.116C1282.82 346.082 1239.34 388.371 1189.55 405.366C1186.78 399.833 1181.25 395.485 1172.55 396.276C1147.66 397.462 1122.36 397.066 1097.47 395.881C1094.7 394.695 1091.93 393.905 1088.38 394.3C1086.01 394.695 1084.03 394.695 1081.66 395.09C1070.2 394.3 1059.13 393.509 1047.67 392.719C1042.93 391.928 1037.79 391.533 1033.05 391.533C979.696 387.186 926.739 381.652 873.387 382.048C825.172 382.443 778.538 393.904 730.719 395.881C717.677 396.276 707.797 395.485 697.917 386.79C688.827 378.886 680.923 369.796 672.229 361.496C657.211 346.873 642.589 331.854 627.571 317.23C627.966 314.859 627.966 312.488 628.362 310.116C630.338 288.774 602.278 286.007 592.793 301.026C582.913 305.769 576.195 317.23 584.099 327.506C585.285 329.087 586.47 330.273 587.26 331.854C574.614 461.093 565.524 590.333 578.171 720.362C583.704 776.88 589.632 834.978 612.158 887.543C634.685 939.318 674.6 976.47 727.162 997.021C786.047 1020.34 850.86 1019.94 913.302 1021.13C980.882 1022.32 1050.44 1028.24 1118.02 1023.11C1179.27 1018.36 1228.67 989.907 1267.4 942.875C1268.98 940.899 1270.57 938.923 1272.15 936.947C1278.07 935.366 1282.82 931.414 1284.79 923.904C1285.19 922.719 1285.19 921.533 1285.58 920.347C1316.8 880.034 1340.52 838.14 1348.42 785.179C1358.7 712.458 1355.14 636.574 1355.53 563.062Z" fill="white"/>
<path d="M571.058 836.164C567.896 825.098 567.106 814.031 565.13 802.965C563.944 796.641 563.549 789.923 563.154 783.599C563.154 780.042 561.968 778.856 558.806 777.67C541.813 771.742 525.214 765.814 508.616 759.885C507.43 759.49 506.64 759.095 505.454 758.699C497.155 755.538 493.203 748.028 494.783 738.543C495.969 731.034 503.083 724.315 510.592 723.524C513.753 723.129 516.52 723.919 519.286 725.105C531.932 729.453 544.579 734.195 557.226 738.543C558.806 738.938 559.992 739.728 561.968 739.728C563.153 738.543 562.758 736.962 562.758 735.776C562.758 734.195 562.758 732.614 562.758 731.033C562.758 578.871 562.758 426.709 562.758 274.546C562.758 273.36 562.758 272.175 562.758 270.989C562.363 259.923 574.614 252.413 584.89 258.342C587.261 259.527 589.237 261.504 591.213 263.084C638.637 300.631 686.456 338.178 733.881 375.724C737.042 378.096 739.809 379.281 743.761 378.096C758.383 375.329 773.006 372.562 788.023 370.191C800.67 368.215 813.316 367.029 825.568 365.053C847.304 361.891 869.04 360.31 890.776 359.125C925.554 356.753 960.727 355.963 995.9 357.149C1002.22 357.544 1008.55 357.544 1014.87 357.544C1029.1 357.544 1043.32 359.125 1057.55 360.31C1067.83 361.101 1078.1 361.891 1088.77 363.077C1103.79 364.658 1118.81 367.029 1133.83 368.61C1152 370.981 1170.18 374.934 1188.36 378.096C1192.32 378.886 1194.69 377.7 1197.45 375.724C1243.3 339.363 1289.54 303.002 1335.38 267.037C1338.14 264.665 1340.91 262.689 1343.68 260.318C1348.82 256.366 1354.74 254.785 1361.07 257.946C1366.99 261.108 1368.97 266.246 1368.97 272.965C1368.97 342.92 1368.97 413.271 1368.97 483.226C1368.97 566.619 1368.97 650.012 1368.97 733.405C1368.97 735.776 1368.58 738.148 1369.37 740.914C1371.34 741.705 1373.32 740.519 1374.9 739.728C1388.73 734.986 1402.56 729.848 1416.4 725.105C1425.88 721.943 1434.18 725.5 1438.53 734.195C1443.27 743.681 1438.92 755.142 1429.04 758.699C1411.26 765.023 1393.08 771.347 1375.29 777.67C1373.32 778.461 1370.95 778.856 1368.97 780.832C1367.79 799.013 1365.02 817.588 1361.46 835.769C1363.83 836.954 1366.6 836.955 1368.97 836.955C1381.62 836.955 1393.87 837.35 1406.51 837.35C1409.68 837.35 1412.44 837.35 1415.6 837.35C1425.09 837.745 1429.44 840.116 1432.2 848.021C1434.97 855.925 1432.99 865.806 1427.46 870.944C1425.09 873.315 1421.93 873.711 1418.77 873.711C1399.01 873.315 1379.25 872.92 1359.49 872.525C1356.32 872.525 1353.56 872.525 1351.19 872.525C1349.61 873.315 1349.61 874.501 1349.21 875.291C1336.17 908.095 1317.2 937.342 1292.3 962.241C1272.94 982.003 1250.8 998.207 1226.3 1011.25C1199.82 1025.08 1172.16 1034.96 1142.91 1040.89C1129.48 1043.66 1116.04 1044.84 1102.21 1044.84C1012.89 1044.45 923.183 1044.45 833.867 1044.84C814.502 1044.84 795.532 1042.47 776.958 1038.13C749.689 1031.8 723.605 1021.53 699.103 1007.69C674.6 993.86 652.864 976.47 633.895 955.523C619.667 939.714 607.416 922.719 597.141 904.143C592.398 895.448 588.051 886.358 584.099 876.872C583.704 875.687 583.309 874.501 582.518 873.711C580.542 872.525 578.171 872.92 576.195 872.92C557.226 873.315 538.651 873.711 519.681 873.711C515.334 873.711 510.987 874.106 507.43 870.154C503.478 865.806 501.897 860.668 501.897 855.135C501.897 853.159 502.292 851.183 502.687 849.602C504.663 841.697 509.801 837.35 518.496 837.35C533.118 836.954 548.136 836.955 562.758 836.955C565.129 836.955 567.896 837.35 571.058 836.164ZM622.434 873.315C625.596 881.22 629.547 888.334 633.895 895.448C650.493 923.509 672.624 946.432 699.103 965.008C724.791 983.189 753.246 995.441 784.071 1002.95C799.88 1006.9 815.688 1008.88 832.286 1008.88C923.973 1008.48 1015.26 1008.88 1106.95 1008.88C1117.62 1008.88 1127.9 1007.3 1138.17 1005.32C1164.65 999.788 1189.55 990.698 1212.87 977.26C1226.3 969.751 1238.95 960.661 1250.81 950.78C1265.82 938.133 1278.86 923.509 1289.93 907.305C1296.65 897.424 1302.97 887.148 1307.71 876.082C1308.11 874.896 1309.3 874.106 1308.11 872.525C1306.13 871.735 1304.16 871.735 1302.58 871.735C1294.67 871.735 1286.77 871.339 1278.86 871.735C1273.33 871.735 1269.38 868.968 1267.01 864.62C1264.24 859.878 1263.85 855.135 1264.64 849.602C1266.22 840.116 1271.75 834.978 1281.63 834.978C1293.88 834.978 1306.13 835.373 1318.78 835.769C1323.13 835.769 1323.13 835.769 1324.31 831.816C1327.47 820.75 1329.06 809.289 1330.64 797.432C1330.64 796.246 1331.03 795.06 1330.24 793.875C1328.26 793.875 1327.08 794.665 1325.1 795.06C1309.69 800.594 1293.88 806.127 1278.47 811.66C1263.45 816.798 1253.57 802.965 1255.15 791.899C1255.94 784.784 1259.89 780.042 1267.01 777.67C1286.77 770.952 1306.53 763.837 1326.29 756.723C1328.26 755.933 1330.64 755.538 1332.61 753.957C1332.61 608.513 1332.61 462.674 1332.61 316.835C1329.85 317.231 1328.66 318.811 1326.68 319.997C1286.77 350.825 1247.25 381.653 1207.33 412.876C1202.99 416.037 1198.64 417.223 1193.5 416.037C1174.93 412.48 1156.35 408.923 1138.17 405.761C1125.53 403.785 1113.27 402.204 1100.63 400.624C1089.56 399.438 1078.5 397.462 1067.43 397.066C1066.25 397.066 1064.67 396.671 1063.08 397.857C1062.69 399.833 1062.69 401.809 1062.69 403.785C1062.69 433.032 1062.69 462.279 1062.69 491.526C1062.69 493.897 1062.69 496.268 1062.29 499.035C1060.71 506.94 1054.39 512.078 1046.09 512.473C1037.4 512.868 1030.28 508.125 1027.91 500.221C1027.12 497.849 1027.12 495.478 1027.12 492.711C1027.12 461.884 1027.12 431.056 1027.12 400.228C1027.12 398.252 1027.52 395.881 1025.94 393.905C1012.1 393.114 998.666 392.324 984.044 393.114C984.044 395.881 984.044 397.857 984.044 399.833C984.044 419.594 984.044 439.356 984.044 459.117C984.044 477.693 984.044 496.269 984.044 515.239C984.044 520.377 983.253 525.12 979.696 529.072C974.954 534.21 969.026 535.396 962.308 535.001C955.194 534.21 949.266 529.072 947.685 522.353C946.895 519.587 946.895 516.82 946.895 514.054C946.895 476.112 946.895 438.17 946.895 400.624C946.895 398.252 947.29 396.276 946.5 393.905C938.991 392.719 908.955 393.509 904.608 395.486C903.818 397.462 904.213 399.833 904.213 401.809C904.213 432.242 904.213 462.674 904.213 493.107C904.213 495.873 904.213 498.245 903.422 501.011C901.051 508.916 893.938 513.659 885.243 512.868C877.339 512.473 871.016 506.94 869.435 499.035C869.04 496.664 869.04 494.292 869.04 491.526C869.04 462.279 869.04 433.032 869.04 403.785C869.04 401.809 869.435 399.438 868.249 397.857C867.064 397.066 865.878 397.462 864.693 397.462C856.789 397.857 849.28 398.647 841.771 399.438C826.358 401.414 810.945 402.995 795.927 405.366C776.563 408.528 757.198 411.69 737.833 416.037C733.09 416.828 729.138 416.037 725.582 413.271C714.121 404.181 702.66 395.09 691.199 386.395C662.744 364.263 634.29 342.13 605.835 319.997C604.255 318.811 602.674 316.835 600.302 317.231C600.302 462.674 600.302 608.118 600.302 753.561C606.626 755.933 612.949 757.909 618.877 760.28C635.475 766.209 652.469 772.137 669.068 778.066C674.601 780.042 678.553 783.599 680.133 789.132C682.109 796.641 680.133 802.965 674.6 808.498C669.068 813.636 662.745 814.031 656.026 811.66C639.823 805.732 623.619 800.198 607.416 794.665C605.835 793.875 603.859 793.084 601.488 793.48C603.069 808.103 605.045 822.331 609.392 835.769C611.763 836.559 613.739 836.559 615.32 836.559C628.757 836.164 642.194 836.164 655.631 835.769C661.559 835.769 665.511 838.535 668.277 843.673C671.044 848.811 671.439 853.949 670.253 859.482C668.672 867.782 663.535 872.13 654.84 872.525C646.146 872.525 637.056 872.525 628.362 872.92C626.386 872.13 624.41 871.734 622.434 873.315Z" fill="black"/>
<path d="M776.958 692.301C806.203 692.301 829.125 715.619 829.125 744.866C829.125 773.718 805.413 797.036 776.563 797.036C747.713 797.036 724.792 773.718 724.792 744.866C724.792 715.224 747.713 692.301 776.958 692.301Z" fill="black"/>
<path d="M1153.58 797.431C1124.73 797.827 1101.02 774.903 1100.63 745.656C1100.23 717.2 1123.55 693.486 1152 692.696C1180.85 692.301 1204.96 715.224 1205.36 744.076C1205.36 774.113 1182.43 797.036 1153.58 797.431Z" fill="black"/>
<path d="M966.655 778.46C978.511 778.46 990.762 778.46 1002.62 778.46C1005.78 778.46 1008.55 778.855 1011.31 780.436C1017.64 783.598 1019.61 792.293 1014.87 797.431C1000.64 813.635 986.81 830.235 972.583 846.835C968.631 851.577 965.865 851.577 961.913 846.835C948.081 830.63 934.249 814.426 920.021 798.617C916.464 794.664 915.279 790.317 917.65 785.574C920.021 780.832 923.973 778.855 929.111 778.855C941.757 778.46 954.009 778.46 966.655 778.46Z" fill="black"/>
<defs>
<linearGradient id="paint0_linear_243_455" x1="4.7647" y1="668.001" x2="1937.71" y2="668.001" gradientUnits="userSpaceOnUse">
<stop stop-color="#F11712"/>
<stop offset="0.515625" stop-color="#5614B0"/>
<stop offset="1" stop-color="#F11712"/>
</linearGradient>
<linearGradient id="paint1_linear_243_455" x1="25.9309" y1="742.24" x2="1914.2" y2="770.432" gradientUnits="userSpaceOnUse">
<stop stop-color="#03001E"/>
<stop offset="0.192708" stop-color="#7303C0"/>
<stop offset="0.390625" stop-color="#EC38BC"/>
<stop offset="0.536458" stop-color="#FDEFF9"/>
<stop offset="0.651042" stop-color="#FCF3BB"/>
<stop offset="0.994792" stop-color="#F7FF00"/>
</linearGradient>
<linearGradient id="paint2_linear_243_455" x1="25.9309" y1="742.24" x2="1914.2" y2="770.432" gradientUnits="userSpaceOnUse">
<stop stop-color="#5614B0"/>
<stop offset="0.526042" stop-color="#F11712"/>
<stop offset="1" stop-color="#5614B0"/>
</linearGradient>
</defs>
</svg>
