<svg width="892" height="614" viewBox="0 0 892 614" fill="none" xmlns="http://www.w3.org/2000/svg">
<path d="M734.923 274.177L736 272.497L731 269L733 270.499L732.193 271.782L734.923 274.177Z" fill="#8E1678"/>
<path d="M730.772 270.172L694.312 306.635L698.163 310.486L734.624 274.023L730.772 270.172Z" fill="#8F1677"/>
<path d="M878.663 52.5512C823.105 -41.6858 584.531 -3.91833 345.777 136.62C106.841 277.522 -41.6774 467.811 13.8807 562.048C69.4388 656.285 308.012 618.518 546.767 477.979C785.521 337.259 934.039 146.788 878.663 52.5512ZM521.166 429.499C308.193 554.967 102.846 601.087 62.5394 532.633C22.2325 464.18 162.217 306.937 375.008 181.469C587.981 56.0011 793.147 9.88129 833.635 78.3347C873.942 146.788 733.957 304.031 521.166 429.499Z" fill="url(#paint0_linear_909_89)"/>
<path d="M771.36 306.391L733.958 342.162C814.754 419.149 854.516 490.144 831.094 530.999C791.332 599.815 585.622 555.33 371.741 431.859C304.381 393.002 244.284 350.877 194.718 309.297L175.653 326.183L157.134 343.796C210.15 391.005 274.424 437.488 347.049 479.432C587.074 617.973 826.01 653.561 880.661 558.961C914.613 499.586 869.041 403.715 771.36 306.391ZM544.952 136.257C304.926 -2.28448 65.9897 -37.873 11.3394 56.7271C-22.7944 115.739 22.7778 211.61 120.277 308.934L153.684 277.158L156.045 274.798C73.4338 196.721 32.2191 124.454 56.0038 83.2369C95.766 14.4204 301.476 58.906 515.357 182.376C583.806 221.96 644.811 264.811 694.922 307.118L713.986 290.776L734.321 271.348C681.487 224.502 617.395 178.2 544.952 136.257Z" fill="url(#paint1_linear_909_89)"/>
<path d="M771.36 306.391L733.958 342.162C814.754 419.149 854.516 490.144 831.094 530.999C791.332 599.815 585.622 555.33 371.741 431.859C304.381 393.002 244.284 350.877 194.718 309.297L175.653 326.183L157.134 343.796C210.15 391.005 274.424 437.488 347.049 479.432C587.074 617.973 826.01 653.561 880.661 558.961C914.613 499.586 869.041 403.715 771.36 306.391ZM544.952 136.257C304.926 -2.28448 65.9897 -37.873 11.3394 56.7271C-22.7944 115.739 22.7778 211.61 120.277 308.934L153.684 277.158L156.045 274.798C73.4338 196.721 32.2191 124.454 56.0038 83.2369C95.766 14.4204 301.476 58.906 515.357 182.376C583.806 221.96 644.811 264.811 694.922 307.118L713.986 290.776L734.321 271.348C681.487 224.502 617.395 178.2 544.952 136.257Z" fill="url(#paint2_linear_909_89)"/>
<g filter="url(#filter0_d_909_89)">
<path fill-rule="evenodd" clip-rule="evenodd" d="M552.6 191.716L612.532 145.583L612.532 206.353H612.533V358.603H612.511C612.012 384.085 602.575 407.338 587.256 425.257C568.107 449.232 538.69 464.582 505.701 464.582C504.037 464.582 502.386 464.543 500.746 464.466H386.792C384.879 464.584 382.957 464.643 381.025 464.643C375.589 464.643 370.271 464.185 365.095 463.311C312.694 456.267 274.465 406.271 275.425 355.227C275.453 353.751 275.518 352.278 275.621 350.809V219.037L275.621 219.037L275.621 145.583L334.458 191.435L334.473 191.429L335.539 191.855L336.819 192.068H337.885L339.378 191.744L354.517 188.759L362.194 187.59L362.156 187.634C385.738 183.295 414.052 180.767 444.503 180.767C480.458 180.767 513.435 184.292 539.161 190.161L539.179 190.148L549.376 192.111L549.873 192.137L552.279 191.823L552.6 191.716Z" fill="white"/>
</g>
<path fill-rule="evenodd" clip-rule="evenodd" d="M260.292 374.899C260.776 378.29 261.261 381.682 262.23 385.073C261.058 385.513 260.004 385.48 259.068 385.45C258.843 385.443 258.625 385.436 258.414 385.436H258.411C251.688 385.436 244.784 385.436 238.061 385.618C234.063 385.618 231.7 387.616 230.792 391.25C230.61 391.977 230.429 392.885 230.429 393.794C230.429 396.337 231.155 398.699 232.973 400.697C234.472 402.363 236.276 402.349 238.106 402.335C238.273 402.334 238.439 402.333 238.606 402.333C247.153 402.333 255.525 402.158 264.065 401.98L264.593 401.969C264.77 401.969 264.955 401.962 265.143 401.955C265.92 401.926 266.769 401.894 267.5 402.333C267.864 402.696 268.045 403.241 268.227 403.786C270.044 408.146 272.043 412.325 274.224 416.322C278.949 424.861 284.582 432.673 291.124 439.94C299.847 449.569 309.842 457.563 321.109 463.922C332.376 470.281 344.37 475.004 356.909 477.911C365.45 479.91 374.172 481 383.077 481C424.147 480.818 465.398 480.818 506.468 481C512.828 481 519.007 480.455 525.185 479.183C538.633 476.458 551.354 471.916 563.529 465.557C574.796 459.562 584.973 452.113 593.877 443.029C605.326 431.583 614.049 418.139 620.046 403.059C620.088 402.973 620.121 402.878 620.156 402.776C620.268 402.449 620.399 402.065 620.954 401.788H624.77L652.029 402.333C653.483 402.333 654.936 402.151 656.027 401.061C658.571 398.699 659.48 394.157 658.208 390.523C656.936 386.89 654.936 385.8 650.575 385.618H646.396C643.488 385.618 640.626 385.573 637.764 385.527C634.901 385.482 632.039 385.436 629.132 385.436C628.041 385.436 626.769 385.436 625.679 384.891C627.314 376.534 628.587 367.995 629.132 359.638C629.826 358.944 630.627 358.674 631.371 358.423C631.601 358.346 631.825 358.27 632.039 358.185C636.128 356.731 640.262 355.278 644.396 353.824C648.531 352.371 652.665 350.917 656.754 349.464C661.297 347.829 663.296 342.56 661.115 338.2C659.116 334.203 655.3 332.568 650.939 334.021C647.758 335.111 644.578 336.247 641.398 337.382C638.218 338.518 635.038 339.653 631.858 340.743C631.793 340.776 631.727 340.809 631.659 340.844C630.969 341.196 630.141 341.619 629.313 341.288C629.04 340.331 629.075 339.477 629.109 338.648C629.121 338.376 629.132 338.106 629.132 337.836V222.833V126.18C629.132 123.091 628.223 120.729 625.497 119.276C622.59 117.822 619.864 118.549 617.501 120.366C616.865 120.911 616.229 121.411 615.593 121.91C614.957 122.41 614.321 122.91 613.685 123.455C592.605 139.987 571.343 156.702 550.263 173.416C548.991 174.325 547.901 174.87 546.084 174.506C543.297 174.022 540.511 173.497 537.724 172.972C532.151 171.923 526.579 170.873 521.006 170.146C517.553 169.783 514.1 169.329 510.647 168.874C507.195 168.42 503.742 167.966 500.289 167.603C495.383 167.058 490.658 166.694 485.933 166.331C484.625 166.222 483.316 166.106 482.008 165.989C476.774 165.524 471.54 165.059 466.307 165.059C463.399 165.059 460.492 165.059 457.584 164.877C441.41 164.332 425.237 164.696 409.245 165.786C399.25 166.331 389.256 167.058 379.261 168.511C376.358 168.979 373.407 169.351 370.433 169.725C367.635 170.078 364.816 170.433 361.997 170.873C355.091 171.963 348.368 173.235 341.644 174.506C339.826 175.051 338.554 174.507 337.101 173.416C326.197 164.787 315.248 156.157 304.299 147.527C293.351 138.897 282.402 130.268 271.498 121.638C271.262 121.449 271.026 121.248 270.787 121.044C270.105 120.464 269.398 119.861 268.591 119.458C263.866 116.732 258.232 120.184 258.414 125.271V126.906V336.746V338.926C258.414 339.031 258.421 339.143 258.428 339.259C258.457 339.745 258.491 340.303 258.051 340.743C257.445 340.743 257.001 340.582 256.556 340.42C256.334 340.339 256.112 340.259 255.87 340.198C252.962 339.199 250.055 338.154 247.147 337.11C244.24 336.065 241.332 335.02 238.424 334.021C237.152 333.476 235.88 333.113 234.426 333.294C230.974 333.658 227.703 336.746 227.157 340.198C226.43 344.558 228.248 348.01 232.064 349.464C232.337 349.555 232.564 349.645 232.791 349.736C233.018 349.827 233.245 349.918 233.518 350.009L233.52 350.01C241.152 352.735 248.783 355.46 256.597 358.185C258.051 358.73 258.596 359.275 258.596 360.91L258.612 361.166C258.788 363.998 258.975 366.99 259.504 369.812C259.807 371.508 260.05 373.203 260.292 374.899ZM291.124 412.325C289.125 409.055 287.308 405.784 285.854 402.151C285.863 402.144 285.871 402.138 285.88 402.131L289.78 401.92C293.407 401.788 297.153 401.788 300.752 401.788H300.756C304.754 401.606 307.116 399.607 307.843 395.792C308.388 393.249 308.206 390.887 306.934 388.525C305.662 386.163 303.845 384.891 301.119 384.891C298.03 384.982 294.941 385.028 291.851 385.073C288.762 385.118 285.673 385.164 282.583 385.255C281.856 385.255 280.948 385.255 279.857 384.891C277.858 378.714 276.95 372.174 276.223 365.452C277.313 365.27 278.222 365.633 278.949 365.997L278.956 365.999C286.405 368.542 293.853 371.085 301.301 373.809C304.39 374.899 307.298 374.717 309.842 372.355C312.386 369.812 313.295 366.905 312.386 363.453C311.659 360.91 309.842 359.275 307.298 358.366C303.482 357.004 299.62 355.641 295.758 354.278C291.897 352.916 288.035 351.553 284.219 350.191C282.654 349.565 281.029 348.999 279.378 348.424C278.154 347.997 276.916 347.566 275.678 347.102V146.528C276.543 146.384 277.18 146.926 277.769 147.429C277.922 147.56 278.072 147.687 278.222 147.8L317.474 178.322C322.744 182.319 328.014 186.497 333.284 190.676L333.284 190.676C334.92 191.948 336.737 192.311 338.918 191.948C347.822 189.949 356.726 188.496 365.63 187.043L365.631 187.042C370.323 186.302 375.1 185.729 379.902 185.153C382.168 184.881 384.44 184.608 386.711 184.317L386.712 184.317C390.164 183.954 393.617 183.59 397.251 183.409C397.388 183.409 397.524 183.397 397.66 183.386C398.069 183.352 398.478 183.318 398.887 183.59C399.325 184.174 399.294 184.992 399.265 185.762C399.257 185.951 399.25 186.137 399.25 186.316V226.648C399.25 227.92 399.25 229.01 399.432 230.1C400.159 233.734 403.067 236.277 406.701 236.459C410.699 236.823 413.97 234.642 415.06 231.009C415.424 229.737 415.424 228.647 415.424 227.375V185.407C415.424 185.186 415.413 184.953 415.402 184.715C415.368 183.978 415.331 183.187 415.606 182.5C417.605 181.592 431.416 181.229 434.868 181.774C435.139 182.585 435.107 183.296 435.074 184.056C435.062 184.317 435.05 184.584 435.05 184.862V237.004C435.05 238.276 435.05 239.548 435.414 240.819C436.14 243.908 438.866 246.27 442.137 246.633C445.227 246.815 447.952 246.27 450.133 243.908C451.769 242.091 452.132 239.911 452.132 237.549V211.751V184.499V181.41C458.765 181.052 464.868 181.401 471.138 181.759L471.395 181.774C472.003 182.534 471.975 183.421 471.95 184.223C471.945 184.379 471.94 184.532 471.94 184.681V227.194C471.94 228.465 471.94 229.555 472.304 230.645C473.394 234.279 476.665 236.459 480.663 236.277C484.479 236.096 487.387 233.734 488.114 230.1C488.295 228.829 488.295 227.739 488.295 226.65V226.648V186.316C488.295 185.407 488.295 184.499 488.477 183.59C489.066 183.149 489.654 183.184 490.146 183.214C490.262 183.221 490.372 183.227 490.476 183.227C493.868 183.348 497.26 183.792 500.653 184.236C502.349 184.458 504.045 184.681 505.741 184.862C511.556 185.589 517.189 186.316 523.005 187.224C531.364 188.677 539.904 190.312 548.445 191.947L548.446 191.948C550.809 192.493 552.807 191.948 554.806 190.494C573.161 176.142 591.333 161.971 609.687 147.8C609.954 147.639 610.19 147.463 610.422 147.29C610.979 146.874 611.515 146.474 612.413 146.346V347.284C611.763 347.803 611.021 348.044 610.318 348.272C610.038 348.363 609.764 348.452 609.505 348.555L609.489 348.561C600.409 351.829 591.328 355.098 582.247 358.185C578.976 359.275 577.158 361.455 576.795 364.725C576.068 369.812 580.611 376.171 587.517 373.809C591.06 372.537 594.649 371.265 598.238 369.994C601.827 368.722 605.417 367.45 608.96 366.178C609.309 366.109 609.604 366.012 609.887 365.92C610.341 365.771 610.763 365.633 611.323 365.633C611.595 366.042 611.561 366.451 611.527 366.86C611.516 366.996 611.504 367.132 611.504 367.268C610.777 372.719 610.051 377.987 608.597 383.075C608.052 384.891 608.052 384.891 606.053 384.891L605.532 384.875C599.901 384.699 594.436 384.528 588.97 384.528C584.427 384.528 581.883 386.89 581.156 391.25C580.793 393.794 580.975 395.974 582.247 398.154C583.337 400.152 585.154 401.424 587.698 401.424C590.121 401.303 592.544 401.343 594.967 401.384C596.179 401.404 597.39 401.424 598.602 401.424C599.329 401.424 600.238 401.424 601.146 401.788C601.547 402.322 601.358 402.66 601.158 403.018C601.086 403.147 601.013 403.279 600.964 403.423C598.784 408.51 595.876 413.233 592.787 417.775C587.699 425.224 581.702 431.946 574.796 437.76C569.344 442.302 563.529 446.481 557.35 449.933C546.629 456.11 535.18 460.288 523.005 462.832C518.28 463.74 513.555 464.467 508.648 464.467C494.588 464.467 480.548 464.447 466.515 464.427C438.469 464.386 410.45 464.346 382.35 464.467C374.718 464.467 367.449 463.559 360.18 461.742C346.005 458.29 332.921 452.658 321.109 444.301C308.933 435.762 298.757 425.224 291.124 412.325Z" fill="black"/>
<path d="M356.988 318.716C370.435 318.716 380.975 329.435 380.975 342.879C380.975 356.142 370.072 366.861 356.806 366.861C343.54 366.861 333 356.142 333 342.879C333 329.253 343.54 318.716 356.988 318.716Z" fill="black"/>
<path d="M531.171 367.044C517.905 367.226 507.001 356.688 506.82 343.244C506.638 330.163 517.36 319.262 530.444 318.899C543.71 318.717 554.795 329.255 554.977 342.517C554.977 356.325 544.437 366.862 531.171 367.044Z" fill="black"/>
<path d="M443.572 358.749C449.024 358.749 454.657 358.749 460.109 358.749C461.563 358.749 462.835 358.931 464.107 359.657C467.014 361.111 467.923 365.108 465.742 367.47C459.2 374.919 452.84 382.549 446.298 390.18C444.48 392.36 443.208 392.36 441.391 390.18C435.031 382.731 428.67 375.282 422.128 368.015C420.493 366.198 419.948 364.199 421.038 362.019C422.128 359.839 423.946 358.931 426.308 358.931C432.123 358.749 437.757 358.749 443.572 358.749Z" fill="black"/>
<defs>
<filter id="filter0_d_909_89" x="271.407" y="145.583" width="345.125" height="327.061" filterUnits="userSpaceOnUse" color-interpolation-filters="sRGB">
<feFlood flood-opacity="0" result="BackgroundImageFix"/>
<feColorMatrix in="SourceAlpha" type="matrix" values="0 0 0 0 0 0 0 0 0 0 0 0 0 0 0 0 0 0 127 0" result="hardAlpha"/>
<feOffset dy="4"/>
<feGaussianBlur stdDeviation="2"/>
<feComposite in2="hardAlpha" operator="out"/>
<feColorMatrix type="matrix" values="0 0 0 0 0 0 0 0 0 0 0 0 0 0 0 0 0 0 0.25 0"/>
<feBlend mode="normal" in2="BackgroundImageFix" result="effect1_dropShadow_909_89"/>
<feBlend mode="normal" in="SourceGraphic" in2="effect1_dropShadow_909_89" result="shape"/>
</filter>
<linearGradient id="paint0_linear_909_89" x1="2.2754" y1="307.393" x2="890.303" y2="307.394" gradientUnits="userSpaceOnUse">
<stop stop-color="#F11712"/>
<stop offset="0.515625" stop-color="#5614B0"/>
<stop offset="1" stop-color="#F11712"/>
</linearGradient>
<linearGradient id="paint1_linear_909_89" x1="12" y1="341.5" x2="879.501" y2="354.452" gradientUnits="userSpaceOnUse">
<stop stop-color="#03001E"/>
<stop offset="0.192708" stop-color="#7303C0"/>
<stop offset="0.390625" stop-color="#EC38BC"/>
<stop offset="0.536458" stop-color="#FDEFF9"/>
<stop offset="0.651042" stop-color="#FCF3BB"/>
<stop offset="0.994792" stop-color="#F7FF00"/>
</linearGradient>
<linearGradient id="paint2_linear_909_89" x1="12" y1="341.5" x2="879.501" y2="354.452" gradientUnits="userSpaceOnUse">
<stop stop-color="#5614B0"/>
<stop offset="0.526042" stop-color="#F11712"/>
<stop offset="1" stop-color="#5614B0"/>
</linearGradient>
</defs>
</svg>
