<svg width="100" height="100" viewBox="0 0 100 100" fill="none" xmlns="http://www.w3.org/2000/svg">
<path d="M0 18.5483C0 8.30433 8.30435 0 18.5483 0H67.0594C77.3032 0 85.6077 8.30433 85.6077 18.5483V67.0593C85.6077 77.3031 77.3032 85.6076 67.0594 85.6076H18.5483C8.30435 85.6076 0 77.3031 0 67.0593V18.5483ZM18.5483 8.56076C13.0323 8.56076 8.56077 13.0323 8.56077 18.5483V67.0593C8.56077 72.5752 13.0323 77.0468 18.5483 77.0468H67.0594C72.5754 77.0468 77.0469 72.5752 77.0469 67.0593V18.5483C77.0469 13.0323 72.5754 8.56076 67.0594 8.56076H18.5483Z" fill="black"/>
<path d="M32.9406 100C26.3739 100 20.6042 96.5872 17.3081 91.4394H70.0374C81.8575 91.4394 91.4393 81.857 91.4393 70.0375V17.3081C96.5878 20.6042 100 26.3739 100 32.9406V70.0375C100 86.5848 86.5853 100 70.0374 100H32.9406Z" fill="black"/>
<path d="M23.0294 21.9643L23.0294 21.9612C23.0196 20.8473 23.8738 19.9957 24.918 19.9957H57.3246C56.7855 21.1951 56.8008 22.73 57.5273 23.9328H24.918C23.8869 23.9328 23.0294 23.0822 23.0294 21.9643ZM67.4246 68.6125L67.4246 68.6097L67.4588 26.3275V26.3273C67.4588 24.7316 66.2757 23.3732 64.6532 23.3732H64.6529H64.6527H64.6524H64.652H64.6517H64.6514H64.651H64.6506H64.6503H64.6499H64.6495H64.649H64.6486H64.6481H64.6477H64.6472H64.6467H64.6462H64.6457H64.6452H64.6446H64.6441H64.6435H64.6429H64.6423H64.6417H64.6411H64.6405H64.6399H64.6392H64.6385H64.6379H64.6372H64.6365H64.6358H64.635H64.6343H64.6335H64.6328H64.632H64.6312H64.6304H64.6296H64.6288H64.628H64.6271H64.6263H64.6254H64.6246H64.6237H64.6228H64.6219H64.6209H64.62H64.6191H64.6181H64.6172H64.6162H64.6152H64.6142H64.6132H64.6122H64.6112H64.6101H64.6091H64.608H64.607H64.6059H64.6048H64.6037H64.6026H64.6015H64.6003H64.5992H64.5981H64.5969H64.5957H64.5946H64.5934H64.5922H64.591H64.5898H64.5885H64.5873H64.5861H64.5848H64.5835H64.5823H64.581H64.5797H64.5784H64.5771H64.5758H64.5745H64.5732H64.5718H64.5705H64.5691H64.5677H64.5664H64.565H64.5636H64.5622H64.5608H64.5594H64.558H64.5565H64.5551H64.5536H64.5522H64.5507H64.5493H64.5478H64.5463H64.5448H64.5433H64.5418H64.5403H64.5388H64.5372H64.5357H64.5341H64.5326H64.531H64.5295H64.5279H64.5263H64.5247H64.5231H64.5215H64.5199H64.5183H64.5167H64.5151H64.5134H64.5118H64.5102H64.5085H64.5068H64.5052H64.5035H64.5018H64.5002H64.4985H64.4968H64.4951H64.4934H64.4917H64.4899H64.4882H64.4865H64.4848H64.483H64.4813H64.4795H64.4778H64.476H64.4742H64.4725H64.4707H64.4689H64.4671H64.4653H64.4635H64.4617H64.4599H64.4581H64.4563H64.4545H64.4527H64.4508H64.449H64.4472H64.4453H64.4435H64.4416H64.4398H64.4379H64.4361H64.4342H64.4323H64.4304H64.4286H64.4267H64.4248H64.4229H64.421H64.4191H64.4172H64.4153H64.4134H64.4115H64.4096H64.4077H64.4058H64.4038H64.4019H64.4H64.398H64.3961H64.3942H64.3922H64.3903H64.3883H64.3864H64.3844H64.3825H64.3805H64.3786H64.3766H64.3747H64.3727H64.3707H64.3688H64.3668H64.3648H64.3628H64.3609H64.3589H64.3569H64.3549H64.3529H64.3509H64.349H64.347H64.345H64.343H64.341H64.339H64.337H64.335H64.333H64.331H64.329H64.327H64.325H64.323H64.321H64.319H64.317H64.315H64.313H64.311H64.309H64.307H64.305H64.303H64.3009H64.2989H64.2969H64.2949H64.2929H64.2909H64.2889H64.2869H64.2849H64.2829H64.2809H64.2789H64.2769H64.2748H64.2728H64.2708H64.2688H64.2668H64.2648H64.2628H64.2608H64.2588H64.2568H64.2548H64.2528H64.2508H64.2488H64.2468H64.2449H64.2429H64.2409H64.2389H64.2369H64.2349H64.2329H64.2309H64.229H64.227H64.225H64.223H64.2211H64.2191H64.2171H64.2152H64.2132H64.2112H64.2093H64.2073H64.2054H64.2034H64.2015H64.1995H64.1976H64.1956H64.1937H64.1918H64.1898H64.1879H64.186H64.184H64.1821H64.1802H64.1783H64.1764H64.1745H64.1726H64.1707H64.1688H64.1669H64.165H64.1631H64.1612H64.1593H64.1575H64.1556H64.1537H64.1519H64.15H64.1481H64.1463H64.1444H64.1426H64.1408H64.1389H64.1371H64.1353H64.1334H64.1316H64.1298H64.128H64.1262H64.1244H64.1226H64.1208H64.119H64.1173H64.1155H64.1137H64.1119H64.1102H64.1084H64.1067H64.1049H64.1032H64.1015H64.0998H64.098H64.0963H64.0946H64.0929H64.0912H64.0895H64.0878H64.0862H64.0845H64.0828H64.0812H64.0795H64.0779H64.0762H64.0746H64.0729H64.0713H64.0697H64.0681H64.0665H64.0649H64.0633H64.0617H64.0601H64.0586H64.057H64.0555H64.0539H64.0524H64.0508H64.0493H64.0478H64.0463H64.0448H64.0433H64.0418H64.0403H64.0388H64.0374H64.0359H64.0345H64.033H64.0316H64.0302H64.0287H64.0273H64.0259H64.0245H64.0231H64.0218H64.0204H64.019H64.0177H64.0163H64.015H64.0137H64.0124H64.0111H64.0098H64.0085H64.0072H64.0059H64.0046H64.0034H64.0021H64.0009H63.9997H63.9985H63.9972H63.996H63.9949H63.9937H63.9925H63.9913H63.9902H63.9891H63.9879H63.9868H63.9857H63.9846H63.9835H63.9824H63.9813H63.9803H63.9792H63.9782H63.9771H63.9761H63.9751H63.9741H63.9731H63.9721H63.9712H63.9702H63.9693H63.9683H63.9674H63.9665H63.9656H63.9647H63.9638H63.963H63.9621H63.9613H63.9604H63.9596H63.9588H63.958H63.9572H63.9564H63.9556H63.9549H63.9541H63.9534H63.9527H63.952H63.9513H63.9506H63.9499H63.9493H63.9486H63.948H63.9474H63.9468H63.9462H63.9456H63.945H63.9445H63.9439H63.9434H63.9429H63.9423H63.9418H63.9414H63.9413C63.0324 23.3317 62.3192 22.5935 62.3192 21.6902C62.3192 20.8243 62.9749 20.1095 63.8065 20.0183L64.4591 20.0071C64.4601 20.0071 64.4611 20.0071 64.4621 20.0071C65.9424 20.0055 67.1505 18.8123 67.1505 17.3272C67.1505 15.841 65.9407 14.6472 64.4591 14.6472H24.919C20.9105 14.6238 17.6466 17.8759 17.6466 21.8729V63.4355C17.6466 65.5403 18.0638 67.498 19.1112 68.9381C20.1723 70.3968 21.8462 71.278 24.2441 71.278H64.7332C66.2041 71.278 67.4114 70.0842 67.4246 68.6125ZM62.0646 65.918H24.2441C23.7789 65.918 23.5058 65.8407 23.3432 65.7417C23.1941 65.6509 23.1065 65.5231 23.0539 65.3325C22.9973 65.1276 22.9858 64.8661 22.9943 64.5326C22.9972 64.4186 23.0027 64.292 23.0085 64.1585C23.0185 63.9286 23.0294 63.6781 23.0294 63.4355V29.0381C23.6342 29.2016 24.2678 29.2928 24.918 29.2928H62.0646V65.918Z" fill="black" stroke="black" stroke-width="0.7"/>
<path d="M52.4651 61.4367L52.7099 61.6872L52.9602 61.4424L55.7511 58.7125L56.0012 58.4679L55.7567 58.2177L50.1433 52.4724C51.6452 50.4474 52.5431 47.9471 52.5431 45.2362C52.5431 38.5156 47.0754 33.0479 40.3549 33.0479C33.6343 33.0479 28.1666 38.5156 28.1666 45.2362C28.1666 51.9568 33.6343 57.4245 40.3549 57.4245C42.7037 57.4245 44.8957 56.7506 46.7575 55.595L52.4651 61.4367ZM40.3549 37.6521C44.5365 37.6521 47.939 41.0545 47.939 45.2362C47.939 49.4179 44.5365 52.8203 40.3549 52.8203C36.1732 52.8203 32.7707 49.4179 32.7707 45.2362C32.7707 41.0545 36.1732 37.6521 40.3549 37.6521Z" fill="black" stroke="black" stroke-width="0.7"/>
</svg>
