<svg width="309" height="433" viewBox="0 0 309 433" fill="none" xmlns="http://www.w3.org/2000/svg">
    <path d="M231.749 61.8511H77.2494C73.1518 61.8511 69.2221 63.4802 66.3246 66.38C63.4272 69.2799 61.7994 73.2129 61.7994 77.3139V170.091C61.7994 174.192 63.4272 178.125 66.3246 181.025C69.2221 183.925 73.1518 185.554 77.2494 185.554H231.749C235.847 185.554 239.777 183.925 242.674 181.025C245.572 178.125 247.2 174.192 247.2 170.091V77.3139C247.2 73.2129 245.572 69.2799 242.674 66.38C239.777 63.4802 235.847 61.8511 231.749 61.8511ZM216.299 154.628H92.6994V92.7768H216.299V154.628Z"
          fill="black"/>
    <path d="M231.749 278.33H77.2494C73.1518 278.33 69.2221 279.959 66.3246 282.859C63.4272 285.759 61.7994 289.692 61.7994 293.793C61.7994 297.894 63.4272 301.827 66.3246 304.727C69.2221 307.627 73.1518 309.256 77.2494 309.256H231.749C235.847 309.256 239.777 307.627 242.674 304.727C245.572 301.827 247.2 297.894 247.2 293.793C247.2 289.692 245.572 285.759 242.674 282.859C239.777 279.959 235.847 278.33 231.749 278.33Z"
          fill="black"/>
    <path d="M262.65 0H15.45C11.3524 0 7.42264 1.62912 4.5252 4.52897C1.62777 7.42881 0 11.3619 0 15.4629V355.646C0 359.747 1.62777 363.68 4.5252 366.58C7.42264 369.479 11.3524 371.109 15.45 371.109H46.35V417.497C46.3613 419.95 46.9557 422.366 48.084 424.543C49.2123 426.721 50.8422 428.599 52.839 430.022C54.8199 431.459 57.1135 432.405 59.5309 432.781C61.9484 433.157 64.4205 432.954 66.744 432.187L108.15 418.27L149.556 432.187C151.883 432.974 154.365 433.194 156.794 432.829C159.224 432.463 161.531 431.524 163.525 430.088C165.519 428.651 167.142 426.76 168.259 424.57C169.377 422.381 169.956 419.956 169.95 417.497V371.109H262.65C274.943 371.109 286.732 366.221 295.424 357.522C304.117 348.822 309 337.023 309 324.72V46.3886C309 34.0856 304.117 22.2864 295.424 13.5869C286.732 4.88736 274.943 0 262.65 0ZM139.05 396.004L113.094 387.345C109.887 386.26 106.413 386.26 103.206 387.345L77.25 396.004V371.109H139.05V396.004ZM278.1 324.72C278.1 328.821 276.472 332.754 273.575 335.654C270.677 338.554 266.748 340.183 262.65 340.183H30.9V30.9257H262.65C266.748 30.9257 270.677 32.5548 273.575 35.4547C276.472 38.3545 278.1 42.2876 278.1 46.3886V324.72Z"
          fill="black"/>
</svg>
