<svg width="224" height="188" viewBox="0 0 56 47" fill="none" xmlns="http://www.w3.org/2000/svg">
<path d="M50.9733 18.1813C50.9967 13.4502 50.9265 8.74256 50.7861 4.01147C50.7627 3.02777 49.5462 2.48908 48.821 3.19172C46.6687 5.32306 44.0954 7.82913 41.1477 8.83625C40.9839 8.50835 40.6564 8.25071 40.1417 8.29755C38.6678 8.36782 37.1706 8.3444 35.6968 8.27413C35.533 8.20387 35.3692 8.15703 35.1587 8.18045C35.0183 8.20387 34.9013 8.20387 34.761 8.22729C34.0825 8.18045 33.4275 8.13361 32.7491 8.08676C32.4683 8.03992 32.1642 8.0165 31.8835 8.0165C28.7252 7.75887 25.5904 7.43097 22.4321 7.45439C19.578 7.47781 16.8175 8.15703 13.9868 8.27413C13.2147 8.29755 12.6299 8.25071 12.045 7.73545C11.507 7.26702 11.0391 6.72833 10.5244 6.23649C9.63541 5.3699 8.76982 4.47989 7.88083 3.6133C7.90423 3.47277 7.90423 3.33225 7.92762 3.19172C8.04459 1.92697 6.38359 1.76302 5.82213 2.65303C5.23727 2.93408 4.83956 3.6133 5.30745 4.22226C5.37763 4.31594 5.44781 4.38621 5.4946 4.47989C4.74598 12.1386 4.20791 19.7974 4.95653 27.503C5.28405 30.8522 5.63496 34.2952 6.96844 37.4102C8.30192 40.4784 10.6648 42.68 13.7762 43.8979C17.262 45.2797 21.0987 45.2563 24.795 45.3266C28.7954 45.3968 32.9128 45.7482 36.9133 45.4437C40.5394 45.1626 43.4637 43.4763 45.7563 40.6892C45.8499 40.5721 45.9435 40.455 46.0371 40.3379C46.388 40.2442 46.6687 40.01 46.7857 39.565C46.8091 39.4947 46.8091 39.4244 46.8325 39.3542C48.6806 36.9652 50.0843 34.4825 50.5522 31.3441C51.1604 27.0346 50.9499 22.5377 50.9733 18.1813Z" fill="white"/>
<path d="M4.53539 34.3654C4.34824 33.7096 4.30145 33.0538 4.18448 32.398C4.11429 32.0232 4.0909 31.6251 4.0675 31.2503C4.0675 31.0395 3.99731 30.9693 3.81016 30.899C2.8042 30.5477 1.82163 30.1964 0.839065 29.8451C0.768882 29.8216 0.722096 29.7982 0.651913 29.7748C0.160631 29.5874 -0.0733159 29.1424 0.0202616 28.5803C0.0904448 28.1353 0.511544 27.7371 0.956037 27.6903C1.14319 27.6669 1.30696 27.7137 1.47072 27.784C2.21934 28.0416 2.96797 28.3227 3.71659 28.5803C3.81017 28.6037 3.88034 28.6506 3.99731 28.6506C4.06749 28.5803 4.0441 28.4866 4.0441 28.4164C4.0441 28.3227 4.0441 28.229 4.0441 28.1353C4.0441 19.1181 4.0441 10.1009 4.0441 1.08372C4.0441 1.01346 4.0441 0.943196 4.0441 0.872932C4.02071 0.217136 4.74594 -0.227871 5.3542 0.123448C5.49456 0.193712 5.61153 0.310821 5.7285 0.404506C8.53583 2.62953 11.3665 4.85455 14.1739 7.07957C14.361 7.2201 14.5248 7.29036 14.7587 7.22009C15.6243 7.05615 16.4899 6.8922 17.3789 6.75167C18.1275 6.63456 18.8761 6.5643 19.6014 6.44719C20.8881 6.25982 22.1748 6.16614 23.4614 6.09588C25.5202 5.95535 27.6023 5.90851 29.6844 5.97877C30.0587 6.00219 30.433 6.00219 30.8073 6.00219C31.6495 6.00219 32.4917 6.09587 33.3339 6.16614C33.9421 6.21298 34.5504 6.25982 35.182 6.33009C36.071 6.42377 36.96 6.5643 37.849 6.65798C38.9251 6.79851 40.0013 7.03272 41.0774 7.22009C41.3114 7.26694 41.4517 7.19668 41.6155 7.07957C44.3293 4.92481 47.0664 2.77006 49.7802 0.638719C49.9439 0.498192 50.1077 0.381082 50.2714 0.240555C50.5756 0.00634174 50.9265 -0.0873448 51.3008 0.100025C51.6517 0.287396 51.7687 0.591877 51.7687 0.990038C51.7687 5.13561 51.7687 9.30459 51.7687 13.4502C51.7687 18.392 51.7687 23.3339 51.7687 28.2758C51.7687 28.4164 51.7453 28.5569 51.7921 28.7208C51.909 28.7677 52.026 28.6974 52.1196 28.6506C52.9384 28.3695 53.7572 28.065 54.576 27.784C55.1375 27.5966 55.6288 27.8074 55.8861 28.3227C56.1668 28.8848 55.9095 29.564 55.3246 29.7748C54.2719 30.1495 53.1957 30.5243 52.143 30.899C52.026 30.9459 51.8857 30.9693 51.7687 31.0864C51.6985 32.1638 51.5347 33.2646 51.3242 34.3419C51.4645 34.4122 51.6283 34.4122 51.7687 34.4122C52.5173 34.4122 53.2425 34.4356 53.9911 34.4356C54.1783 34.4356 54.342 34.4356 54.5292 34.4356C55.0907 34.4591 55.348 34.5996 55.5118 35.068C55.6755 35.5364 55.5586 36.122 55.231 36.4264C55.0907 36.567 54.9035 36.5904 54.7164 36.5904C53.5466 36.567 52.3769 36.5436 51.2072 36.5201C51.0201 36.5201 50.8563 36.5201 50.7159 36.5201C50.6224 36.567 50.6224 36.6372 50.599 36.6841C49.8269 38.628 48.704 40.3612 47.2302 41.8367C46.0838 43.0078 44.7737 43.9681 43.3233 44.741C41.7559 45.5607 40.1183 46.1463 38.3871 46.4976C37.5917 46.6615 36.7963 46.7318 35.9775 46.7318C30.6903 46.7084 25.3798 46.7084 20.0927 46.7318C18.9463 46.7318 17.8234 46.5913 16.7239 46.3336C15.1097 45.9589 13.5656 45.3499 12.1152 44.5302C10.6647 43.7105 9.37802 42.6799 8.25509 41.4386C7.41289 40.5017 6.68767 39.4946 6.07942 38.3938C5.79868 37.8786 5.54135 37.3399 5.3074 36.7778C5.28401 36.7075 5.26061 36.6372 5.21382 36.5904C5.09685 36.5201 4.95649 36.5435 4.83952 36.5435C3.71658 36.567 2.61705 36.5904 1.49412 36.5904C1.23678 36.5904 0.979435 36.6138 0.768885 36.3796C0.534941 36.122 0.441372 35.8175 0.441372 35.4896C0.441372 35.3725 0.464755 35.2554 0.48815 35.1617C0.605122 34.6933 0.909249 34.4356 1.42393 34.4356C2.28952 34.4122 3.17851 34.4122 4.0441 34.4122C4.18447 34.4122 4.34824 34.4356 4.53539 34.3654ZM7.57666 36.567C7.76382 37.0354 7.99775 37.457 8.25509 37.8786C9.23766 39.5415 10.5477 40.8999 12.1152 42.0007C13.6358 43.0781 15.3202 43.8041 17.145 44.2492C18.0807 44.4834 19.0165 44.6005 19.9991 44.6005C25.4266 44.5771 30.8307 44.6005 36.2582 44.6005C36.8898 44.6005 37.4981 44.5068 38.1063 44.3897C39.6738 44.0618 41.1476 43.5231 42.5279 42.7268C43.3233 42.2818 44.0719 41.7431 44.7738 41.1575C45.6627 40.4081 46.4348 39.5415 47.0898 38.5812C47.4875 37.9957 47.8618 37.3867 48.1426 36.7309C48.1659 36.6606 48.2361 36.6138 48.1659 36.5201C48.049 36.4733 47.932 36.4733 47.8384 36.4733C47.3705 36.4733 46.9026 36.4499 46.4347 36.4733C46.1072 36.4733 45.8733 36.3093 45.7329 36.0517C45.5692 35.7706 45.5458 35.4896 45.5926 35.1617C45.6861 34.5996 46.0136 34.2951 46.5985 34.2951C47.3237 34.2951 48.049 34.3185 48.7976 34.3419C49.0549 34.3419 49.0549 34.3419 49.1251 34.1077C49.3123 33.4519 49.4058 32.7727 49.4994 32.0701C49.4994 31.9998 49.5228 31.9296 49.476 31.8593C49.359 31.8593 49.2889 31.9061 49.1719 31.9295C48.2595 32.2574 47.3237 32.5853 46.4114 32.9132C45.5224 33.2177 44.9375 32.398 45.0311 31.7422C45.0779 31.3206 45.3118 31.0395 45.7329 30.899C46.9026 30.5009 48.0724 30.0793 49.2421 29.6577C49.359 29.6108 49.4994 29.5874 49.6164 29.4937C49.6164 20.8747 49.6164 12.2322 49.6164 3.5898C49.4526 3.61322 49.3824 3.70691 49.2655 3.77717C46.9026 5.60403 44.5632 7.43089 42.2004 9.28117C41.943 9.46854 41.6857 9.5388 41.3816 9.46854C40.282 9.25775 39.1825 9.04695 38.1063 8.85958C37.3577 8.74248 36.6325 8.6488 35.8839 8.55511C35.2288 8.48485 34.5738 8.36774 33.9187 8.34432C33.8486 8.34432 33.755 8.32089 33.6614 8.39116C33.638 8.50826 33.638 8.62537 33.638 8.74248C33.638 10.4757 33.638 12.2088 33.638 13.942C33.638 14.0825 33.638 14.2231 33.6146 14.387C33.521 14.8554 33.1467 15.1599 32.6554 15.1833C32.1408 15.2068 31.7197 14.9257 31.5793 14.4573C31.5325 14.3167 31.5325 14.1762 31.5325 14.0123C31.5325 12.1854 31.5325 10.3585 31.5325 8.53169C31.5325 8.41458 31.5559 8.27405 31.4623 8.15695C30.6435 8.1101 29.8481 8.06326 28.9825 8.11011C28.9825 8.27406 28.9825 8.39116 28.9825 8.50826C28.9825 9.67933 28.9825 10.8504 28.9825 12.0215C28.9825 13.1223 28.9825 14.2231 28.9825 15.3473C28.9825 15.6518 28.9357 15.9328 28.7252 16.167C28.4445 16.4715 28.0935 16.5418 27.6958 16.5183C27.2747 16.4715 26.9238 16.167 26.8302 15.7689C26.7835 15.6049 26.7835 15.441 26.7835 15.277C26.7835 13.0286 26.7835 10.7801 26.7835 8.55511C26.7835 8.41458 26.8069 8.29747 26.7601 8.15695C26.3156 8.08668 24.5376 8.13353 24.2803 8.25064C24.2335 8.36774 24.2569 8.50826 24.2569 8.62537C24.2569 10.4288 24.2569 12.2323 24.2569 14.0357C24.2569 14.1996 24.2569 14.3402 24.2101 14.5041C24.0697 14.9725 23.6486 15.2536 23.1339 15.2068C22.666 15.1833 22.2917 14.8554 22.1982 14.387C22.1748 14.2465 22.1748 14.106 22.1748 13.942C22.1748 12.2088 22.1748 10.4757 22.1748 8.74248C22.1748 8.62537 22.1981 8.48484 22.128 8.39116C22.0578 8.34432 21.9876 8.36774 21.9174 8.36774C21.4495 8.39116 21.005 8.43801 20.5606 8.48485C19.6482 8.60196 18.7358 8.69564 17.8468 8.83617C16.7005 9.02354 15.5541 9.2109 14.4078 9.46854C14.1271 9.51538 13.8931 9.46854 13.6826 9.30459C13.0042 8.7659 12.3257 8.22721 11.6473 7.71194C9.96288 6.40035 8.27849 5.08876 6.5941 3.77717C6.50052 3.70691 6.40693 3.5898 6.26657 3.61322C6.26657 12.2322 6.26657 20.8513 6.26657 29.4703C6.64088 29.6108 7.01519 29.7279 7.36611 29.8685C8.34867 30.2198 9.35463 30.5711 10.3372 30.9224C10.6647 31.0395 10.8987 31.2503 10.9922 31.5782C11.1092 32.0232 10.9922 32.398 10.6647 32.7259C10.3372 33.0304 9.96289 33.0538 9.56519 32.9132C8.60602 32.5619 7.64683 32.234 6.68766 31.9061C6.59409 31.8593 6.47711 31.8125 6.33675 31.8359C6.43033 32.7025 6.5473 33.5456 6.80464 34.3419C6.945 34.3888 7.06197 34.3888 7.15555 34.3888C7.95096 34.3654 8.74637 34.3654 9.54178 34.3419C9.8927 34.3419 10.1266 34.5059 10.2904 34.8104C10.4542 35.1148 10.4776 35.4193 10.4074 35.7472C10.3138 36.2391 10.0097 36.4967 9.49499 36.5201C8.98032 36.5201 8.44226 36.5201 7.92758 36.5435C7.81061 36.4967 7.69363 36.4733 7.57666 36.567Z" fill="black"/>
<path d="M16.7239 25.8401C18.4551 25.8401 19.812 27.2219 19.812 28.9551C19.812 30.6649 18.4083 32.0467 16.7005 32.0467C14.9927 32.0467 13.6359 30.6649 13.6359 28.9551C13.6359 27.1985 14.9927 25.8401 16.7239 25.8401Z" fill="black"/>
<path d="M39.0188 32.0702C37.311 32.0936 35.9074 30.7351 35.884 29.002C35.8606 27.3156 37.2408 25.9104 38.9253 25.8635C40.6331 25.8401 42.0601 27.1985 42.0835 28.9083C42.0835 30.6883 40.7266 32.0467 39.0188 32.0702Z" fill="black"/>
<path d="M27.9532 30.9459C28.655 30.9459 29.3802 30.9459 30.082 30.9459C30.2692 30.9459 30.4329 30.9693 30.5967 31.063C30.971 31.2503 31.088 31.7656 30.8073 32.0701C29.9651 33.0304 29.1463 34.0141 28.3041 34.9978C28.0701 35.2788 27.9064 35.2788 27.6724 34.9978C26.8536 34.0375 26.0348 33.0772 25.1926 32.1404C24.9821 31.9061 24.9119 31.6485 25.0523 31.3675C25.1926 31.0864 25.4266 30.9693 25.7307 30.9693C26.4793 30.9459 27.2045 30.9459 27.9532 30.9459Z" fill="black"/>
</svg>
