<svg width="1162" height="1360" viewBox="0 0 1162 1360" fill="none" xmlns="http://www.w3.org/2000/svg">
<path fill-rule="evenodd" clip-rule="evenodd" d="M1162 360C1162 235.184 901.877 134 581 134C260.123 134 0 235.184 0 360V1360H1162V360Z" fill="white"/>
<path d="M710.701 121.622L709.48 120.555L709 121.104L710.221 122.171L710.701 121.622Z" fill="#6B1DA0"/>
<path d="M708.365 120.386L692.117 136.686L693.839 138.402L710.087 122.102L708.365 120.386Z" fill="#6B1DA0"/>
<path d="M774.219 23.1574C749.348 -18.8564 642.881 -1.82386 536.41 61.0726C429.858 124.131 363.704 209.163 388.574 251.177C413.445 293.191 519.912 276.158 626.383 213.262C732.854 150.284 799.008 65.1714 774.219 23.1574ZM614.919 191.645C519.945 247.797 428.316 268.532 410.273 238.013C392.229 207.495 454.599 137.217 549.492 81.0655C644.466 24.9139 736.014 4.17885 754.139 34.6975C772.182 65.2163 709.812 135.494 614.919 191.645Z" fill="url(#paint0_linear_979_3)"/>
<path d="M726.51 136.518L709.841 152.509C745.964 186.806 763.766 218.46 753.341 236.709C735.644 267.45 643.785 247.751 548.22 192.809C518.122 175.518 491.265 156.764 469.108 138.245L460.611 145.795L452.357 153.669C476.058 174.697 504.783 195.394 537.233 214.058C644.48 275.705 751.164 291.409 775.488 249.151C790.599 222.629 770.185 179.878 726.51 136.518ZM625.318 60.7605C518.071 -0.887343 411.387 -16.5912 387.062 25.6669C371.87 52.0276 392.284 94.7782 435.878 138.138L450.767 123.933L451.819 122.878C414.885 88.0958 396.433 55.8761 407.02 37.4642C424.718 6.72363 516.576 26.4228 612.141 81.3646C642.725 98.9783 669.989 118.056 692.389 136.899L700.887 129.592L709.95 120.907C686.33 100.04 657.686 79.4247 625.318 60.7605Z" fill="url(#paint1_linear_979_3)"/>
<path d="M726.51 136.518L709.841 152.509C745.964 186.806 763.766 218.46 753.341 236.709C735.644 267.45 643.785 247.751 548.22 192.809C518.122 175.518 491.265 156.764 469.108 138.245L460.611 145.795L452.357 153.669C476.058 174.697 504.783 195.394 537.233 214.058C644.48 275.705 751.164 291.409 775.488 249.151C790.599 222.629 770.185 179.878 726.51 136.518ZM625.318 60.7605C518.071 -0.887343 411.387 -16.5912 387.062 25.6669C371.87 52.0276 392.284 94.7782 435.878 138.138L450.767 123.933L451.819 122.878C414.885 88.0958 396.433 55.8761 407.02 37.4642C424.718 6.72363 516.576 26.4228 612.141 81.3646C642.725 98.9783 669.989 118.056 692.389 136.899L700.887 129.592L709.95 120.907C686.33 100.04 657.686 79.4247 625.318 60.7605Z" fill="url(#paint2_linear_979_3)"/>
<path d="M660.215 115.691C660.296 99.3225 660.052 83.0351 659.566 66.6668C659.485 63.2635 655.271 61.3997 652.758 63.8307C645.302 71.2045 636.387 79.8749 626.175 83.3593C625.608 82.2248 624.473 81.3335 622.69 81.4955C617.584 81.7386 612.397 81.6576 607.291 81.4145C606.724 81.1714 606.156 81.0093 605.427 81.0904C604.941 81.1714 604.535 81.1714 604.049 81.2524C601.699 81.0904 599.429 80.9283 597.079 80.7663C596.107 80.6042 595.053 80.5232 594.08 80.5232C583.139 79.6318 572.279 78.4974 561.338 78.5784C551.45 78.6594 541.886 81.0093 532.08 81.4145C529.405 81.4955 527.379 81.3335 525.353 79.5508C523.489 77.9302 521.868 76.0664 520.085 74.3648C517.005 71.3666 514.006 68.2874 510.926 65.2892C511.007 64.803 511.007 64.3169 511.089 63.8307C511.494 59.455 505.739 58.8877 503.794 61.9669C501.768 62.9393 500.39 65.2892 502.011 67.3961C502.254 67.7202 502.498 67.9633 502.66 68.2874C500.066 94.7847 498.202 121.282 500.796 147.941C501.93 159.529 503.146 171.441 507.766 182.218C512.385 192.833 520.571 200.45 531.35 204.663C543.426 209.444 556.718 209.363 569.523 209.606C583.382 209.849 597.646 211.065 611.505 210.012C624.068 209.039 634.198 203.205 642.141 193.562C642.465 193.157 642.79 192.752 643.114 192.347C644.329 192.023 645.302 191.212 645.707 189.673C645.788 189.43 645.788 189.186 645.869 188.943C652.272 180.678 657.135 172.089 658.756 161.231C660.863 146.321 660.133 130.763 660.215 115.691Z" fill="white"/>
<path d="M499.337 171.686C498.689 169.417 498.527 167.148 498.122 164.879C497.878 163.583 497.797 162.205 497.716 160.909C497.716 160.179 497.473 159.936 496.825 159.693C493.34 158.478 489.936 157.262 486.532 156.047C486.289 155.966 486.127 155.885 485.883 155.804C484.181 155.155 483.371 153.616 483.695 151.671C483.938 150.131 485.397 148.754 486.937 148.592C487.585 148.511 488.153 148.673 488.72 148.916C491.314 149.807 493.907 150.78 496.501 151.671C496.825 151.752 497.068 151.914 497.473 151.914C497.716 151.671 497.635 151.347 497.635 151.104C497.635 150.78 497.635 150.455 497.635 150.131C497.635 118.934 497.635 87.7371 497.635 56.5399C497.635 56.2968 497.635 56.0537 497.635 55.8106C497.554 53.5418 500.067 52.0022 502.174 53.2176C502.66 53.4607 503.065 53.8659 503.471 54.19C513.196 61.888 523.003 69.586 532.728 77.284C533.377 77.7702 533.944 78.0133 534.755 77.7702C537.753 77.2029 540.752 76.6357 543.832 76.1495C546.425 75.7444 549.019 75.5013 551.531 75.0961C555.989 74.4479 560.446 74.1238 564.904 73.8807C572.036 73.3945 579.249 73.2324 586.462 73.4755C587.759 73.5565 589.056 73.5565 590.353 73.5565C593.27 73.5565 596.188 73.8807 599.106 74.1237C601.213 74.2858 603.32 74.4479 605.508 74.691C608.588 75.0151 611.668 75.5013 614.748 75.8254C618.476 76.3116 622.204 77.1219 625.932 77.7702C626.743 77.9322 627.229 77.6892 627.796 77.284C637.198 69.8291 646.68 62.3742 656.082 55.0003C656.649 54.5141 657.216 54.109 657.784 53.6228C658.837 52.8125 660.053 52.4883 661.35 53.1366C662.565 53.7848 662.971 54.8383 662.971 56.2158C662.971 70.5584 662.971 84.982 662.971 99.3246C662.971 116.422 662.971 133.52 662.971 150.618C662.971 151.104 662.889 151.59 663.052 152.157C663.457 152.319 663.862 152.076 664.186 151.914C667.023 150.942 669.859 149.888 672.696 148.916C674.641 148.268 676.343 148.997 677.235 150.78C678.207 152.724 677.316 155.074 675.29 155.804C671.642 157.1 667.914 158.397 664.267 159.693C663.862 159.855 663.376 159.936 662.971 160.341C662.727 164.069 662.16 167.877 661.431 171.605C661.917 171.848 662.484 171.848 662.971 171.848C665.564 171.848 668.076 171.929 670.67 171.929C671.318 171.929 671.886 171.929 672.534 171.929C674.479 172.01 675.371 172.496 675.938 174.117C676.505 175.737 676.1 177.763 674.965 178.816C674.479 179.303 673.831 179.384 673.182 179.384C669.13 179.303 665.078 179.222 661.025 179.141C660.377 179.141 659.81 179.141 659.323 179.141C658.999 179.303 658.999 179.546 658.918 179.708C656.244 186.433 652.353 192.43 647.247 197.535C643.276 201.586 638.737 204.909 633.713 207.583C628.282 210.419 622.609 212.445 616.612 213.66C613.856 214.227 611.101 214.47 608.264 214.47C589.947 214.389 571.55 214.389 553.233 214.47C549.262 214.47 545.372 213.984 541.563 213.093C535.97 211.796 530.621 209.689 525.596 206.853C520.571 204.017 516.114 200.452 512.224 196.157C509.306 192.916 506.794 189.432 504.686 185.623C503.714 183.84 502.822 181.977 502.012 180.032C501.931 179.789 501.85 179.546 501.688 179.384C501.282 179.141 500.796 179.222 500.391 179.222C496.501 179.303 492.691 179.384 488.801 179.384C487.91 179.384 487.018 179.465 486.289 178.654C485.478 177.763 485.154 176.71 485.154 175.575C485.154 175.17 485.235 174.765 485.316 174.441C485.721 172.82 486.775 171.929 488.558 171.929C491.557 171.848 494.637 171.848 497.635 171.848C498.122 171.848 498.689 171.929 499.337 171.686ZM509.873 179.303C510.522 180.923 511.332 182.382 512.224 183.84C515.628 189.594 520.166 194.293 525.596 198.102C530.864 201.829 536.7 204.341 543.021 205.881C546.263 206.691 549.505 207.097 552.909 207.097C571.712 207.015 590.434 207.097 609.237 207.097C611.425 207.097 613.532 206.772 615.639 206.367C621.069 205.233 626.175 203.369 630.957 200.614C633.713 199.074 636.306 197.211 638.738 195.185C641.817 192.592 644.492 189.594 646.761 186.271C648.139 184.246 649.436 182.139 650.408 179.87C650.489 179.627 650.732 179.465 650.489 179.141C650.084 178.979 649.679 178.979 649.355 178.979C647.734 178.979 646.113 178.898 644.492 178.979C643.357 178.979 642.547 178.411 642.06 177.52C641.493 176.548 641.412 175.575 641.574 174.441C641.898 172.496 643.033 171.443 645.059 171.443C647.572 171.443 650.084 171.524 652.678 171.605C653.569 171.605 653.569 171.605 653.812 170.794C654.461 168.525 654.785 166.176 655.109 163.745C655.109 163.502 655.19 163.258 655.028 163.015C654.623 163.015 654.379 163.177 653.974 163.258C650.813 164.393 647.572 165.527 644.411 166.662C641.331 167.715 639.305 164.879 639.629 162.61C639.791 161.152 640.602 160.179 642.06 159.693C646.113 158.316 650.165 156.857 654.217 155.398C654.623 155.236 655.109 155.155 655.514 154.831C655.514 125.012 655.514 95.1109 655.514 65.2103C654.947 65.2913 654.704 65.6155 654.298 65.8585C646.113 72.179 638.008 78.4995 629.822 84.901C628.931 85.5492 628.039 85.7923 626.986 85.5492C623.177 84.8199 619.367 84.0906 615.639 83.4424C613.046 83.0372 610.533 82.7131 607.94 82.389C605.67 82.1459 603.401 81.7407 601.132 81.6597C600.889 81.6597 600.565 81.5786 600.24 81.8217C600.159 82.2269 600.159 82.6321 600.159 83.0372C600.159 89.0335 600.159 95.0299 600.159 101.026C600.159 101.512 600.159 101.999 600.078 102.566C599.754 104.186 598.457 105.24 596.755 105.321C594.972 105.402 593.513 104.43 593.027 102.809C592.865 102.323 592.865 101.837 592.865 101.269C592.865 94.9488 592.865 88.6284 592.865 82.3079C592.865 81.9028 592.946 81.4166 592.622 81.0114C589.785 80.8494 587.03 80.6873 584.031 80.8494C584.031 81.4166 584.031 81.8217 584.031 82.2269C584.031 86.2785 584.031 90.3301 584.031 94.3816C584.031 98.1901 584.031 101.999 584.031 105.888C584.031 106.942 583.869 107.914 583.139 108.724C582.167 109.778 580.951 110.021 579.573 109.94C578.115 109.778 576.899 108.724 576.575 107.347C576.413 106.779 576.413 106.212 576.413 105.645C576.413 97.866 576.413 90.087 576.413 82.389C576.413 81.9028 576.494 81.4976 576.332 81.0114C574.792 80.7683 568.632 80.9304 567.741 81.3356C567.579 81.7407 567.66 82.2269 567.66 82.6321C567.66 88.8715 567.66 95.1109 567.66 101.35C567.66 101.918 567.66 102.404 567.497 102.971C567.011 104.592 565.552 105.564 563.769 105.402C562.148 105.321 560.852 104.186 560.527 102.566C560.446 102.08 560.446 101.593 560.446 101.026C560.446 95.0299 560.446 89.0335 560.446 83.0372C560.446 82.6321 560.527 82.1459 560.284 81.8217C560.041 81.6597 559.798 81.7407 559.555 81.7407C557.934 81.8218 556.394 81.9838 554.854 82.1459C551.693 82.551 548.533 82.8752 545.453 83.3614C541.481 84.0096 537.51 84.6579 533.539 85.5492C532.566 85.7113 531.756 85.5492 531.026 84.982C528.676 83.1183 526.326 81.2545 523.975 79.4718C518.14 74.9341 512.305 70.3963 506.469 65.8585C506.145 65.6155 505.821 65.2103 505.335 65.2913C505.335 95.1109 505.335 124.931 505.335 154.75C506.631 155.236 507.928 155.641 509.144 156.128C512.548 157.343 516.033 158.559 519.437 159.774C520.571 160.179 521.382 160.909 521.706 162.043C522.111 163.583 521.706 164.879 520.571 166.014C519.437 167.067 518.14 167.148 516.762 166.662C513.439 165.446 510.116 164.312 506.793 163.177C506.469 163.015 506.064 162.853 505.578 162.934C505.902 165.932 506.307 168.85 507.199 171.605C507.685 171.767 508.09 171.767 508.414 171.767C511.17 171.686 513.926 171.686 516.681 171.605C517.897 171.605 518.707 172.172 519.275 173.225C519.842 174.279 519.923 175.332 519.68 176.467C519.356 178.168 518.302 179.06 516.519 179.141C514.736 179.141 512.872 179.141 511.089 179.222C510.684 179.06 510.279 178.979 509.873 179.303Z" fill="black"/>
<path d="M541.563 142.191C547.56 142.191 552.261 146.972 552.261 152.968C552.261 158.883 547.398 163.664 541.482 163.664C535.565 163.664 530.865 158.883 530.865 152.968C530.865 146.891 535.565 142.191 541.563 142.191Z" fill="black"/>
<path d="M618.8 163.745C612.883 163.826 608.021 159.127 607.939 153.13C607.858 147.296 612.64 142.434 618.476 142.272C624.392 142.191 629.336 146.891 629.417 152.806C629.417 158.965 624.716 163.664 618.8 163.745Z" fill="black"/>
<path d="M580.465 159.855C582.897 159.855 585.409 159.855 587.84 159.855C588.489 159.855 589.056 159.936 589.623 160.26C590.92 160.908 591.325 162.691 590.353 163.745C587.435 167.067 584.599 170.47 581.681 173.873C580.87 174.846 580.303 174.846 579.493 173.873C576.656 170.551 573.819 167.229 570.902 163.988C570.172 163.177 569.929 162.286 570.415 161.314C570.902 160.341 571.712 159.936 572.766 159.936C575.359 159.855 577.872 159.855 580.465 159.855Z" fill="black"/>
<defs>
<linearGradient id="paint0_linear_979_3" x1="383.204" y1="137.54" x2="779.605" y2="136.878" gradientUnits="userSpaceOnUse">
<stop stop-color="#F11712"/>
<stop offset="0.515625" stop-color="#5614B0"/>
<stop offset="1" stop-color="#F11712"/>
</linearGradient>
<linearGradient id="paint1_linear_979_3" x1="387.57" y1="152.752" x2="774.818" y2="157.888" gradientUnits="userSpaceOnUse">
<stop stop-color="#03001E"/>
<stop offset="0.192708" stop-color="#7303C0"/>
<stop offset="0.390625" stop-color="#EC38BC"/>
<stop offset="0.536458" stop-color="#FDEFF9"/>
<stop offset="0.651042" stop-color="#FCF3BB"/>
<stop offset="0.994792" stop-color="#F7FF00"/>
</linearGradient>
<linearGradient id="paint2_linear_979_3" x1="387.57" y1="152.752" x2="774.818" y2="157.888" gradientUnits="userSpaceOnUse">
<stop stop-color="#5614B0"/>
<stop offset="0.526042" stop-color="#F11712"/>
<stop offset="1" stop-color="#5614B0"/>
</linearGradient>
</defs>
</svg>
