<svg width="1162" height="586" viewBox="0 0 1162 586" fill="none" xmlns="http://www.w3.org/2000/svg">
<ellipse cx="581" cy="360" rx="581" ry="226" fill="white"/>
<path d="M715.318 121.622L714.097 120.555L713.617 121.104L714.838 122.171L715.318 121.622Z" fill="#6B1DA0"/>
<path d="M712.982 120.386L696.734 136.686L698.456 138.402L714.704 122.102L712.982 120.386Z" fill="#6B1DA0"/>
<path d="M778.836 23.1574C753.965 -18.8564 647.498 -1.82386 541.027 61.0726C434.475 124.131 368.321 209.163 393.191 251.177C418.062 293.191 524.529 276.158 631 213.262C737.471 150.284 803.625 65.1714 778.836 23.1574ZM619.536 191.645C524.562 247.797 432.933 268.532 414.89 238.013C396.846 207.495 459.216 137.217 554.109 81.0655C649.083 24.9139 740.631 4.17885 758.755 34.6975C776.799 65.2163 714.429 135.494 619.536 191.645Z" fill="url(#paint0_linear_897_5)"/>
<path d="M731.126 136.518L714.458 152.509C750.581 186.806 768.383 218.46 757.958 236.709C740.26 267.45 648.402 247.751 552.837 192.809C522.739 175.518 495.882 156.764 473.725 138.245L465.227 145.795L456.974 153.669C480.675 174.697 509.4 195.394 541.85 214.058C649.097 275.705 755.781 291.409 780.105 249.151C795.216 222.629 774.802 179.878 731.126 136.518ZM629.935 60.7605C522.688 -0.887343 416.004 -16.5912 391.679 25.6669C376.487 52.0276 396.901 94.7782 440.495 138.138L455.384 123.933L456.436 122.878C419.502 88.0958 401.05 55.8761 411.637 37.4642C429.334 6.72363 521.193 26.4228 616.758 81.3646C647.342 98.9783 674.606 118.056 697.006 136.899L705.504 129.592L714.567 120.907C690.947 100.04 662.303 79.4247 629.935 60.7605Z" fill="url(#paint1_linear_897_5)"/>
<path d="M731.126 136.518L714.458 152.509C750.581 186.806 768.383 218.46 757.958 236.709C740.26 267.45 648.402 247.751 552.837 192.809C522.739 175.518 495.882 156.764 473.725 138.245L465.227 145.795L456.974 153.669C480.675 174.697 509.4 195.394 541.85 214.058C649.097 275.705 755.781 291.409 780.105 249.151C795.216 222.629 774.802 179.878 731.126 136.518ZM629.935 60.7605C522.688 -0.887343 416.004 -16.5912 391.679 25.6669C376.487 52.0276 396.901 94.7782 440.495 138.138L455.384 123.933L456.436 122.878C419.502 88.0958 401.05 55.8761 411.637 37.4642C429.334 6.72363 521.193 26.4228 616.758 81.3646C647.342 98.9783 674.606 118.056 697.006 136.899L705.504 129.592L714.567 120.907C690.947 100.04 662.303 79.4247 629.935 60.7605Z" fill="url(#paint2_linear_897_5)"/>
<path d="M664.831 115.691C664.913 99.3225 664.669 83.0351 664.183 66.6668C664.102 63.2635 659.888 61.3997 657.375 63.8307C649.919 71.2045 641.004 79.8749 630.792 83.3593C630.225 82.2248 629.09 81.3335 627.307 81.4955C622.201 81.7386 617.014 81.6576 611.908 81.4145C611.341 81.1714 610.773 81.0093 610.044 81.0904C609.558 81.1714 609.152 81.1714 608.666 81.2524C606.316 81.0904 604.046 80.9283 601.696 80.7663C600.723 80.6042 599.67 80.5232 598.697 80.5232C587.756 79.6318 576.896 78.4974 565.954 78.5784C556.067 78.6594 546.503 81.0093 536.697 81.4145C534.022 81.4955 531.996 81.3335 529.97 79.5508C528.106 77.9302 526.485 76.0664 524.702 74.3648C521.622 71.3666 518.623 68.2874 515.543 65.2892C515.624 64.803 515.624 64.3169 515.705 63.8307C516.111 59.455 510.356 58.8877 508.411 61.9669C506.385 62.9393 505.007 65.2892 506.628 67.3961C506.871 67.7202 507.115 67.9633 507.277 68.2874C504.683 94.7847 502.819 121.282 505.413 147.941C506.547 159.529 507.763 171.441 512.383 182.218C517.002 192.833 525.188 200.45 535.967 204.663C548.043 209.444 561.335 209.363 574.14 209.606C587.999 209.849 602.263 211.065 616.122 210.012C628.685 209.039 638.815 203.205 646.758 193.562C647.082 193.157 647.406 192.752 647.731 192.347C648.946 192.023 649.919 191.212 650.324 189.673C650.405 189.43 650.405 189.186 650.486 188.943C656.889 180.678 661.752 172.089 663.373 161.231C665.48 146.321 664.75 130.763 664.831 115.691Z" fill="white"/>
<path d="M503.954 171.686C503.306 169.417 503.144 167.148 502.738 164.879C502.495 163.583 502.414 162.205 502.333 160.909C502.333 160.179 502.09 159.936 501.442 159.693C497.957 158.478 494.553 157.262 491.149 156.047C490.906 155.966 490.744 155.885 490.5 155.804C488.798 155.155 487.988 153.616 488.312 151.671C488.555 150.131 490.014 148.754 491.554 148.592C492.202 148.511 492.77 148.673 493.337 148.916C495.931 149.807 498.524 150.78 501.118 151.671C501.442 151.752 501.685 151.914 502.09 151.914C502.333 151.671 502.252 151.347 502.252 151.104C502.252 150.78 502.252 150.455 502.252 150.131C502.252 118.934 502.252 87.7371 502.252 56.5399C502.252 56.2968 502.252 56.0537 502.252 55.8106C502.171 53.5418 504.684 52.0022 506.791 53.2176C507.277 53.4607 507.682 53.8659 508.088 54.19C517.813 61.888 527.62 69.586 537.345 77.284C537.994 77.7702 538.561 78.0133 539.372 77.7702C542.37 77.2029 545.369 76.6357 548.449 76.1495C551.042 75.7444 553.636 75.5013 556.148 75.0961C560.606 74.4479 565.063 74.1238 569.521 73.8807C576.653 73.3945 583.866 73.2324 591.079 73.4755C592.376 73.5565 593.673 73.5565 594.97 73.5565C597.887 73.5565 600.805 73.8807 603.723 74.1237C605.83 74.2858 607.937 74.4479 610.125 74.691C613.205 75.0151 616.285 75.5013 619.365 75.8254C623.093 76.3116 626.821 77.1219 630.549 77.7702C631.36 77.9322 631.846 77.6892 632.413 77.284C641.815 69.8291 651.297 62.3742 660.698 55.0003C661.266 54.5141 661.833 54.109 662.4 53.6228C663.454 52.8125 664.67 52.4883 665.967 53.1366C667.182 53.7848 667.587 54.8383 667.587 56.2158C667.587 70.5584 667.587 84.982 667.587 99.3246C667.587 116.422 667.587 133.52 667.587 150.618C667.587 151.104 667.506 151.59 667.668 152.157C668.074 152.319 668.479 152.076 668.803 151.914C671.64 150.942 674.476 149.888 677.313 148.916C679.258 148.268 680.96 148.997 681.852 150.78C682.824 152.724 681.933 155.074 679.907 155.804C676.259 157.1 672.531 158.397 668.884 159.693C668.479 159.855 667.993 159.936 667.587 160.341C667.344 164.069 666.777 167.877 666.048 171.605C666.534 171.848 667.101 171.848 667.587 171.848C670.181 171.848 672.693 171.929 675.287 171.929C675.935 171.929 676.503 171.929 677.151 171.929C679.096 172.01 679.988 172.496 680.555 174.117C681.122 175.737 680.717 177.763 679.582 178.816C679.096 179.303 678.448 179.384 677.799 179.384C673.747 179.303 669.695 179.222 665.642 179.141C664.994 179.141 664.427 179.141 663.94 179.141C663.616 179.303 663.616 179.546 663.535 179.708C660.861 186.433 656.97 192.43 651.864 197.535C647.893 201.586 643.354 204.909 638.33 207.583C632.899 210.419 627.226 212.445 621.229 213.66C618.473 214.227 615.718 214.47 612.881 214.47C594.564 214.389 576.167 214.389 557.85 214.47C553.879 214.47 549.989 213.984 546.179 213.093C540.587 211.796 535.238 209.689 530.213 206.853C525.188 204.017 520.731 200.452 516.841 196.157C513.923 192.916 511.41 189.432 509.303 185.623C508.331 183.84 507.439 181.977 506.629 180.032C506.548 179.789 506.467 179.546 506.305 179.384C505.899 179.141 505.413 179.222 505.008 179.222C501.118 179.303 497.308 179.384 493.418 179.384C492.527 179.384 491.635 179.465 490.906 178.654C490.095 177.763 489.771 176.71 489.771 175.575C489.771 175.17 489.852 174.765 489.933 174.441C490.338 172.82 491.392 171.929 493.175 171.929C496.174 171.848 499.253 171.848 502.252 171.848C502.738 171.848 503.306 171.929 503.954 171.686ZM514.49 179.303C515.139 180.923 515.949 182.382 516.841 183.84C520.245 189.594 524.783 194.293 530.213 198.102C535.481 201.829 541.317 204.341 547.638 205.881C550.88 206.691 554.122 207.097 557.526 207.097C576.329 207.015 595.051 207.097 613.853 207.097C616.042 207.097 618.149 206.772 620.256 206.367C625.686 205.233 630.792 203.369 635.574 200.614C638.33 199.074 640.923 197.211 643.354 195.185C646.434 192.592 649.109 189.594 651.378 186.271C652.756 184.246 654.053 182.139 655.025 179.87C655.106 179.627 655.349 179.465 655.106 179.141C654.701 178.979 654.296 178.979 653.972 178.979C652.351 178.979 650.73 178.898 649.109 178.979C647.974 178.979 647.164 178.411 646.677 177.52C646.11 176.548 646.029 175.575 646.191 174.441C646.515 172.496 647.65 171.443 649.676 171.443C652.189 171.443 654.701 171.524 657.294 171.605C658.186 171.605 658.186 171.605 658.429 170.794C659.078 168.525 659.402 166.176 659.726 163.745C659.726 163.502 659.807 163.258 659.645 163.015C659.24 163.015 658.996 163.177 658.591 163.258C655.43 164.393 652.189 165.527 649.028 166.662C645.948 167.715 643.922 164.879 644.246 162.61C644.408 161.152 645.219 160.179 646.677 159.693C650.73 158.316 654.782 156.857 658.834 155.398C659.24 155.236 659.726 155.155 660.131 154.831C660.131 125.012 660.131 95.1109 660.131 65.2103C659.564 65.2913 659.321 65.6155 658.915 65.8585C650.73 72.179 642.625 78.4995 634.439 84.901C633.548 85.5492 632.656 85.7923 631.603 85.5492C627.794 84.8199 623.984 84.0906 620.256 83.4424C617.663 83.0372 615.15 82.7131 612.557 82.389C610.287 82.1459 608.018 81.7407 605.749 81.6597C605.506 81.6597 605.181 81.5786 604.857 81.8217C604.776 82.2269 604.776 82.6321 604.776 83.0372C604.776 89.0335 604.776 95.0299 604.776 101.026C604.776 101.512 604.776 101.999 604.695 102.566C604.371 104.186 603.074 105.24 601.372 105.321C599.589 105.402 598.13 104.43 597.644 102.809C597.482 102.323 597.482 101.837 597.482 101.269C597.482 94.9488 597.482 88.6284 597.482 82.3079C597.482 81.9028 597.563 81.4166 597.239 81.0114C594.402 80.8494 591.647 80.6873 588.648 80.8494C588.648 81.4166 588.648 81.8217 588.648 82.2269C588.648 86.2785 588.648 90.3301 588.648 94.3816C588.648 98.1901 588.648 101.999 588.648 105.888C588.648 106.942 588.486 107.914 587.756 108.724C586.784 109.778 585.568 110.021 584.19 109.94C582.732 109.778 581.516 108.724 581.192 107.347C581.03 106.779 581.03 106.212 581.03 105.645C581.03 97.866 581.03 90.087 581.03 82.389C581.03 81.9028 581.111 81.4976 580.949 81.0114C579.409 80.7683 573.249 80.9304 572.358 81.3356C572.195 81.7407 572.277 82.2269 572.277 82.6321C572.277 88.8715 572.277 95.1109 572.277 101.35C572.277 101.918 572.277 102.404 572.114 102.971C571.628 104.592 570.169 105.564 568.386 105.402C566.765 105.321 565.469 104.186 565.144 102.566C565.063 102.08 565.063 101.593 565.063 101.026C565.063 95.0299 565.063 89.0335 565.063 83.0372C565.063 82.6321 565.144 82.1459 564.901 81.8217C564.658 81.6597 564.415 81.7407 564.172 81.7407C562.551 81.8218 561.011 81.9838 559.471 82.1459C556.31 82.551 553.149 82.8752 550.07 83.3614C546.098 84.0096 542.127 84.6579 538.156 85.5492C537.183 85.7113 536.373 85.5492 535.643 84.982C533.293 83.1183 530.943 81.2545 528.592 79.4718C522.757 74.9341 516.922 70.3963 511.086 65.8585C510.762 65.6155 510.438 65.2103 509.952 65.2913C509.952 95.1109 509.952 124.931 509.952 154.75C511.248 155.236 512.545 155.641 513.761 156.128C517.165 157.343 520.65 158.559 524.054 159.774C525.188 160.179 525.999 160.909 526.323 162.043C526.728 163.583 526.323 164.879 525.188 166.014C524.054 167.067 522.757 167.148 521.379 166.662C518.056 165.446 514.733 164.312 511.41 163.177C511.086 163.015 510.681 162.853 510.195 162.934C510.519 165.932 510.924 168.85 511.816 171.605C512.302 171.767 512.707 171.767 513.031 171.767C515.787 171.686 518.543 171.686 521.298 171.605C522.514 171.605 523.324 172.172 523.892 173.225C524.459 174.279 524.54 175.332 524.297 176.467C523.973 178.168 522.919 179.06 521.136 179.141C519.353 179.141 517.489 179.141 515.706 179.222C515.301 179.06 514.895 178.979 514.49 179.303Z" fill="black"/>
<path d="M546.18 142.191C552.177 142.191 556.878 146.972 556.878 152.968C556.878 158.883 552.015 163.664 546.099 163.664C540.182 163.664 535.481 158.883 535.481 152.968C535.481 146.891 540.182 142.191 546.18 142.191Z" fill="black"/>
<path d="M623.417 163.745C617.5 163.826 612.637 159.127 612.556 153.13C612.475 147.296 617.257 142.434 623.093 142.272C629.009 142.191 633.953 146.891 634.034 152.806C634.034 158.965 629.333 163.664 623.417 163.745Z" fill="black"/>
<path d="M585.082 159.855C587.514 159.855 590.026 159.855 592.457 159.855C593.106 159.855 593.673 159.936 594.24 160.26C595.537 160.908 595.942 162.691 594.97 163.745C592.052 167.067 589.215 170.47 586.298 173.873C585.487 174.846 584.92 174.846 584.11 173.873C581.273 170.551 578.436 167.229 575.519 163.988C574.789 163.177 574.546 162.286 575.032 161.314C575.519 160.341 576.329 159.936 577.383 159.936C579.976 159.855 582.489 159.855 585.082 159.855Z" fill="black"/>
<defs>
<linearGradient id="paint0_linear_897_5" x1="387.821" y1="137.54" x2="784.222" y2="136.878" gradientUnits="userSpaceOnUse">
<stop stop-color="#F11712"/>
<stop offset="0.515625" stop-color="#5614B0"/>
<stop offset="1" stop-color="#F11712"/>
</linearGradient>
<linearGradient id="paint1_linear_897_5" x1="392.187" y1="152.752" x2="779.435" y2="157.888" gradientUnits="userSpaceOnUse">
<stop stop-color="#03001E"/>
<stop offset="0.192708" stop-color="#7303C0"/>
<stop offset="0.390625" stop-color="#EC38BC"/>
<stop offset="0.536458" stop-color="#FDEFF9"/>
<stop offset="0.651042" stop-color="#FCF3BB"/>
<stop offset="0.994792" stop-color="#F7FF00"/>
</linearGradient>
<linearGradient id="paint2_linear_897_5" x1="392.187" y1="152.752" x2="779.435" y2="157.888" gradientUnits="userSpaceOnUse">
<stop stop-color="#5614B0"/>
<stop offset="0.526042" stop-color="#F11712"/>
<stop offset="1" stop-color="#5614B0"/>
</linearGradient>
</defs>
</svg>
