<svg fill="#000000" xmlns="http://www.w3.org/2000/svg"  viewBox="0 0 48 48" width="96px" height="96px"><path d="M 7.5 6 C 5.0324991 6 3 8.0324991 3 10.5 L 3 35.5 C 3 39.071938 5.9280619 42 9.5 42 L 38.5 42 C 42.071938 42 45 39.071938 45 35.5 L 45 20.5 C 45 18.032499 42.967501 16 40.5 16 L 39 16 L 39 10.5 C 39 8.0324991 36.967501 6 34.5 6 L 7.5 6 z M 7.5 9 L 34.5 9 C 35.346499 9 36 9.6535009 36 10.5 L 36 17.253906 A 1.50015 1.50015 0 0 0 36 17.740234 L 36 34.5 A 1.50015 1.50015 0 1 0 39 34.5 L 39 19 L 40.5 19 C 41.346499 19 42 19.653501 42 20.5 L 42 35.5 C 42 37.450062 40.450062 39 38.5 39 L 9.5 39 C 7.5499381 39 6 37.450062 6 35.5 L 6 10.5 C 6 9.6535009 6.6535009 9 7.5 9 z M 10.5 15 A 1.50015 1.50015 0 1 0 10.5 18 L 31.5 18 A 1.50015 1.50015 0 1 0 31.5 15 L 10.5 15 z M 10.5 23 A 1.50015 1.50015 0 0 0 9 24.5 L 9 31.5 A 1.50015 1.50015 0 0 0 10.5 33 L 17.5 33 A 1.50015 1.50015 0 0 0 19 31.5 L 19 24.5 A 1.50015 1.50015 0 0 0 17.5 23 L 10.5 23 z M 23.5 23 A 1.50015 1.50015 0 1 0 23.5 26 L 31.5 26 A 1.50015 1.50015 0 1 0 31.5 23 L 23.5 23 z M 12 26 L 16 26 L 16 30 L 12 30 L 12 26 z M 23.5 30 A 1.50015 1.50015 0 1 0 23.5 33 L 31.5 33 A 1.50015 1.50015 0 1 0 31.5 30 L 23.5 30 z"/></svg>
