<svg width="100" height="100" viewBox="0 0 100 100" fill="none" xmlns="http://www.w3.org/2000/svg">
<path d="M32.6357 99.7088C26.0676 99.7088 20.2968 96.2953 17 91.1463H69.7399C81.5625 91.1463 91.1462 81.562 91.1462 69.7401V17C96.2957 20.2968 99.7087 26.0676 99.7087 32.6357V69.7401C99.7087 86.2908 86.2912 99.7088 69.7399 99.7088H32.6357Z" fill="black"/>
<path d="M0 18.5521C0 8.30602 8.30602 0 18.5521 0H67.0729C77.3188 0 85.625 8.30602 85.625 18.5521V67.0729C85.625 77.3188 77.3188 85.625 67.0729 85.625H18.5521C8.30602 85.625 0 77.3188 0 67.0729V18.5521ZM18.5521 8.5625C13.035 8.5625 8.5625 13.035 8.5625 18.5521V67.0729C8.5625 72.59 13.035 77.0625 18.5521 77.0625H67.0729C72.59 77.0625 77.0625 72.59 77.0625 67.0729V18.5521C77.0625 13.035 72.59 8.5625 67.0729 8.5625H18.5521Z" fill="black"/>
<rect x="16" y="17" width="54" height="52" rx="7.53969" stroke="black" stroke-width="6"/>
<rect x="25.2698" y="42.2698" width="14.4603" height="14.4603" rx="2.26984" stroke="black" stroke-width="4.53969"/>
<rect x="45" y="53" width="18" height="6" rx="2.72381" fill="black"/>
<rect x="45" y="40" width="18" height="6" rx="2.72381" fill="black"/>
<rect x="23" y="28" width="40" height="6" rx="2.72381" fill="black"/>
</svg>
