<svg width="34" height="34" viewBox="0 0 34 34" fill="none" xmlns="http://www.w3.org/2000/svg">
<g clip-path="url(#clip0_208_10)">
<path d="M29.0209 4.97914C25.8099 1.76835 21.5409 0 17 0C12.4591 0 8.19007 1.76835 4.97921 4.97914C1.76835 8.19007 0 12.4591 0 17C0 21.5409 1.76835 25.8099 4.97921 29.0208C8.19007 32.2316 12.4591 34 17 34H20.1897C22.5283 34 24.4309 32.0974 24.4309 29.7588C24.4309 27.4202 22.5283 25.5176 20.1897 25.5175C19.0108 25.5175 18.0515 24.5584 18.0515 23.3794C18.0515 22.2005 19.0108 21.2412 20.1897 21.2412H29.7588C32.0973 21.2412 34 19.3386 34 17C34 12.4591 32.2317 8.19007 29.0209 4.97914ZM29.7588 19.1381H20.1897C17.8511 19.1381 15.9485 21.0407 15.9485 23.3794C15.9485 25.718 17.8511 27.6206 20.1896 27.6206C21.3686 27.6206 22.3278 28.5798 22.3278 29.7588C22.3278 30.9378 21.3686 31.8969 20.1897 31.8969H17C8.78581 31.8969 2.10309 25.2142 2.10309 17C2.10309 8.78581 8.78581 2.10309 17 2.10309C25.2142 2.10309 31.8969 8.78581 31.8969 17C31.8969 18.179 30.9377 19.1381 29.7588 19.1381Z" fill="black"/>
<path d="M6.92724 14.3154C5.57432 14.3154 4.47363 15.4161 4.47363 16.769C4.47363 18.122 5.57432 19.2226 6.92724 19.2226C8.28016 19.2226 9.38085 18.122 9.38085 16.769C9.38085 15.4161 8.28016 14.3154 6.92724 14.3154Z" fill="black"/>
<path d="M21.5762 4.80263C21.2036 4.58741 20.7797 4.47363 20.3508 4.47363C19.4762 4.47363 18.6615 4.94381 18.2246 5.70065C17.8969 6.2682 17.8098 6.92948 17.9794 7.56259C18.1491 8.19562 18.5551 8.72468 19.1227 9.05242C19.4954 9.26763 19.9191 9.38134 20.3481 9.38134C21.2227 9.38134 22.0374 8.91116 22.4743 8.15433C22.802 7.58677 22.8891 6.92549 22.7195 6.29246C22.5498 5.65943 22.1438 5.13036 21.5762 4.80263Z" fill="black"/>
<path d="M26.9446 11.9608C26.572 11.7456 26.1481 11.6318 25.7192 11.6318C24.8446 11.6318 24.0299 12.102 23.593 12.8588C23.2653 13.4264 23.1782 14.0877 23.3479 14.7208C23.5175 15.3538 23.9235 15.8829 24.4911 16.2106C24.8638 16.4258 25.2875 16.5395 25.7165 16.5395C26.5911 16.5395 27.4058 16.0694 27.8427 15.3125C28.1705 14.745 28.2575 14.0837 28.0879 13.4507C27.9182 12.8176 27.5123 12.2886 26.9446 11.9608Z" fill="black"/>
<path d="M10.5061 6.2627C10.0771 6.2627 9.65328 6.37647 9.28062 6.59169C8.71306 6.91935 8.30702 7.44849 8.13738 8.08152C7.9678 8.71455 8.05479 9.37576 8.38253 9.94332C8.81948 10.7002 9.63422 11.1704 10.5088 11.1704C10.9377 11.1704 11.3615 11.0566 11.7342 10.8415C12.3018 10.5138 12.7078 9.98468 12.8775 9.35165C13.047 8.71862 12.96 8.0574 12.6323 7.48985C12.1954 6.73288 11.3807 6.2627 10.5061 6.2627Z" fill="black"/>
</g>
<defs>
<clipPath id="clip0_208_10">
<rect width="34" height="34" fill="white"/>
</clipPath>
</defs>
</svg>
