<svg width="22" height="22" viewBox="0 0 22 22" fill="none" xmlns="http://www.w3.org/2000/svg">
<path d="M7.22575 17.1649L3.90427 13.8392L15.6132 2.11299L18.9347 5.43877L7.22575 17.1649ZM3.10075 15.5192L5.54567 17.9685L2.14255 18.9267L3.10075 15.5192ZM20.7953 4.82002L16.232 0.248145C15.9011 -0.0827149 15.3211 -0.0827149 14.9902 0.248145L2.04372 13.2161C1.9363 13.3235 1.85896 13.4524 1.82028 13.5985L0.0327849 19.9579C-0.0531526 20.263 0.0327849 20.5939 0.256222 20.8173C0.4238 20.9849 0.758957 21.1052 1.1156 21.0407L7.46638 19.2489C7.61247 19.2103 7.74138 19.1329 7.8488 19.0255L20.7953 6.06182C21.139 5.71807 21.139 5.16377 20.7953 4.82002Z" fill="black"/>
</svg>
