<svg width="405" height="405" viewBox="0 0 18 18" fill="none" xmlns="http://www.w3.org/2000/svg">
<rect x="1" y="7" width="15" height="9.5" fill="white"/>
<path d="M11 1L6 7.5H11.5L13 2.5L11 1Z" fill="white"/>
<path d="M14.2638 5.37214H13.4044C13.82 4.31544 14.2242 2.76289 13.6803 1.5453C13.3595 0.82731 12.7497 0.316688 11.9166 0.069032C11.7629 0.0231002 11.6029 0 11.4418 0C10.3578 0 9.37678 0.970478 7.94326 3.46181C7.29914 4.58217 6.37206 5.52552 5.71916 6.03426C5.44206 6.25022 5.22062 6.47048 5.04106 6.68724C4.54603 6.0125 3.70595 5.56796 2.75457 5.56796C1.23581 5.56796 0 6.70121 0 8.09394V15.4253C0 16.8183 1.23581 17.9513 2.75457 17.9513C3.75223 17.9513 4.62512 17.4605 5.10843 16.7302C5.75636 17.463 6.74465 17.9328 7.85128 17.9328H14.5951C17.3798 17.9328 17.7954 16.2846 17.7954 15.3023V8.61128C17.7957 6.82531 16.2114 5.37214 14.2638 5.37214ZM3.75165 15.4253C3.75165 15.9295 3.30437 16.3396 2.75486 16.3396C2.20506 16.3396 1.75778 15.9295 1.75778 15.4253V8.09394C1.75778 7.58976 2.20506 7.1796 2.75486 7.1796C3.30437 7.1796 3.75165 7.58976 3.75165 8.09394V15.4253ZM16.0382 15.3023C16.0382 15.8989 15.9346 16.3211 14.5953 16.3211H7.85157C6.87324 16.3211 6.0771 15.5913 6.0771 14.6942V8.61128L6.07944 8.58576L6.07329 8.53848C6.07153 8.5127 6.04224 7.89759 6.85713 7.2626C7.63511 6.65609 8.73735 5.5368 9.49775 4.21364C10.7081 2.11045 11.2857 1.70136 11.4424 1.624C11.7468 1.72822 11.9369 1.89449 12.0537 2.15611C12.4325 3.00383 11.9568 4.63374 11.2913 5.80568L10.6225 6.98352H14.2635C15.2421 6.98352 16.0382 7.71359 16.0382 8.61101V15.3023Z" fill="black"/>
</svg>
