<svg width="512" height="512" viewBox="0 0 512 512" fill="none" xmlns="http://www.w3.org/2000/svg">
<path d="M256 512C205.368 512 155.873 496.986 113.774 468.856C71.6751 440.727 38.863 400.745 19.4869 353.967C0.110921 307.189 -4.95873 255.716 4.91908 206.057C14.7969 156.398 39.1785 110.783 74.9808 74.9808C110.783 39.1785 156.398 14.7969 206.057 4.91908C255.716 -4.95873 307.189 0.110921 353.967 19.4869C400.745 38.863 440.727 71.6751 468.856 113.774C496.986 155.873 512 205.368 512 256C512 323.895 485.029 389.01 437.019 437.019C389.01 485.029 323.895 512 256 512V512ZM256 39.3847C213.158 39.3847 171.277 52.089 135.655 75.891C100.033 99.693 72.2687 133.524 55.8736 173.105C39.4785 212.686 35.1888 256.24 43.5469 298.26C51.9051 340.279 72.5357 378.876 102.83 409.17C133.124 439.464 171.721 460.095 213.74 468.453C255.76 476.811 299.314 472.522 338.895 456.126C378.476 439.731 412.307 411.967 436.109 376.345C459.911 340.723 472.615 298.843 472.615 256C472.615 198.55 449.793 143.453 409.17 102.83C368.547 62.2066 313.45 39.3847 256 39.3847Z" fill="black"/>
<path d="M256 275.692C236.526 275.692 217.49 269.918 201.298 259.099C185.106 248.28 172.486 232.902 165.033 214.91C157.581 196.919 155.631 177.122 159.43 158.022C163.229 138.922 172.607 121.378 186.377 107.608C200.147 93.838 217.691 84.4604 236.791 80.6612C255.891 76.8621 275.688 78.8119 293.68 86.2643C311.671 93.7166 327.049 106.337 337.868 122.529C348.687 138.72 354.461 157.757 354.461 177.231C354.461 203.344 344.088 228.389 325.623 246.854C307.158 265.319 282.114 275.692 256 275.692ZM256 118.154C244.316 118.154 232.894 121.619 223.179 128.11C213.463 134.602 205.891 143.828 201.42 154.623C196.949 165.418 195.779 177.296 198.058 188.756C200.338 200.216 205.964 210.742 214.226 219.005C222.488 227.267 233.015 232.893 244.475 235.173C255.934 237.452 267.813 236.282 278.608 231.811C289.403 227.339 298.629 219.767 305.121 210.052C311.612 200.337 315.077 188.915 315.077 177.231C315.077 161.563 308.853 146.536 297.774 135.457C286.695 124.378 271.668 118.154 256 118.154Z" fill="black"/>
<path d="M444.062 413.538C441.328 413.557 438.621 413.006 436.112 411.921C433.603 410.836 431.348 409.241 429.489 407.237C408.587 384.437 383.181 366.225 354.877 353.751C326.574 341.277 295.989 334.813 265.059 334.769H246.942C189.287 334.645 133.846 356.962 92.3571 396.997C88.5237 400.16 83.6361 401.756 78.6746 401.466C73.7132 401.176 69.0449 399.021 65.6062 395.433C62.1675 391.845 60.2127 387.089 60.1339 382.12C60.0552 377.15 61.8584 372.335 65.1817 368.64C113.937 321.515 179.134 295.238 246.942 295.384H265.059C301.415 295.467 337.362 303.066 370.64 317.706C403.919 332.346 433.81 353.71 458.437 380.455C461.039 383.261 462.767 386.763 463.41 390.535C464.054 394.307 463.584 398.185 462.059 401.694C460.535 405.203 458.02 408.192 454.824 410.296C451.628 412.399 447.888 413.526 444.062 413.538V413.538Z" fill="black"/>
</svg>
