<svg width="33" height="33" viewBox="0 0 33 33" fill="none" xmlns="http://www.w3.org/2000/svg">
<g clip-path="url(#clip0_208_104)">
<path d="M16.5 30.9375C12.6709 30.9375 8.9987 29.4164 6.29115 26.7089C3.58359 24.0013 2.0625 20.3291 2.0625 16.5C2.0625 12.6709 3.58359 8.9987 6.29115 6.29115C8.9987 3.58359 12.6709 2.0625 16.5 2.0625C20.3291 2.0625 24.0013 3.58359 26.7089 6.29115C29.4164 8.9987 30.9375 12.6709 30.9375 16.5C30.9375 20.3291 29.4164 24.0013 26.7089 26.7089C24.0013 29.4164 20.3291 30.9375 16.5 30.9375ZM16.5 33C20.8761 33 25.0729 31.2616 28.1673 28.1673C31.2616 25.0729 33 20.8761 33 16.5C33 12.1239 31.2616 7.92709 28.1673 4.83274C25.0729 1.73839 20.8761 0 16.5 0C12.1239 0 7.92709 1.73839 4.83274 4.83274C1.73839 7.92709 0 12.1239 0 16.5C0 20.8761 1.73839 25.0729 4.83274 28.1673C7.92709 31.2616 12.1239 33 16.5 33Z" fill="black"/>
<path d="M10.8383 11.9336C10.8355 12.0002 10.8463 12.0667 10.8702 12.129C10.894 12.1912 10.9303 12.248 10.9768 12.2957C11.0234 12.3434 11.0792 12.3811 11.1409 12.4064C11.2025 12.4318 11.2687 12.4442 11.3354 12.4431H13.037C13.3216 12.4431 13.5485 12.21 13.5856 11.9274C13.7712 10.5744 14.6993 9.58856 16.3535 9.58856C17.7683 9.58856 19.0636 10.296 19.0636 11.9976C19.0636 13.3073 18.2922 13.9095 17.0733 14.8253C15.6852 15.8338 14.5859 17.0115 14.6643 18.9234L14.6705 19.371C14.6726 19.5063 14.7279 19.6354 14.8244 19.7303C14.9208 19.8252 15.0507 19.8784 15.1861 19.8784H16.8588C16.9955 19.8784 17.1267 19.824 17.2234 19.7274C17.3201 19.6307 17.3744 19.4995 17.3744 19.3627V19.1462C17.3744 17.6653 17.9375 17.2343 19.4575 16.0813C20.7136 15.1264 22.0233 14.0663 22.0233 11.8408C22.0233 8.72438 19.3915 7.21875 16.5102 7.21875C13.897 7.21875 11.0343 8.43562 10.8383 11.9336ZM14.0496 23.8198C14.0496 24.9191 14.9262 25.7318 16.1328 25.7318C17.3888 25.7318 18.253 24.9191 18.253 23.8198C18.253 22.6813 17.3868 21.8811 16.1307 21.8811C14.9262 21.8811 14.0496 22.6813 14.0496 23.8198Z" fill="black"/>
</g>
<defs>
<clipPath id="clip0_208_104">
<rect width="33" height="33" fill="white"/>
</clipPath>
</defs>
</svg>
