<svg width="412" height="412" viewBox="0 0 34 32" fill="none" xmlns="http://www.w3.org/2000/svg">
<path d="M32.3486 15.0473C33.0996 14.329 33.3648 13.2748 33.0407 12.2961C32.7165 11.3173 31.8704 10.6174 30.8325 10.4694L22.9129 9.3403C22.8984 9.33824 22.886 9.3293 22.8796 9.31653L19.338 2.27559C18.8739 1.35273 17.9339 0.779297 16.8849 0.779297C15.8359 0.779297 14.8961 1.35273 14.432 2.27559L10.8903 9.31653C10.8839 9.3293 10.8715 9.3381 10.857 9.3403L2.9375 10.4694C1.89957 10.6174 1.05347 11.3173 0.729325 12.2961C0.405178 13.2748 0.670416 14.329 1.42143 15.0473L7.15201 20.528C7.16247 20.538 7.16726 20.5524 7.16472 20.5665L5.81191 28.3054C5.63459 29.3196 6.05173 30.3255 6.90023 30.9303C7.74887 31.5355 8.85273 31.6135 9.78107 31.1347L16.8645 27.481C16.8773 27.4742 16.8929 27.4744 16.9057 27.481L23.9891 31.1347C24.3929 31.343 24.8298 31.4458 25.2646 31.4458C25.8293 31.4458 26.3905 31.2722 26.8698 30.9303C27.7183 30.3255 28.1353 29.3196 27.9581 28.3052L26.6053 20.5665C26.6028 20.5524 26.6077 20.538 26.618 20.528L32.3486 15.0473ZM23.9526 21.0127L25.3054 28.7515C25.309 28.772 25.3101 28.7782 25.2878 28.794C25.2655 28.8099 25.2598 28.8069 25.2411 28.7973L18.1576 25.1434C17.3607 24.7325 16.409 24.7325 15.6118 25.1434L8.52844 28.7971C8.50975 28.8066 8.50406 28.8097 8.48179 28.7939C8.45951 28.778 8.46056 28.7719 8.46414 28.7515L9.81695 21.0126C9.96915 20.1418 9.67506 19.2538 9.03021 18.637L3.29992 13.1564C3.28482 13.1419 3.28019 13.1377 3.28871 13.112C3.29723 13.0863 3.30351 13.0854 3.32444 13.0824L11.2439 11.9532C12.1352 11.8262 12.9052 11.2774 13.3036 10.4851L16.8453 3.44402C16.8547 3.42554 16.8574 3.41982 16.8849 3.41982C16.9124 3.41982 16.9153 3.42554 16.9246 3.44402L20.4663 10.4851C20.8649 11.2774 21.6347 11.8263 22.526 11.9532L30.4454 13.0824C30.4664 13.0854 30.4726 13.0863 30.4812 13.112C30.4897 13.1377 30.485 13.1421 30.4699 13.1564L24.7394 18.6371C24.0947 19.2538 23.8006 20.1419 23.9526 21.0127Z" fill="black"/>
</svg>
