<svg width="387" height="641" viewBox="0 0 387 641" fill="none" xmlns="http://www.w3.org/2000/svg">
<path d="M319.178 249.385C319.499 184.491 318.536 119.917 316.611 55.0231C316.29 41.5302 299.604 34.1412 289.656 43.779C260.134 73.0136 224.836 107.388 184.404 121.203C182.158 116.705 177.665 113.171 170.606 113.814C150.389 114.777 129.852 114.456 109.636 113.492C107.39 112.528 105.144 111.886 102.256 112.207C100.331 112.528 98.726 112.529 96.8007 112.85C87.4948 112.207 78.5099 111.565 69.2041 110.922C65.3534 110.28 61.1818 109.958 57.3311 109.958C14.0109 106.425 -28.9884 101.927 -72.3086 102.248C-111.457 102.569 -149.323 111.886 -188.15 113.492C-198.74 113.813 -206.762 113.171 -214.784 106.103C-222.165 99.6781 -228.583 92.2892 -235.642 85.5427C-247.836 73.6561 -259.709 61.4482 -271.903 49.5616C-271.582 47.6341 -271.582 45.7066 -271.261 43.779C-269.656 26.431 -292.44 24.1821 -300.141 36.39C-308.163 40.2451 -313.619 49.5617 -307.201 57.9144C-306.238 59.1994 -305.275 60.1632 -304.634 61.4483C-314.902 166.5 -322.283 271.552 -312.014 377.246C-307.522 423.186 -302.708 470.411 -284.418 513.139C-266.127 555.224 -233.717 585.422 -191.038 602.128C-143.225 621.082 -90.5995 620.761 -39.8987 621.725C14.9736 622.688 71.4503 627.507 126.323 623.331C176.061 619.476 216.172 596.345 247.619 558.115C248.903 556.509 250.187 554.903 251.47 553.296C256.284 552.011 260.134 548.799 261.739 542.695C262.06 541.731 262.059 540.767 262.38 539.803C287.731 507.035 306.984 472.981 313.402 429.933C321.745 370.821 318.857 309.139 319.178 249.385Z" fill="url(#paint0_linear_642_108)"/>
<path d="M-319.79 471.375C-322.357 462.38 -322.999 453.384 -324.603 444.389C-325.566 439.249 -325.887 433.788 -326.208 428.647C-326.208 425.756 -327.17 424.792 -329.737 423.829C-343.536 419.01 -357.013 414.191 -370.491 409.372C-371.453 409.051 -372.095 408.729 -373.058 408.408C-379.796 405.838 -383.005 399.734 -381.722 392.024C-380.759 385.92 -374.983 380.458 -368.886 379.816C-366.319 379.495 -364.073 380.137 -361.827 381.101C-351.558 384.635 -341.289 388.49 -331.021 392.024C-329.737 392.345 -328.775 392.987 -327.17 392.987C-326.208 392.024 -326.529 390.739 -326.529 389.775C-326.529 388.49 -326.529 387.205 -326.529 385.92C-326.529 262.235 -326.529 138.55 -326.529 14.8649C-326.529 13.9012 -326.529 12.9374 -326.529 11.9736C-326.849 2.97836 -316.902 -3.12561 -308.559 1.69328C-306.633 2.65706 -305.029 4.2634 -303.424 5.54844C-264.917 36.0681 -226.09 66.5878 -187.583 97.1074C-185.016 99.035 -182.77 99.9987 -179.561 99.0349C-167.688 96.7861 -155.815 94.5373 -143.621 92.6097C-133.352 91.0034 -123.084 90.0397 -113.136 88.4334C-95.4872 85.8633 -77.8382 84.5783 -60.1892 83.6145C-31.9508 81.6869 -3.39139 81.0444 25.1679 82.0082C30.3022 82.3295 35.4364 82.3295 40.5706 82.3295C52.1227 82.3295 63.6747 83.6145 75.2268 84.5782C83.5699 85.2207 91.9132 85.8633 100.577 86.8271C112.771 88.1121 124.965 90.0397 137.159 91.3247C151.92 93.2523 166.681 96.4648 181.442 99.0349C184.651 99.6774 186.576 98.7137 188.822 97.1074C226.046 67.5516 263.59 37.9957 300.813 8.76104C303.059 6.83348 305.306 5.22714 307.552 3.29958C311.723 0.086987 316.537 -1.19807 321.671 1.37201C326.484 3.94208 328.089 8.11852 328.089 13.5799C328.089 70.4429 328.089 127.627 328.089 184.49C328.089 252.276 328.089 320.062 328.089 387.847C328.089 389.775 327.768 391.702 328.41 393.951C330.014 394.594 331.619 393.63 332.902 392.987C344.133 389.132 355.365 384.956 366.596 381.101C374.297 378.531 381.036 381.422 384.566 388.49C388.416 396.2 384.886 405.517 376.864 408.408C362.424 413.548 347.663 418.688 333.223 423.829C331.619 424.471 329.693 424.792 328.089 426.399C327.126 441.177 324.88 456.276 321.992 471.054C323.917 472.017 326.164 472.018 328.089 472.018C338.357 472.018 348.305 472.339 358.574 472.339C361.141 472.339 363.387 472.339 365.954 472.339C373.655 472.66 377.185 474.588 379.431 481.013C381.678 487.438 380.073 495.469 375.581 499.646C373.655 501.573 371.088 501.895 368.521 501.895C352.477 501.573 336.432 501.252 320.387 500.931C317.82 500.931 315.574 500.931 313.649 500.931C312.365 501.573 312.365 502.537 312.044 503.18C301.455 529.844 286.052 553.617 265.836 573.857C250.112 589.92 232.142 603.091 212.247 613.693C190.747 624.937 168.285 632.969 144.539 637.787C133.629 640.036 122.719 641 111.487 641C38.9661 640.679 -33.876 640.679 -106.397 641C-122.121 641 -137.524 639.072 -152.606 635.539C-174.747 630.398 -195.926 622.046 -215.821 610.802C-235.716 599.557 -253.365 585.422 -268.768 568.395C-280.32 555.545 -290.268 541.731 -298.611 526.632C-302.462 519.564 -305.991 512.175 -309.2 504.465C-309.521 503.501 -309.842 502.537 -310.484 501.895C-312.088 500.931 -314.014 501.252 -315.618 501.252C-331.021 501.573 -346.103 501.895 -361.506 501.895C-365.035 501.895 -368.565 502.216 -371.453 499.003C-374.662 495.469 -375.946 491.293 -375.946 486.795C-375.946 485.189 -375.625 483.583 -375.304 482.298C-373.7 475.872 -369.528 472.339 -362.468 472.339C-350.595 472.017 -338.402 472.018 -326.529 472.018C-324.603 472.018 -322.357 472.339 -319.79 471.375ZM-278.074 501.573C-275.507 507.998 -272.298 513.781 -268.768 519.564C-255.291 542.373 -237.321 561.006 -215.821 576.106C-194.963 590.883 -171.859 600.843 -146.83 606.947C-133.994 610.159 -121.158 611.765 -107.681 611.765C-33.2343 611.444 40.8915 611.765 115.338 611.765C124.002 611.765 132.345 610.48 140.689 608.874C162.188 604.376 182.404 596.987 201.337 586.065C212.247 579.961 222.516 572.572 232.142 564.54C244.336 554.26 254.926 542.373 263.911 529.202C269.366 521.17 274.5 512.817 278.351 503.822C278.672 502.858 279.634 502.216 278.672 500.931C277.067 500.288 275.463 500.288 274.179 500.288C267.761 500.288 261.343 499.967 254.926 500.288C250.433 500.288 247.224 498.04 245.299 494.506C243.053 490.651 242.732 486.795 243.374 482.298C244.657 474.587 249.149 470.411 257.172 470.411C267.119 470.411 277.067 470.732 287.336 471.054C290.865 471.054 290.865 471.054 291.828 467.841C294.395 458.846 295.679 449.529 296.962 439.892C296.962 438.928 297.283 437.964 296.641 437C295.037 437 294.074 437.643 292.47 437.964C279.955 442.461 267.12 446.959 254.605 451.457C242.411 455.633 234.389 444.389 235.672 435.394C236.314 429.611 239.523 425.756 245.299 423.829C261.343 418.367 277.388 412.584 293.433 406.802C295.037 406.159 296.962 405.838 298.567 404.553C298.567 286.329 298.567 167.784 298.567 49.2397C296.32 49.5609 295.358 50.846 293.753 51.8098C261.343 76.8681 229.254 101.926 196.844 127.306C193.315 129.876 189.785 130.84 185.613 129.876C170.531 126.985 155.45 124.093 140.689 121.523C130.42 119.917 120.472 118.632 110.204 117.347C101.219 116.383 92.234 114.777 83.2491 114.455C82.2864 114.455 81.0029 114.134 79.7193 115.098C79.3984 116.704 79.3983 118.31 79.3983 119.917C79.3983 143.69 79.3983 167.463 79.3983 191.236C79.3983 193.164 79.3984 195.092 79.0775 197.34C77.7939 203.766 72.6596 207.942 65.9209 208.263C58.8613 208.584 53.0853 204.729 51.16 198.304C50.5182 196.377 50.5182 194.449 50.5182 192.2C50.5182 167.142 50.5182 142.084 50.5182 117.025C50.5182 115.419 50.8391 113.492 49.5555 111.885C38.3243 111.243 27.4141 110.6 15.5412 111.243C15.5412 113.492 15.5412 115.098 15.5412 116.704C15.5412 132.767 15.5412 148.83 15.5412 164.893C15.5412 179.992 15.5412 195.092 15.5412 210.512C15.5412 214.688 14.8993 218.544 12.0113 221.756C8.16055 225.933 3.34732 226.896 -2.10782 226.575C-7.88385 225.933 -12.6973 221.756 -13.9808 216.295C-14.6226 214.046 -14.6227 211.797 -14.6227 209.548C-14.6227 178.707 -14.6227 147.866 -14.6227 117.347C-14.6227 115.419 -14.3017 113.813 -14.9435 111.885C-21.0404 110.922 -45.4282 111.564 -48.958 113.17C-49.5998 114.777 -49.2788 116.704 -49.2788 118.31C-49.2788 143.047 -49.2788 167.785 -49.2788 192.521C-49.2788 194.77 -49.2789 196.698 -49.9206 198.947C-51.846 205.372 -57.6219 209.227 -64.6815 208.584C-71.0994 208.263 -76.2336 203.766 -77.5172 197.34C-77.8381 195.413 -77.8382 193.485 -77.8382 191.236C-77.8382 167.463 -77.8382 143.69 -77.8382 119.917C-77.8382 118.31 -77.5173 116.383 -78.48 115.098C-79.4427 114.455 -80.4052 114.777 -81.3679 114.777C-87.7857 115.098 -93.8826 115.74 -99.9795 116.383C-112.494 117.989 -125.009 119.274 -137.203 121.202C-152.927 123.772 -168.65 126.342 -184.374 129.876C-188.225 130.518 -191.433 129.876 -194.322 127.627C-203.627 120.238 -212.933 112.849 -222.239 105.781C-245.343 87.7908 -268.447 69.8003 -291.551 51.8098C-292.835 50.846 -294.119 49.2397 -296.044 49.561C-296.044 167.785 -296.044 286.008 -296.044 404.232C-290.91 406.159 -285.775 407.765 -280.962 409.693C-267.485 414.512 -253.686 419.331 -240.209 424.15C-235.716 425.756 -232.508 428.647 -231.224 433.145C-229.62 439.249 -231.224 444.389 -235.717 448.887C-240.209 453.063 -245.343 453.384 -250.798 451.457C-263.955 446.638 -277.111 442.14 -290.268 437.643C-291.552 437 -293.156 436.358 -295.081 436.679C-293.798 448.566 -292.193 460.131 -288.663 471.054C-286.738 471.696 -285.134 471.696 -283.85 471.696C-272.94 471.375 -262.03 471.375 -251.119 471.054C-246.306 471.054 -243.097 473.302 -240.851 477.479C-238.604 481.655 -238.284 485.832 -239.246 490.329C-240.53 497.076 -244.701 500.61 -251.761 500.931C-258.821 500.931 -266.201 500.931 -273.261 501.252C-274.865 500.61 -276.469 500.288 -278.074 501.573Z" fill="black"/>
<path d="M155.204 439.893C131.779 440.214 112.526 421.581 112.205 397.808C111.884 374.677 130.817 355.401 153.921 354.759C177.346 354.438 196.921 373.071 197.242 396.523C197.242 420.939 178.63 439.572 155.204 439.893Z" fill="black"/>
<path d="M1.42178 424.471C11.0484 424.471 20.9959 424.471 30.6226 424.471C33.1897 424.471 35.4359 424.792 37.6821 426.077C42.8164 428.647 44.4209 435.715 40.5702 439.891C29.0182 453.063 17.7871 466.556 6.2351 480.049C3.02622 483.904 0.779961 483.904 -2.42892 480.049C-13.66 466.877 -24.891 453.706 -36.443 440.855C-39.331 437.643 -40.2938 434.109 -38.3685 430.254C-36.4431 426.398 -33.2342 424.792 -29.0626 424.792C-18.7942 424.471 -8.84666 424.471 1.42178 424.471Z" fill="black"/>
<defs>
<linearGradient id="paint0_linear_642_108" x1="1.23141" y1="28.7061" x2="1.23141" y2="625.008" gradientUnits="userSpaceOnUse">
<stop stop-color="#FF00E5" stop-opacity="0.46"/>
<stop offset="1" stop-color="#0057FF" stop-opacity="0.47"/>
</linearGradient>
</defs>
</svg>
