<svg width="769" height="641" viewBox="0 0 769 641" fill="none" xmlns="http://www.w3.org/2000/svg">
<path d="M701.178 249.385C701.499 184.491 700.536 119.918 698.611 55.0236C698.29 41.5307 681.603 34.1417 671.656 43.7795C642.134 73.0141 606.836 107.389 566.404 121.203C564.158 116.705 559.665 113.171 552.605 113.814C532.389 114.778 511.852 114.456 491.636 113.493C489.39 112.529 487.144 111.886 484.256 112.208C482.33 112.529 480.726 112.529 478.8 112.85C469.495 112.208 460.51 111.565 451.204 110.923C447.353 110.28 443.182 109.959 439.331 109.959C396.011 106.425 353.011 101.927 309.691 102.249C270.542 102.57 232.677 111.886 193.849 113.493C183.26 113.814 175.238 113.171 167.216 106.104C159.835 99.6786 153.417 92.2897 146.358 85.5432C134.164 73.6566 122.291 61.4487 110.097 49.5621C110.418 47.6346 110.418 45.707 110.739 43.7795C112.343 26.4315 89.56 24.1826 81.8587 36.3905C73.8364 40.2456 68.3812 49.5621 74.799 57.9149C75.7617 59.1999 76.7243 60.1637 77.3661 61.4488C67.0976 166.501 59.7172 271.552 69.9857 377.247C74.4781 423.187 79.2914 470.412 97.5822 513.139C115.873 555.224 148.283 585.423 190.962 602.128C238.774 621.083 291.4 620.761 342.101 621.725C396.973 622.689 453.45 627.508 508.322 623.331C558.06 619.476 598.172 596.346 629.619 558.116C630.903 556.509 632.186 554.903 633.47 553.297C638.283 552.012 642.134 548.799 643.738 542.695C644.059 541.732 644.059 540.768 644.38 539.804C669.73 507.036 688.984 472.982 695.402 429.933C703.745 370.821 700.857 309.14 701.178 249.385Z" fill="url(#paint0_linear_916_2)"/>
<path d="M62.21 471.375C59.6429 462.38 59.0011 453.384 57.3966 444.389C56.434 439.249 56.1131 433.788 55.7922 428.647C55.7922 425.756 54.8294 424.792 52.2623 423.829C38.464 419.01 24.9865 414.191 11.5091 409.372C10.5464 409.051 9.90468 408.729 8.94201 408.408C2.2033 405.838 -1.00564 399.734 0.27792 392.024C1.24059 385.92 7.01663 380.458 13.1136 379.816C15.6807 379.495 17.927 380.137 20.1732 381.101C30.4417 384.635 40.7103 388.49 50.9788 392.024C52.2624 392.345 53.2249 392.987 54.8294 392.987C55.792 392.024 55.4712 390.739 55.4712 389.775C55.4712 388.49 55.4712 387.205 55.4712 385.92C55.4712 262.235 55.4712 138.55 55.4712 14.8649C55.4712 13.9012 55.4712 12.9374 55.4712 11.9736C55.1503 2.97836 65.098 -3.12561 73.4412 1.69328C75.3665 2.65706 76.9709 4.2634 78.5754 5.54844C117.082 36.0681 155.91 66.5878 194.417 97.1074C196.984 99.035 199.23 99.9987 202.439 99.0349C214.312 96.7861 226.185 94.5373 238.379 92.6097C248.647 91.0034 258.916 90.0397 268.864 88.4334C286.513 85.8633 304.162 84.5783 321.811 83.6145C350.049 81.6869 378.608 81.0444 407.168 82.0082C412.302 82.3295 417.436 82.3295 422.57 82.3295C434.122 82.3295 445.674 83.6145 457.227 84.5782C465.57 85.2208 473.913 85.8633 482.577 86.8271C494.771 88.1121 506.965 90.0397 519.158 91.3247C533.919 93.2523 548.68 96.4648 563.441 99.0349C566.65 99.6774 568.576 98.7137 570.822 97.1074C608.045 67.5516 645.59 37.9957 682.813 8.76104C685.059 6.83348 687.305 5.22714 689.552 3.29958C693.723 0.086987 698.537 -1.19807 703.671 1.37201C708.484 3.94208 710.089 8.11852 710.089 13.5799C710.089 70.4429 710.089 127.627 710.089 184.49C710.089 252.276 710.089 320.062 710.089 387.847C710.089 389.775 709.768 391.702 710.409 393.951C712.014 394.594 713.618 393.63 714.902 392.987C726.133 389.132 737.364 384.956 748.596 381.101C756.297 378.531 763.036 381.422 766.565 388.49C770.416 396.2 766.886 405.517 758.864 408.408C744.424 413.548 729.663 418.688 715.223 423.829C713.618 424.471 711.693 424.792 710.089 426.399C709.126 441.177 706.88 456.276 703.992 471.054C705.917 472.017 708.163 472.018 710.089 472.018C720.357 472.018 730.305 472.339 740.573 472.339C743.14 472.339 745.386 472.339 747.954 472.339C755.655 472.66 759.185 474.588 761.431 481.013C763.677 487.438 762.073 495.469 757.58 499.646C755.655 501.573 753.088 501.895 750.521 501.895C734.476 501.573 718.432 501.252 702.387 500.931C699.82 500.931 697.574 500.931 695.649 500.931C694.365 501.573 694.365 502.537 694.044 503.18C683.455 529.844 668.052 553.617 647.836 573.857C632.112 589.92 614.142 603.091 594.247 613.693C572.747 624.937 550.285 632.969 526.539 637.787C515.629 640.036 504.718 641 493.487 641C420.966 640.679 348.124 640.679 275.602 641C259.879 641 244.476 639.072 229.394 635.539C207.253 630.398 186.074 622.046 166.179 610.802C146.283 599.557 128.634 585.422 113.232 568.395C101.679 555.545 91.7319 541.731 83.3887 526.632C79.538 519.564 76.0083 512.175 72.7994 504.465C72.4785 503.501 72.1575 502.537 71.5157 501.895C69.9113 500.931 67.986 501.252 66.3815 501.252C50.9788 501.573 35.897 501.895 20.4942 501.895C16.9644 501.895 13.4345 502.216 10.5465 499.003C7.33756 495.469 6.05411 491.293 6.05411 486.795C6.05411 485.189 6.37485 483.583 6.69574 482.298C8.30019 475.872 12.4718 472.339 19.5314 472.339C31.4043 472.017 43.5982 472.018 55.4712 472.018C57.3965 472.018 59.6429 472.339 62.21 471.375ZM103.926 501.573C106.493 507.998 109.702 513.781 113.232 519.564C126.709 542.373 144.679 561.006 166.179 576.106C187.036 590.883 210.141 600.843 235.17 606.947C248.006 610.159 260.841 611.765 274.319 611.765C348.765 611.444 422.891 611.765 497.338 611.765C506.002 611.765 514.345 610.48 522.688 608.874C544.188 604.376 564.404 596.988 583.337 586.065C594.247 579.961 604.516 572.572 614.142 564.54C626.336 554.26 636.926 542.373 645.911 529.202C651.366 521.17 656.5 512.817 660.351 503.822C660.671 502.858 661.634 502.216 660.671 500.931C659.067 500.288 657.462 500.288 656.179 500.288C649.761 500.288 643.343 499.967 636.925 500.288C632.433 500.288 629.224 498.04 627.299 494.506C625.052 490.651 624.732 486.795 625.373 482.298C626.657 474.587 631.149 470.411 639.171 470.411C649.119 470.411 659.067 470.732 669.335 471.054C672.865 471.054 672.865 471.054 673.828 467.841C676.395 458.846 677.678 449.529 678.962 439.892C678.962 438.928 679.283 437.964 678.641 437C677.037 437 676.074 437.643 674.469 437.964C661.955 442.461 649.119 446.959 636.605 451.457C624.411 455.633 616.388 444.389 617.672 435.394C618.314 429.611 621.523 425.756 627.299 423.829C643.343 418.367 659.388 412.584 675.432 406.802C677.037 406.159 678.962 405.838 680.566 404.553C680.566 286.329 680.566 167.784 680.566 49.2397C678.32 49.5609 677.358 50.846 675.753 51.8098C643.343 76.8681 611.254 101.926 578.844 127.306C575.314 129.876 571.785 130.84 567.613 129.876C552.531 126.985 537.449 124.093 522.688 121.523C512.42 119.917 502.472 118.632 492.204 117.347C483.219 116.383 474.234 114.777 465.249 114.455C464.286 114.455 463.003 114.134 461.719 115.098C461.398 116.704 461.398 118.31 461.398 119.917C461.398 143.69 461.398 167.463 461.398 191.236C461.398 193.164 461.398 195.092 461.077 197.34C459.794 203.766 454.659 207.942 447.921 208.263C440.861 208.584 435.085 204.729 433.16 198.304C432.518 196.377 432.518 194.449 432.518 192.2C432.518 167.142 432.518 142.084 432.518 117.025C432.518 115.419 432.839 113.492 431.555 111.885C420.324 111.243 409.414 110.6 397.541 111.243C397.541 113.492 397.541 115.098 397.541 116.704C397.541 132.767 397.541 148.83 397.541 164.893C397.541 179.992 397.541 195.092 397.541 210.512C397.541 214.688 396.899 218.544 394.011 221.756C390.16 225.933 385.347 226.896 379.892 226.575C374.116 225.933 369.302 221.756 368.019 216.295C367.377 214.046 367.377 211.797 367.377 209.548C367.377 178.707 367.377 147.866 367.377 117.347C367.377 115.419 367.698 113.813 367.056 111.885C360.959 110.922 336.572 111.564 333.042 113.17C332.4 114.777 332.721 116.704 332.721 118.31C332.721 143.047 332.721 167.785 332.721 192.521C332.721 194.77 332.721 196.698 332.079 198.947C330.154 205.372 324.378 209.227 317.318 208.584C310.9 208.263 305.766 203.766 304.483 197.34C304.162 195.413 304.162 193.485 304.162 191.236C304.162 167.463 304.162 143.69 304.162 119.917C304.162 118.31 304.482 116.383 303.52 115.098C302.557 114.455 301.595 114.777 300.632 114.777C294.214 115.098 288.117 115.74 282.02 116.383C269.505 117.989 256.991 119.274 244.797 121.202C229.073 123.772 213.349 126.342 197.626 129.876C193.775 130.518 190.566 129.876 187.678 127.627C178.372 120.238 169.067 112.849 159.761 105.781C136.657 87.7908 113.553 69.8003 90.4484 51.8098C89.1648 50.846 87.8812 49.2397 85.9558 49.561C85.9558 167.784 85.9558 286.008 85.9558 404.232C91.0901 406.159 96.2244 407.765 101.038 409.693C114.515 414.512 128.313 419.331 141.791 424.15C146.283 425.756 149.492 428.647 150.776 433.145C152.38 439.249 150.776 444.389 146.283 448.887C141.791 453.063 136.657 453.384 131.202 451.457C118.045 446.638 104.888 442.14 91.7318 437.643C90.4482 437 88.8438 436.358 86.9184 436.679C88.202 448.566 89.8065 460.131 93.3363 471.054C95.2616 471.696 96.8661 471.696 98.1496 471.696C109.06 471.375 119.97 471.375 130.881 471.054C135.694 471.054 138.903 473.302 141.149 477.479C143.395 481.655 143.716 485.832 142.754 490.329C141.47 497.076 137.298 500.61 130.239 500.931C123.179 500.931 115.799 500.931 108.739 501.252C107.135 500.61 105.53 500.288 103.926 501.573Z" fill="black"/>
<path d="M231.395 354.438C255.141 354.438 273.752 373.392 273.752 397.165C273.752 420.617 254.499 439.571 231.074 439.571C207.649 439.571 189.037 420.617 189.037 397.165C189.037 373.07 207.649 354.438 231.395 354.438Z" fill="black"/>
<path d="M537.204 439.892C513.779 440.214 494.526 421.58 494.205 397.807C493.884 374.676 512.816 355.401 535.921 354.758C559.346 354.437 578.92 373.07 579.241 396.522C579.241 420.938 560.629 439.571 537.204 439.892Z" fill="black"/>
<path d="M383.422 424.471C393.048 424.471 402.996 424.471 412.623 424.471C415.19 424.471 417.436 424.792 419.682 426.077C424.816 428.648 426.421 435.715 422.57 439.892C411.018 453.064 399.787 466.557 388.235 480.049C385.026 483.905 382.78 483.905 379.571 480.049C368.34 466.878 357.109 453.706 345.557 440.856C342.669 437.643 341.706 434.109 343.632 430.254C345.557 426.399 348.766 424.793 352.937 424.793C363.206 424.471 373.153 424.471 383.422 424.471Z" fill="black"/>
<defs>
<linearGradient id="paint0_linear_916_2" x1="383.231" y1="28.7065" x2="383.231" y2="625.009" gradientUnits="userSpaceOnUse">
<stop stop-color="#FF00E5" stop-opacity="0.46"/>
<stop offset="1" stop-color="#0057FF" stop-opacity="0.47"/>
</linearGradient>
</defs>
</svg>
