<svg width="75" height="58" viewBox="0 0 75 58" fill="none" xmlns="http://www.w3.org/2000/svg">
<path d="M62.6999 26.7C55.3999 19.4 44.9999 15.4 32.9999 14.7V4C32.9999 2.4 31.7999 0.9 30.2999 0.3C28.7999 -0.3 26.9999 1.07288e-06 25.7999 1.2L1.19991 26.2C-0.300088 27.8 -0.400088 30.3 1.19991 31.8L25.7999 56.8C26.8999 58 28.7999 58.3 30.2999 57.7C31.7999 57.1 32.9999 55.6 32.9999 54V43.2C40.9999 43 59.7999 43.8 66.6999 56C67.3999 57.3 68.6999 58 70.0999 58C70.3999 58 70.6999 58 71.0999 57.9C72.8999 57.4 74.1999 55.9 74.1999 54C74.0999 53.4 74.0999 38.1 62.6999 26.7ZM28.3999 35.4C26.3999 35.6 24.9999 37.3 24.9999 39.4V44.2L9.99991 29L24.9999 13.8V18.6C24.9999 20.8 26.5999 22.6 28.7999 22.6C50.2999 22.6 59.3999 32.9 63.2999 41.7C49.1999 33.3 29.3999 35.3 28.3999 35.4V35.4Z" fill="black"/>
</svg>
