<svg width="386" height="386" viewBox="0 0 386 386" fill="none" xmlns="http://www.w3.org/2000/svg">
<g filter="url(#filter0_d_121_351)">
<path d="M60.8665 56.8601C63.199 25.0684 89.7342 0 122.125 0H292.225C341.807 0 382 40.1891 382 89.7649V203.152C382 235.539 356.929 262.072 325.134 264.404C322.801 296.196 296.266 321.264 263.875 321.264H167.801L98.5 373.233C82.9255 384.912 60.7 373.802 60.7 354.335V321.084C28.9837 318.673 4 292.176 4 259.846V118.112C4 85.7245 29.0712 59.1923 60.8665 56.8601ZM89.3849 56.6936H263.875C297.799 56.6936 325.3 84.1913 325.3 118.112V235.889C341.329 233.596 353.65 219.812 353.65 203.152V89.7649C353.65 55.8445 326.149 28.3468 292.225 28.3468H122.125C105.462 28.3468 91.6777 40.6669 89.3849 56.6936ZM65.425 292.917H89.05V344.886L158.351 292.917H263.875C282.142 292.917 296.95 278.11 296.95 259.846V118.112C296.95 99.8469 282.142 85.0404 263.875 85.0404H65.425C47.1581 85.0404 32.35 99.8469 32.35 118.112V259.846C32.35 278.11 47.1581 292.917 65.425 292.917Z" fill="black"/>
<path d="M132.568 203.008C129.304 203.008 126.52 201.904 124.216 199.696C121.912 197.392 120.76 194.512 120.76 191.056C120.76 187.504 121.864 184.624 124.072 182.416C126.376 180.208 129.208 179.104 132.568 179.104C135.928 179.104 138.712 180.208 140.92 182.416C143.224 184.624 144.376 187.504 144.376 191.056C144.376 194.512 143.224 197.392 140.92 199.696C138.616 201.904 135.832 203.008 132.568 203.008ZM167.724 203.008C164.46 203.008 161.676 201.904 159.372 199.696C157.068 197.392 155.916 194.512 155.916 191.056C155.916 187.504 157.02 184.624 159.228 182.416C161.532 180.208 164.364 179.104 167.724 179.104C171.084 179.104 173.868 180.208 176.076 182.416C178.38 184.624 179.532 187.504 179.532 191.056C179.532 194.512 178.38 197.392 176.076 199.696C173.772 201.904 170.988 203.008 167.724 203.008ZM202.881 203.008C199.617 203.008 196.833 201.904 194.529 199.696C192.225 197.392 191.073 194.512 191.073 191.056C191.073 187.504 192.177 184.624 194.385 182.416C196.689 180.208 199.521 179.104 202.881 179.104C206.241 179.104 209.025 180.208 211.233 182.416C213.537 184.624 214.689 187.504 214.689 191.056C214.689 194.512 213.537 197.392 211.233 199.696C208.929 201.904 206.145 203.008 202.881 203.008Z" fill="black"/>
</g>
<defs>
<filter id="filter0_d_121_351" x="0" y="0" width="386" height="386" filterUnits="userSpaceOnUse" color-interpolation-filters="sRGB">
<feFlood flood-opacity="0" result="BackgroundImageFix"/>
<feColorMatrix in="SourceAlpha" type="matrix" values="0 0 0 0 0 0 0 0 0 0 0 0 0 0 0 0 0 0 127 0" result="hardAlpha"/>
<feOffset dy="4"/>
<feGaussianBlur stdDeviation="2"/>
<feComposite in2="hardAlpha" operator="out"/>
<feColorMatrix type="matrix" values="0 0 0 0 0 0 0 0 0 0 0 0 0 0 0 0 0 0 0.25 0"/>
<feBlend mode="normal" in2="BackgroundImageFix" result="effect1_dropShadow_121_351"/>
<feBlend mode="normal" in="SourceGraphic" in2="effect1_dropShadow_121_351" result="shape"/>
</filter>
</defs>
</svg>
