<svg width="289" height="289" viewBox="0 0 289 289" fill="none" xmlns="http://www.w3.org/2000/svg">
    <g clip-path="url(#clip0_251_3)">
        <path d="M119.368 101.259L103.816 57.9199L145.569 63.0801L161.12 106.418L119.368 101.259Z" fill="#B0B7C6"/>
        <path d="M195.515 162.159L179.963 118.82L221.716 123.981L237.267 167.318L195.515 162.159Z" fill="#B0B7C6"/>
        <path d="M118.714 93.9573L178.482 101.344L198.821 158.025L258.585 165.409L185.556 242.284L39.4279 125.414L98.3729 37.2746L118.714 93.9573Z"
              fill="#F0F0F0"/>
        <path d="M174.717 206.157C173.258 204.99 173.021 202.862 174.188 201.403C175.354 199.945 177.482 199.708 178.941 200.875C180.4 202.041 180.636 204.169 179.47 205.628C178.303 207.086 176.175 207.323 174.717 206.157Z"
              fill="#6C6D6B"/>
        <path d="M193.73 204.043C192.271 202.876 192.035 200.748 193.201 199.29C194.368 197.831 196.496 197.594 197.954 198.761C199.413 199.927 199.65 202.055 198.483 203.514C197.317 204.973 195.189 205.209 193.73 204.043Z"
              fill="#6C6D6B"/>
        <path d="M42.2437 121.893L188.372 238.763C192.261 241.873 192.893 247.548 189.782 251.437C186.671 255.327 180.997 255.958 177.108 252.847L30.9797 135.977C27.0902 132.867 26.4592 127.192 29.5697 123.303C32.6802 119.413 38.3545 118.782 42.2437 121.893Z"
              fill="#959890"/>
    </g>
    <defs>
        <clipPath id="clip0_251_3">
            <rect width="205.15" height="205.15" fill="white"
                  transform="matrix(-0.780954 -0.624589 -0.624589 0.780954 288.347 128.197)"/>
        </clipPath>
    </defs>
</svg>
