<svg width="256" height="256" viewBox="0 0 18 18" fill="none" xmlns="http://www.w3.org/2000/svg">
<path d="M17.9724 6.83227C17.906 6.61816 17.7294 6.46212 17.5169 6.4298L11.9815 5.58676L9.50596 0.329621C9.41091 0.127772 9.21478 0 9 0C8.78522 0 8.58909 0.127772 8.49404 0.329621L6.0185 5.58676L0.483087 6.4298C0.270561 6.46212 0.0939955 6.61816 0.0276422 6.83227C-0.0387486 7.04634 0.016621 7.28135 0.17043 7.43845L4.17585 11.5305L3.23028 17.3087C3.19398 17.5305 3.28102 17.7547 3.45476 17.8871C3.62847 18.0193 3.85879 18.0368 4.04897 17.9321L9 15.204L13.951 17.9321C14.0336 17.9775 14.1238 18 14.2135 18C14.3305 18 14.4469 17.9619 14.5452 17.8871C14.719 17.7548 14.806 17.5305 14.7697 17.3087L13.8242 11.5306L17.8296 7.43849C17.9834 7.28131 18.0387 7.0463 17.9724 6.83227Z" fill="#FFB800"/>
</svg>
