<svg width="100" height="100" viewBox="0 0 100 100" fill="none" xmlns="http://www.w3.org/2000/svg">
<path d="M0 18.7948C0 8.41467 8.33029 0 18.6063 0H67.2689C77.5447 0 85.8752 8.41467 85.8752 18.7948V67.9503C85.8752 78.3302 77.5447 86.745 67.2689 86.745H18.6063C8.33029 86.745 0 78.3302 0 67.9503V18.7948ZM18.6063 8.6745C13.0731 8.6745 8.58752 13.2055 8.58752 18.7948V67.9503C8.58752 73.5395 13.0731 78.0705 18.6063 78.0705H67.2689C72.8021 78.0705 77.2877 73.5395 77.2877 67.9503V18.7948C77.2877 13.2055 72.8021 8.6745 67.2689 8.6745H18.6063Z" fill="black"/>
<path d="M30.7987 49.474V49.2669L30.6172 49.1672L25.9654 46.6122L25.4469 46.3274V46.9189V58.5947C25.4469 61.5116 27.7676 63.6554 31.0112 65.0524C34.2736 66.4576 38.5905 67.1682 42.8631 67.1682C47.1367 67.1682 51.4544 66.4576 54.7175 65.0524C57.9617 63.6554 60.2828 61.5117 60.2828 58.5947V46.9189V46.3274L59.7643 46.6122L55.1125 49.1672L54.931 49.2669V49.474V58.5947C54.931 58.5925 54.931 58.5927 54.9302 58.5951C54.9269 58.6065 54.909 58.6672 54.8134 58.7813C54.7064 58.9089 54.5333 59.0657 54.2846 59.2416C53.7886 59.5921 53.0296 59.9915 52.0067 60.3681C49.9638 61.1203 46.9008 61.7694 42.8631 61.7694C38.8266 61.7694 35.7645 61.1203 33.7222 60.3681C32.6996 59.9915 31.9408 59.5921 31.445 59.2416C31.1963 59.0658 31.0232 58.9089 30.9163 58.7813C30.8207 58.6672 30.8028 58.6064 30.7995 58.5951C30.7987 58.5927 30.7987 58.5925 30.7987 58.5947V49.474Z" fill="black" stroke="black" stroke-width="0.7"/>
<path d="M74.422 61.4429L74.4221 61.4431C74.7227 62.3263 74.5468 63.2863 73.9571 64.0245C73.3697 64.7611 72.4442 65.1872 71.4705 65.1872H66.3368C65.3628 65.1872 64.4376 64.761 63.8492 64.0248L63.8489 64.0245C63.2597 63.2857 63.0838 62.3254 63.3855 61.4429L74.422 61.4429ZM74.422 61.4429L71.4609 52.7624C72.158 52.1445 72.6102 51.2769 72.6102 50.2936C72.6102 48.8613 71.6667 47.6671 70.3634 47.1466V39.1741L72.449 38.1312C73.3872 37.6631 73.9881 36.7484 73.9881 35.7373C73.9881 34.7261 73.3871 33.8125 72.4494 33.3437C72.4493 33.3437 72.4493 33.3437 72.4493 33.3437L44.225 19.224C43.3578 18.7902 42.3167 18.7899 41.4509 19.224L41.4506 19.2241L13.2238 33.3437C12.2862 33.8126 11.6852 34.7261 11.6852 35.7373C11.6852 36.7485 12.2861 37.663 13.2238 38.132L13.3804 37.819L13.2238 38.132L41.4509 52.2489L41.4511 52.249C41.8847 52.4655 42.3618 52.573 42.8374 52.573C43.313 52.573 43.7902 52.4654 44.2242 52.2478L67.442 40.6357V47.1463C66.1384 47.6662 65.1963 48.8614 65.1963 50.2934C65.1963 51.2766 65.6485 52.1458 66.3456 52.7641L63.3856 61.4426L74.422 61.4429ZM42.8374 24.7058L64.8893 35.7373L42.8375 46.767L20.7836 35.7373L42.8374 24.7058Z" fill="black" stroke="black" stroke-width="0.7"/>
<path d="M32.7312 100C26.1439 100 20.3562 96.5419 17.0498 91.3257H69.9438C81.8009 91.3257 91.4126 81.616 91.4126 69.6394V16.2095C96.5772 19.5494 100 25.3957 100 32.0497V69.6394C100 86.4067 86.5435 100 69.9438 100H32.7312Z" fill="black"/>
</svg>
