<svg width="101" height="101" viewBox="0 0 101 101" fill="none" xmlns="http://www.w3.org/2000/svg">
<path d="M61.4072 58.6545L61.4075 58.654L61.4176 58.6358C61.6043 58.3001 61.7763 57.9909 61.89 57.565C62.0042 57.1371 62.0539 56.6171 62.0539 55.8396V52.9825C62.0539 51.9172 61.1906 51.0539 60.1254 51.0539H25.8394C24.7743 51.0539 23.9108 51.9171 23.9108 52.9825V55.8396C23.9108 56.5577 23.9779 57.0568 24.1321 57.4734C24.2828 57.8805 24.5063 58.1746 24.7328 58.4727L24.7495 58.4946L24.7497 58.4949C24.8945 58.6853 25.05 58.89 25.2229 59.1542C26.0697 60.4505 27.3276 61.524 28.9793 62.3822L28.9793 62.3822C32.3068 64.1106 37.1303 64.9111 42.9824 64.9111C50.3007 64.9111 55.0827 64.1003 58.0201 62.4022L58.0202 62.4022C59.461 61.569 60.4508 60.5261 61.0901 59.2477C61.2059 59.0165 61.3105 58.8281 61.4072 58.6545ZM23.97 67.9916L23.7024 68.414L23.97 67.9916C21.535 66.4491 19.635 64.8905 18.3398 62.989C17.0523 61.0987 16.3394 58.835 16.3394 55.8396V52.9825C16.3394 47.7357 20.5927 43.4824 25.8394 43.4824H60.1254C65.3721 43.4824 69.6254 47.7357 69.6254 52.9825V55.8396C69.6254 58.7833 69.1112 61.0312 68.0575 62.9234C67.0022 64.8185 65.3817 66.4003 63.0953 67.9722L63.3728 68.376L63.0952 67.9722C58.6797 71.0082 52.0242 72.4826 42.9824 72.4826C35.337 72.4826 28.7138 70.9966 23.97 67.9916Z" fill="black" stroke="white"/>
<path d="M56.7679 27.8414C56.7679 35.4551 50.5957 41.6272 42.9821 41.6272C35.3684 41.6272 29.1963 35.4551 29.1963 27.8414C29.1963 20.2278 35.3684 14.0557 42.9821 14.0557C50.5957 14.0557 56.7679 20.2278 56.7679 27.8414ZM49.1964 27.8414C49.1964 24.4094 46.4143 21.6271 42.9821 21.6271C39.55 21.6271 36.7678 24.4094 36.7678 27.8414C36.7678 31.2735 39.55 34.0558 42.9821 34.0558C46.4143 34.0558 49.1964 31.2735 49.1964 27.8414Z" fill="black" stroke="white"/>
<path d="M0.125 18.6965C0.125 8.43972 8.43974 0.125 18.6965 0.125H67.2683C77.5249 0.125 85.8398 8.43972 85.8398 18.6965V67.2682C85.8398 77.5248 77.5249 85.8397 67.2683 85.8397H18.6965C8.43974 85.8397 0.125 77.5248 0.125 67.2682V18.6965ZM18.6965 8.69647C13.1737 8.69647 8.69648 13.1736 8.69648 18.6965V67.2682C8.69648 72.7911 13.1737 77.2682 18.6965 77.2682H67.2683C72.7912 77.2682 77.2684 72.7911 77.2684 67.2682V18.6965C77.2684 13.1736 72.7912 8.69647 67.2683 8.69647H18.6965Z" fill="black"/>
<path d="M32.9817 100.125C26.4067 100.125 20.6298 96.7079 17.3296 91.5536H70.1248C81.9598 91.5536 91.5536 81.9593 91.5536 70.1249V17.3296C96.7084 20.6298 100.125 26.4067 100.125 32.9817V70.1249C100.125 86.693 86.6935 100.125 70.1248 100.125H32.9817Z" fill="black"/>
</svg>
