<svg width="69" height="58" viewBox="0 0 69 58" fill="none" xmlns="http://www.w3.org/2000/svg">
<path d="M62.7232 22.307C62.7519 16.5019 62.6658 10.7256 62.4935 4.92057C62.4648 3.71358 60.9722 3.0526 60.0823 3.91474C57.4414 6.52989 54.2839 9.60485 50.6671 10.8406C50.4662 10.4383 50.0643 10.1221 49.4328 10.1796C47.6244 10.2658 45.7872 10.2371 43.9788 10.1509C43.7779 10.0647 43.577 10.0072 43.3186 10.0359C43.1464 10.0647 43.0029 10.0647 42.8306 10.0934C41.9982 10.0359 41.1945 9.97844 40.362 9.92097C40.0176 9.86349 39.6444 9.83476 39.2999 9.83476C35.4248 9.51864 31.5783 9.1163 27.7031 9.14504C24.2011 9.17378 20.8139 10.0072 17.3406 10.1509C16.3934 10.1796 15.6757 10.1221 14.9581 9.4899C14.2979 8.91514 13.7238 8.25417 13.0923 7.65067C12.0015 6.58737 10.9394 5.49532 9.84865 4.43202C9.87735 4.25959 9.87736 4.08717 9.90606 3.91474C10.0496 2.36289 8.01153 2.16172 7.32261 3.25376C6.60499 3.59862 6.117 4.43202 6.6911 5.17921C6.77722 5.29416 6.86333 5.38038 6.92074 5.49533C6.00218 14.8926 5.34197 24.2899 6.26053 33.7447C6.6624 37.8542 7.09296 42.0787 8.72915 45.9009C10.3653 49.6655 13.2645 52.3669 17.0823 53.8613C21.3593 55.5568 26.0669 55.5281 30.6023 55.6143C35.5109 55.7005 40.5629 56.1316 45.4715 55.758C49.9208 55.4131 53.5089 53.344 56.322 49.9242C56.4368 49.7805 56.5516 49.6368 56.6664 49.4931C57.097 49.3782 57.4415 49.0908 57.585 48.5448C57.6137 48.4585 57.6137 48.3723 57.6424 48.2861C59.9101 45.3548 61.6324 42.3086 62.2065 38.4577C62.9528 33.17 62.6945 27.6523 62.7232 22.307Z" fill="url(#paint0_linear_903_2054)"/>
<path d="M5.56493 42.1664C5.33529 41.3617 5.27788 40.557 5.13436 39.7524C5.04824 39.2926 5.01954 38.804 4.99083 38.3442C4.99083 38.0856 4.90471 37.9994 4.67507 37.9132C3.44075 37.4821 2.23514 37.051 1.02953 36.6199C0.94342 36.5912 0.886013 36.5625 0.799898 36.5337C0.197094 36.3038 -0.0899588 35.7578 0.0248611 35.0681C0.110976 34.5221 0.627665 34.0335 1.17306 33.976C1.4027 33.9473 1.60364 34.0048 1.80457 34.091C2.72313 34.4071 3.6417 34.752 4.56026 35.0681C4.67508 35.0968 4.76118 35.1543 4.9047 35.1543C4.99082 35.0681 4.96212 34.9531 4.96212 34.8669C4.96212 34.752 4.96212 34.637 4.96212 34.5221C4.96212 23.4579 4.96212 12.3938 4.96212 1.32973C4.96212 1.24352 4.96212 1.1573 4.96212 1.07109C4.93341 0.266426 5.82328 -0.279598 6.56961 0.151471C6.74184 0.237685 6.88535 0.381378 7.02888 0.49633C10.4735 3.22644 13.9468 5.95654 17.3914 8.68665C17.621 8.85908 17.8219 8.94528 18.109 8.85907C19.1711 8.6579 20.2332 8.45674 21.3239 8.28431C22.2425 8.14062 23.1611 8.05441 24.0509 7.91072C25.6297 7.68082 27.2085 7.56586 28.7872 7.47965C31.3133 7.30722 33.868 7.24975 36.4228 7.33596C36.882 7.3647 37.3413 7.3647 37.8006 7.3647C38.834 7.3647 39.8674 7.47965 40.9007 7.56586C41.6471 7.62334 42.3934 7.68082 43.1684 7.76703C44.2592 7.88198 45.35 8.05441 46.4408 8.16936C47.7612 8.34179 49.0816 8.62916 50.4021 8.85907C50.6891 8.91654 50.8614 8.83034 51.0623 8.68665C54.3921 6.04276 57.7506 3.39886 61.0803 0.78371C61.2813 0.611282 61.4822 0.467589 61.6831 0.295161C62.0563 0.00778133 62.4869 -0.107172 62.9462 0.122731C63.3767 0.352635 63.5203 0.726234 63.5203 1.21478C63.5203 6.3014 63.5203 11.4167 63.5203 16.5034C63.5203 22.5671 63.5203 28.6308 63.5203 34.6945C63.5203 34.8669 63.4915 35.0393 63.549 35.2405C63.6925 35.298 63.836 35.2118 63.9508 35.1543C64.9555 34.8094 65.9602 34.4358 66.9648 34.091C67.6538 33.8611 68.2566 34.1197 68.5723 34.752C68.9168 35.4417 68.601 36.2751 67.8834 36.5337C66.5917 36.9935 65.2712 37.4533 63.9795 37.9132C63.836 37.9706 63.6638 37.9994 63.5203 38.1431C63.4341 39.465 63.2332 40.8157 62.9748 42.1376C63.1471 42.2238 63.348 42.2238 63.5203 42.2238C64.4388 42.2238 65.3287 42.2526 66.2472 42.2526C66.4769 42.2526 66.6778 42.2526 66.9074 42.2526C67.5963 42.2813 67.9121 42.4537 68.113 43.0285C68.314 43.6033 68.1704 44.3217 67.7686 44.6953C67.5963 44.8677 67.3667 44.8965 67.1371 44.8965C65.7018 44.8677 64.2666 44.839 62.8313 44.8103C62.6017 44.8103 62.4008 44.8103 62.2285 44.8103C62.1137 44.8677 62.1137 44.9539 62.085 45.0114C61.1377 47.3967 59.7599 49.5233 57.9515 51.3338C56.5449 52.7707 54.9374 53.9489 53.1577 54.8973C51.2345 55.9031 49.2252 56.6216 47.101 57.0526C46.125 57.2538 45.1491 57.34 44.1444 57.34C37.6571 57.3113 31.1411 57.3113 24.6537 57.34C23.2472 57.34 21.8693 57.1676 20.5202 56.8515C18.5396 56.3917 16.645 55.6445 14.8653 54.6386C13.0856 53.6328 11.5068 52.3683 10.129 50.8452C9.09563 49.6957 8.20578 48.46 7.45945 47.1093C7.11499 46.4771 6.79924 45.8161 6.51219 45.1264C6.48349 45.0402 6.45478 44.9539 6.39737 44.8965C6.25384 44.8103 6.08162 44.839 5.93809 44.839C4.56026 44.8677 3.21113 44.8965 1.83329 44.8965C1.51753 44.8965 1.20177 44.9252 0.943423 44.6378C0.656374 44.3217 0.541564 43.9481 0.541564 43.5458C0.541564 43.4021 0.570255 43.2584 0.59896 43.1434C0.742485 42.5687 1.11565 42.2526 1.74716 42.2526C2.80924 42.2238 3.90003 42.2238 4.96212 42.2238C5.13435 42.2238 5.33529 42.2526 5.56493 42.1664ZM9.29658 44.8677C9.52622 45.4425 9.81326 45.9598 10.129 46.4771C11.3346 48.5175 12.9421 50.1842 14.8653 51.5349C16.7312 52.8569 18.7979 53.7478 21.0369 54.2938C22.1851 54.5812 23.3333 54.7249 24.5389 54.7249C31.1985 54.6961 37.8293 54.7249 44.4888 54.7249C45.2639 54.7249 46.0102 54.6099 46.7565 54.4662C48.6798 54.0639 50.4882 53.4029 52.1818 52.4258C53.1577 51.8798 54.0763 51.2188 54.9375 50.5004C56.0283 49.5808 56.9755 48.5175 57.7793 47.3392C58.2672 46.6208 58.7265 45.8736 59.071 45.0689C59.0997 44.9827 59.1858 44.9252 59.0997 44.8103C58.9562 44.7528 58.8126 44.7528 58.6978 44.7528C58.1237 44.7528 57.5496 44.724 56.9755 44.7528C56.5736 44.7528 56.2866 44.5516 56.1144 44.2355C55.9134 43.8906 55.8847 43.5458 55.9421 43.1434C56.057 42.4537 56.4588 42.0802 57.1764 42.0802C58.0663 42.0802 58.9561 42.1089 59.8747 42.1376C60.1905 42.1376 60.1905 42.1376 60.2766 41.8502C60.5062 41.0456 60.621 40.2122 60.7359 39.3501C60.7359 39.2638 60.7646 39.1776 60.7072 39.0914C60.5636 39.0914 60.4775 39.1489 60.334 39.1776C59.2145 39.5799 58.0663 39.9823 56.9468 40.3846C55.856 40.7582 55.1384 39.7524 55.2532 38.9477C55.3106 38.4304 55.5977 38.0856 56.1144 37.9132C57.5496 37.4246 58.9849 36.9073 60.4201 36.39C60.5636 36.3326 60.7359 36.3038 60.8794 36.1889C60.8794 25.6133 60.8794 15.009 60.8794 4.40469C60.6784 4.43342 60.5923 4.54838 60.4488 4.63459C57.5496 6.87615 54.6791 9.11771 51.7799 11.388C51.4642 11.6179 51.1484 11.7041 50.7752 11.6179C49.4261 11.3593 48.077 11.1006 46.7565 10.8707C45.838 10.727 44.9481 10.6121 44.0296 10.4971C43.2258 10.4109 42.4221 10.2672 41.6184 10.2385C41.5322 10.2385 41.4174 10.2098 41.3026 10.296C41.2739 10.4397 41.2739 10.5833 41.2739 10.727C41.2739 12.8536 41.2739 14.9803 41.2739 17.1069C41.2739 17.2793 41.2739 17.4517 41.2452 17.6529C41.1304 18.2276 40.6711 18.6012 40.0683 18.63C39.4368 18.6587 38.9201 18.3139 38.7479 17.7391C38.6904 17.5667 38.6904 17.3942 38.6904 17.1931C38.6904 14.9515 38.6904 12.71 38.6904 10.4684C38.6904 10.3247 38.7192 10.1523 38.6043 10.0086C37.5997 9.95111 36.6237 9.89364 35.5616 9.95112C35.5616 10.1523 35.5616 10.296 35.5616 10.4397C35.5616 11.8766 35.5616 13.3135 35.5616 14.7503C35.5616 16.101 35.5616 17.4517 35.5616 18.8311C35.5616 19.2047 35.5042 19.5496 35.2458 19.837C34.9014 20.2106 34.4708 20.2968 33.9828 20.268C33.4662 20.2106 33.0356 19.837 32.9208 19.3484C32.8633 19.1473 32.8633 18.9461 32.8633 18.7449C32.8633 15.9861 32.8633 13.2272 32.8633 10.4971C32.8633 10.3247 32.8921 10.181 32.8346 10.0086C32.2892 9.92237 30.1077 9.97986 29.7919 10.1235C29.7345 10.2672 29.7632 10.4397 29.7632 10.5833C29.7632 12.7962 29.7632 15.009 29.7632 17.2218C29.7632 17.423 29.7632 17.5954 29.7058 17.7966C29.5336 18.3713 29.0169 18.7162 28.3854 18.6587C27.8113 18.63 27.352 18.2276 27.2372 17.6529C27.2085 17.4805 27.2085 17.308 27.2085 17.1069C27.2085 14.9803 27.2085 12.8536 27.2085 10.727C27.2085 10.5833 27.2372 10.4109 27.151 10.296C27.0649 10.2385 26.9788 10.2672 26.8927 10.2672C26.3186 10.296 25.7732 10.3534 25.2278 10.4109C24.1083 10.5546 22.9888 10.6696 21.898 10.842C20.4915 11.0719 19.085 11.3018 17.6784 11.6179C17.334 11.6754 17.0469 11.6179 16.7886 11.4168C15.9561 10.7558 15.1237 10.0948 14.2912 9.46257C12.2245 7.85324 10.1577 6.24392 8.09097 4.63459C7.97615 4.54838 7.86132 4.40469 7.68909 4.43342C7.68909 15.009 7.68909 25.5846 7.68909 36.1601C8.14837 36.3326 8.60765 36.4762 9.03823 36.6487C10.2438 37.0797 11.4782 37.5108 12.6838 37.9419C13.0856 38.0856 13.3727 38.3442 13.4875 38.7465C13.631 39.2926 13.4875 39.7524 13.0856 40.1547C12.6837 40.5283 12.2245 40.557 11.7365 40.3846C10.5596 39.9535 9.38268 39.5512 8.20577 39.1489C8.09095 39.0914 7.94743 39.0339 7.7752 39.0627C7.89002 40.126 8.03354 41.1605 8.3493 42.1376C8.52153 42.1951 8.66505 42.1951 8.77987 42.1951C9.75584 42.1664 10.7318 42.1664 11.7078 42.1376C12.1384 42.1376 12.4254 42.3388 12.6263 42.7124C12.8273 43.086 12.856 43.4596 12.7699 43.8619C12.6551 44.4654 12.2819 44.7815 11.6504 44.8103C11.0189 44.8103 10.3587 44.8103 9.72715 44.839C9.58363 44.7815 9.4401 44.7528 9.29658 44.8677Z" fill="black"/>
<g filter="url(#filter0_d_903_2054)">
<path d="M20.7 31.708C22.8241 31.708 24.489 33.4035 24.489 35.5301C24.489 37.628 22.7667 39.3235 20.6713 39.3235C18.5758 39.3235 16.9109 37.628 16.9109 35.5301C16.9109 33.3748 18.5758 31.708 20.7 31.708Z" fill="black"/>
<path d="M20.7 31.7979C22.7735 31.7979 24.3991 33.4522 24.3991 35.5301C24.3991 37.5776 22.7179 39.2337 20.6713 39.2337C18.6264 39.2337 17.0008 37.5794 17.0008 35.5301C17.0008 33.4239 18.626 31.7979 20.7 31.7979Z" stroke="black" stroke-width="0.179758"/>
</g>
<path d="M48.0556 39.3503C45.9601 39.379 44.2378 37.7122 44.2091 35.5856C44.1804 33.5165 45.874 31.7922 47.9408 31.7347C50.0362 31.706 51.7873 33.3728 51.816 35.4707C51.816 37.6548 50.1511 39.3216 48.0556 39.3503Z" fill="black"/>
<path d="M34.299 37.9717C35.1602 37.9717 36.05 37.9717 36.9111 37.9717C37.1408 37.9717 37.3417 38.0004 37.5427 38.1154C38.0019 38.3453 38.1455 38.9775 37.801 39.3511C36.7676 40.5294 35.763 41.7364 34.7296 42.9434C34.4425 43.2882 34.2416 43.2882 33.9546 42.9434C32.9499 41.7651 31.9452 40.5869 30.9119 39.4373C30.6535 39.15 30.5674 38.8338 30.7396 38.489C30.9119 38.1441 31.1989 38.0004 31.5721 38.0004C32.4906 37.9717 33.3805 37.9717 34.299 37.9717Z" fill="black"/>
<defs>
<filter id="filter0_d_903_2054" x="16.1919" y="31.708" width="9.01619" height="9.0533" filterUnits="userSpaceOnUse" color-interpolation-filters="sRGB">
<feFlood flood-opacity="0" result="BackgroundImageFix"/>
<feColorMatrix in="SourceAlpha" type="matrix" values="0 0 0 0 0 0 0 0 0 0 0 0 0 0 0 0 0 0 127 0" result="hardAlpha"/>
<feOffset dy="0.719033"/>
<feGaussianBlur stdDeviation="0.359517"/>
<feComposite in2="hardAlpha" operator="out"/>
<feColorMatrix type="matrix" values="0 0 0 0 0 0 0 0 0 0 0 0 0 0 0 0 0 0 0.25 0"/>
<feBlend mode="normal" in2="BackgroundImageFix" result="effect1_dropShadow_903_2054"/>
<feBlend mode="normal" in="SourceGraphic" in2="effect1_dropShadow_903_2054" result="shape"/>
</filter>
<linearGradient id="paint0_linear_903_2054" x1="34.2816" y1="2.56641" x2="34.2816" y2="55.908" gradientUnits="userSpaceOnUse">
<stop stop-color="#FFA800" stop-opacity="0.7"/>
<stop offset="1" stop-color="#FA0606" stop-opacity="0.7"/>
</linearGradient>
</defs>
</svg>
