<svg width="387" height="641" viewBox="0 0 387 641" fill="none" xmlns="http://www.w3.org/2000/svg">
<path d="M319.178 249.385C319.499 184.491 318.536 119.918 316.611 55.0235C316.29 41.5306 299.603 34.1417 289.656 43.7794C260.134 73.014 224.836 107.389 184.404 121.203C182.158 116.705 177.665 113.171 170.605 113.814C150.389 114.778 129.852 114.456 109.636 113.493C107.39 112.529 105.144 111.886 102.256 112.208C100.33 112.529 98.7258 112.529 96.8004 112.85C87.4946 112.208 78.5097 111.565 69.2039 110.923C65.3532 110.28 61.1816 109.959 57.3309 109.959C14.0106 106.425 -28.9886 101.927 -72.3089 102.249C-111.458 102.57 -149.323 111.886 -188.151 113.493C-198.74 113.814 -206.762 113.171 -214.784 106.104C-222.165 99.6785 -228.583 92.2896 -235.642 85.5432C-247.836 73.6566 -259.709 61.4487 -271.903 49.5621C-271.582 47.6345 -271.582 45.707 -271.261 43.7794C-269.657 26.4314 -292.44 24.1826 -300.141 36.3904C-308.164 40.2455 -313.619 49.5621 -307.201 57.9148C-306.238 59.1999 -305.276 60.1637 -304.634 61.4487C-314.902 166.501 -322.283 271.552 -312.014 377.247C-307.522 423.187 -302.709 470.412 -284.418 513.139C-266.127 555.224 -233.717 585.423 -191.038 602.128C-143.226 621.083 -90.5997 620.761 -39.899 621.725C14.9733 622.689 71.4501 627.508 126.322 623.331C176.06 619.476 216.172 596.346 247.619 558.116C248.903 556.509 250.186 554.903 251.47 553.297C256.283 552.012 260.134 548.799 261.738 542.695C262.059 541.732 262.059 540.768 262.38 539.804C287.73 507.035 306.984 472.982 313.402 429.933C321.745 370.821 318.857 309.14 319.178 249.385Z" fill="url(#paint0_linear_68_34)"/>
<path d="M-319.79 471.375C-322.357 462.38 -322.999 453.384 -324.603 444.389C-325.566 439.249 -325.887 433.788 -326.208 428.647C-326.208 425.756 -327.171 424.792 -329.738 423.829C-343.536 419.01 -357.013 414.191 -370.491 409.372C-371.454 409.051 -372.095 408.729 -373.058 408.408C-379.797 405.838 -383.006 399.734 -381.722 392.024C-380.759 385.92 -374.983 380.458 -368.886 379.816C-366.319 379.495 -364.073 380.137 -361.827 381.101C-351.558 384.635 -341.29 388.49 -331.021 392.024C-329.738 392.345 -328.775 392.987 -327.171 392.987C-326.208 392.024 -326.529 390.739 -326.529 389.775C-326.529 388.49 -326.529 387.205 -326.529 385.92C-326.529 262.235 -326.529 138.55 -326.529 14.8649C-326.529 13.9012 -326.529 12.9374 -326.529 11.9736C-326.85 2.97836 -316.902 -3.12561 -308.559 1.69328C-306.633 2.65706 -305.029 4.2634 -303.425 5.54844C-264.918 36.0681 -226.09 66.5878 -187.583 97.1074C-185.016 99.035 -182.77 99.9987 -179.561 99.0349C-167.688 96.7861 -155.815 94.5373 -143.621 92.6097C-133.353 91.0034 -123.084 90.0397 -113.136 88.4334C-95.4874 85.8633 -77.8384 84.5783 -60.1894 83.6145C-31.951 81.6869 -3.39163 81.0444 25.1677 82.0082C30.3019 82.3295 35.4361 82.3295 40.5704 82.3295C52.1224 82.3295 63.6745 83.6145 75.2265 84.5782C83.5697 85.2208 91.9129 85.8633 100.577 86.8271C112.771 88.1121 124.965 90.0397 137.158 91.3247C151.919 93.2523 166.68 96.4648 181.441 99.0349C184.65 99.6774 186.576 98.7137 188.822 97.1074C226.045 67.5516 263.59 37.9957 300.813 8.76104C303.059 6.83348 305.305 5.22714 307.552 3.29958C311.723 0.086987 316.537 -1.19807 321.671 1.37201C326.484 3.94208 328.089 8.11852 328.089 13.5799C328.089 70.4429 328.089 127.627 328.089 184.49C328.089 252.276 328.089 320.062 328.089 387.847C328.089 389.775 327.768 391.702 328.409 393.951C330.014 394.594 331.618 393.63 332.902 392.987C344.133 389.132 355.364 384.956 366.596 381.101C374.297 378.531 381.036 381.422 384.565 388.49C388.416 396.2 384.886 405.517 376.864 408.408C362.424 413.548 347.663 418.688 333.223 423.829C331.618 424.471 329.693 424.792 328.089 426.399C327.126 441.177 324.88 456.276 321.992 471.054C323.917 472.017 326.163 472.018 328.089 472.018C338.357 472.018 348.305 472.339 358.573 472.339C361.14 472.339 363.386 472.339 365.954 472.339C373.655 472.66 377.185 474.588 379.431 481.013C381.677 487.438 380.073 495.469 375.58 499.646C373.655 501.573 371.088 501.895 368.521 501.895C352.476 501.573 336.432 501.252 320.387 500.931C317.82 500.931 315.574 500.931 313.649 500.931C312.365 501.573 312.365 502.537 312.044 503.18C301.455 529.844 286.052 553.617 265.836 573.857C250.112 589.92 232.142 603.091 212.247 613.693C190.747 624.937 168.285 632.969 144.539 637.787C133.629 640.036 122.718 641 111.487 641C38.9658 640.679 -33.8763 640.679 -106.398 641C-122.121 641 -137.524 639.072 -152.606 635.539C-174.747 630.398 -195.926 622.046 -215.821 610.802C-235.717 599.557 -253.366 585.422 -268.768 568.395C-280.321 555.545 -290.268 541.731 -298.611 526.632C-302.462 519.564 -305.992 512.175 -309.201 504.465C-309.522 503.501 -309.842 502.537 -310.484 501.895C-312.089 500.931 -314.014 501.252 -315.618 501.252C-331.021 501.573 -346.103 501.895 -361.506 501.895C-365.036 501.895 -368.566 502.216 -371.454 499.003C-374.662 495.469 -375.946 491.293 -375.946 486.795C-375.946 485.189 -375.625 483.583 -375.304 482.298C-373.7 475.872 -369.528 472.339 -362.469 472.339C-350.596 472.017 -338.402 472.018 -326.529 472.018C-324.603 472.018 -322.357 472.339 -319.79 471.375ZM-278.074 501.573C-275.507 507.998 -272.298 513.781 -268.768 519.564C-255.291 542.373 -237.321 561.006 -215.821 576.106C-194.964 590.883 -171.859 600.843 -146.83 606.947C-133.994 610.159 -121.159 611.765 -107.681 611.765C-33.2346 611.444 40.8912 611.765 115.338 611.765C124.002 611.765 132.345 610.48 140.688 608.874C162.188 604.376 182.404 596.988 201.337 586.065C212.247 579.961 222.516 572.572 232.142 564.54C244.336 554.26 254.926 542.373 263.911 529.202C269.366 521.17 274.5 512.817 278.351 503.822C278.671 502.858 279.634 502.216 278.671 500.931C277.067 500.288 275.462 500.288 274.179 500.288C267.761 500.288 261.343 499.967 254.925 500.288C250.433 500.288 247.224 498.04 245.299 494.506C243.052 490.651 242.732 486.795 243.373 482.298C244.657 474.587 249.149 470.411 257.171 470.411C267.119 470.411 277.067 470.732 287.335 471.054C290.865 471.054 290.865 471.054 291.828 467.841C294.395 458.846 295.678 449.529 296.962 439.892C296.962 438.928 297.283 437.964 296.641 437C295.037 437 294.074 437.643 292.469 437.964C279.955 442.461 267.119 446.959 254.605 451.457C242.411 455.633 234.388 444.389 235.672 435.394C236.314 429.611 239.523 425.756 245.299 423.829C261.343 418.367 277.388 412.584 293.432 406.802C295.037 406.159 296.962 405.838 298.566 404.553C298.566 286.329 298.566 167.784 298.566 49.2397C296.32 49.5609 295.358 50.846 293.753 51.8098C261.343 76.8681 229.254 101.926 196.844 127.306C193.314 129.876 189.785 130.84 185.613 129.876C170.531 126.985 155.449 124.093 140.688 121.523C130.42 119.917 120.472 118.632 110.204 117.347C101.219 116.383 92.2338 114.777 83.2488 114.455C82.2861 114.455 81.0027 114.134 79.7191 115.098C79.3982 116.704 79.3981 118.31 79.3981 119.917C79.3981 143.69 79.3981 167.463 79.3981 191.236C79.3981 193.164 79.3982 195.092 79.0773 197.34C77.7937 203.766 72.6593 207.942 65.9206 208.263C58.861 208.584 53.0851 204.729 51.1597 198.304C50.5179 196.377 50.5179 194.449 50.5179 192.2C50.5179 167.142 50.5179 142.084 50.5179 117.025C50.5179 115.419 50.8388 113.492 49.5553 111.885C38.3241 111.243 27.4139 110.6 15.5409 111.243C15.5409 113.492 15.5409 115.098 15.5409 116.704C15.5409 132.767 15.5409 148.83 15.5409 164.893C15.5409 179.992 15.5409 195.092 15.5409 210.512C15.5409 214.688 14.899 218.544 12.011 221.756C8.16032 225.933 3.34708 226.896 -2.10807 226.575C-7.8841 225.933 -12.6975 221.756 -13.9811 216.295C-14.6229 214.046 -14.6229 211.797 -14.6229 209.548C-14.6229 178.707 -14.6229 147.866 -14.6229 117.347C-14.6229 115.419 -14.3019 113.813 -14.9437 111.885C-21.0406 110.922 -45.4284 111.564 -48.9582 113.17C-49.6 114.777 -49.2791 116.704 -49.2791 118.31C-49.2791 143.047 -49.2791 167.785 -49.2791 192.521C-49.2791 194.77 -49.2791 196.698 -49.9209 198.947C-51.8462 205.372 -57.6222 209.227 -64.6818 208.584C-71.0996 208.263 -76.2339 203.766 -77.5174 197.34C-77.8383 195.413 -77.8384 193.485 -77.8384 191.236C-77.8384 167.463 -77.8384 143.69 -77.8384 119.917C-77.8384 118.31 -77.5176 116.383 -78.4802 115.098C-79.4429 114.455 -80.4055 114.777 -81.3681 114.777C-87.786 115.098 -93.8828 115.74 -99.9798 116.383C-112.495 117.989 -125.009 119.274 -137.203 121.202C-152.927 123.772 -168.651 126.342 -184.374 129.876C-188.225 130.518 -191.434 129.876 -194.322 127.627C-203.628 120.238 -212.933 112.849 -222.239 105.781C-245.343 87.7908 -268.447 69.8003 -291.552 51.8098C-292.835 50.846 -294.119 49.2397 -296.044 49.561C-296.044 167.784 -296.044 286.008 -296.044 404.232C-290.91 406.159 -285.776 407.765 -280.962 409.693C-267.485 414.512 -253.687 419.331 -240.209 424.15C-235.717 425.756 -232.508 428.647 -231.224 433.145C-229.62 439.249 -231.224 444.389 -235.717 448.887C-240.209 453.063 -245.343 453.384 -250.798 451.457C-263.955 446.638 -277.112 442.14 -290.268 437.643C-291.552 437 -293.156 436.358 -295.082 436.679C-293.798 448.566 -292.194 460.131 -288.664 471.054C-286.738 471.696 -285.134 471.696 -283.85 471.696C-272.94 471.375 -262.03 471.375 -251.119 471.054C-246.306 471.054 -243.097 473.302 -240.851 477.479C-238.605 481.655 -238.284 485.832 -239.246 490.329C-240.53 497.076 -244.702 500.61 -251.761 500.931C-258.821 500.931 -266.201 500.931 -273.261 501.252C-274.865 500.61 -276.47 500.288 -278.074 501.573Z" fill="black"/>
<path d="M155.204 439.893C131.779 440.214 112.526 421.581 112.205 397.807C111.884 374.677 130.816 355.401 153.921 354.759C177.346 354.437 196.92 373.071 197.241 396.523C197.241 420.938 178.629 439.571 155.204 439.893Z" fill="black"/>
<path d="M1.42153 424.471C11.0482 424.471 20.9957 424.471 30.6223 424.471C33.1894 424.471 35.4357 424.792 37.6819 426.077C42.8161 428.647 44.4206 435.715 40.57 439.892C29.018 453.063 17.7868 466.556 6.23486 480.049C3.02597 483.904 0.779715 483.904 -2.42917 480.049C-13.6603 466.878 -24.8913 453.706 -36.4433 440.855C-39.3313 437.643 -40.2941 434.109 -38.3687 430.254C-36.4434 426.399 -33.2344 424.792 -29.0629 424.792C-18.7944 424.471 -8.8469 424.471 1.42153 424.471Z" fill="black"/>
<defs>
<linearGradient id="paint0_linear_68_34" x1="1.23117" y1="28.7065" x2="1.23117" y2="625.009" gradientUnits="userSpaceOnUse">
<stop stop-color="#FFA800" stop-opacity="0.7"/>
<stop offset="1" stop-color="#FA0606" stop-opacity="0.7"/>
</linearGradient>
</defs>
</svg>
