<svg width="46" height="43" viewBox="0 0 46 43" fill="none" xmlns="http://www.w3.org/2000/svg">
<path d="M23.611 17.9124C24.96 17.9124 26.0535 16.8188 26.0535 15.4699C26.0535 14.1209 24.96 13.0273 23.611 13.0273C22.262 13.0273 21.1685 14.1209 21.1685 15.4699C21.1685 16.8188 22.262 17.9124 23.611 17.9124Z" fill="#238F19"/>
<path d="M39.4982 6.30539C37.534 4.30136 35.1883 2.71099 32.5995 1.62807C30.0107 0.545142 27.2313 -0.00839748 24.4252 9.62859e-05H22.7969C22.365 0.000100605 21.9508 0.17166 21.6454 0.477034C21.3401 0.782408 21.1685 1.19658 21.1685 1.62845V7.23197L0.774952 19.7818C0.584291 19.8992 0.419872 20.0545 0.291963 20.2383C0.164055 20.422 0.0754046 20.6302 0.0315499 20.8497C-0.0123048 21.0692 -0.0104218 21.2954 0.037081 21.5142C0.0845839 21.733 0.176686 21.9396 0.307635 22.1212L3.11392 26.0122C3.82393 27.0032 4.79912 27.7739 5.92745 28.2356C7.05578 28.6973 8.29148 28.8313 9.49256 28.6223C12.271 28.152 17.3477 27.7609 22.0155 29.8824L16.6951 37.331C15.1655 36.5982 13.7478 35.6518 12.4845 34.52C12.1627 34.2319 11.7397 34.0835 11.3084 34.1074C10.8772 34.1312 10.4731 34.3254 10.1851 34.6472C9.89703 34.969 9.74861 35.392 9.77247 35.8233C9.79633 36.2545 9.99051 36.6586 10.3123 36.9466C14.1907 40.4244 19.2185 42.3445 24.4278 42.3372C24.5693 42.3372 24.711 42.3359 24.8528 42.3331C28.9896 42.2494 33.0113 40.9553 36.4206 38.6106C39.8298 36.2659 42.4772 32.9735 44.0354 29.1403C45.5936 25.3072 45.9942 21.1015 45.1879 17.0431C44.3815 12.9847 42.4034 9.25165 39.4982 6.30539ZM37.1119 33.7802C33.852 37.0852 29.4298 38.9859 24.7884 39.077C23.1287 39.1105 21.4724 38.9143 19.8665 38.494L25.2889 30.9027C28.1525 30.6822 30.8277 29.3898 32.7804 27.2837C34.7332 25.1775 35.8199 22.4124 35.8237 19.5403C35.8237 19.1085 35.6521 18.6943 35.3467 18.3889C35.0414 18.0835 34.6272 17.912 34.1953 17.912C33.7635 17.912 33.3493 18.0835 33.0439 18.3889C32.7385 18.6943 32.567 19.1085 32.567 19.5403C32.5645 21.6267 31.7621 23.6328 30.3251 25.1454C28.8881 26.6581 26.9258 27.5622 24.8422 27.6715C18.9901 24.3659 12.4033 24.8266 8.94912 25.4113C8.34798 25.5164 7.72939 25.4497 7.16441 25.219C6.59944 24.9883 6.11101 24.603 5.75523 24.1071L3.97381 21.6372L23.6502 9.5287C23.8871 9.38296 24.0826 9.17898 24.2183 8.93621C24.354 8.69344 24.4252 8.41996 24.4252 8.14186V3.2568C27.9636 3.25205 31.4238 4.29676 34.3684 6.2588C37.3129 8.22083 39.6094 11.012 40.9675 14.2794C42.3255 17.5468 42.6841 21.1435 41.9978 24.6146C41.3115 28.0858 39.6112 31.2754 37.1119 33.7802Z" fill="#238F19"/>
</svg>
