<svg width="45" height="45" viewBox="0 0 45 45" fill="none" xmlns="http://www.w3.org/2000/svg">
<path d="M6.37476 6.375L5.70866 5.71519L5.71656 5.70741L6.37476 6.375ZM6.37476 38.625L5.71494 39.291L5.70716 39.2831L6.37476 38.625ZM38.6247 38.625L39.2909 39.2848L39.283 39.2927L38.6247 38.625ZM38.6247 6.375L39.2845 5.70891L39.2924 5.7168L38.6247 6.375ZM10.0747 15.1625L9.13744 15.1817C9.13228 14.9298 9.22873 14.6864 9.40507 14.5064C9.58142 14.3264 9.82277 14.225 10.0747 14.225V15.1625ZM24.1997 30.7626H25.1372C25.1372 31.2803 24.7174 31.7001 24.1997 31.7001V30.7626ZM24.1997 25.1874H23.2622C23.2622 24.9227 23.3742 24.6703 23.5705 24.4926C23.7668 24.3148 24.0291 24.2284 24.2927 24.2546L24.1997 25.1874ZM30.6623 30.7626V31.7001C30.2547 31.7001 29.8939 31.4368 29.7696 31.0487L30.6623 30.7626ZM35.0997 30.7626L36.0047 30.5179C36.0809 30.7995 36.0216 31.1006 35.8442 31.3324C35.6667 31.5641 35.3916 31.7001 35.0997 31.7001V30.7626ZM28.6872 22.9374L28.2694 23.7769C27.964 23.6246 27.7651 23.3184 27.7506 22.9774C27.736 22.6363 27.9081 22.3144 28.1997 22.1368L28.6872 22.9374ZM34.1622 15.15V14.2125C34.4438 14.2125 34.7104 14.3391 34.8886 14.5572C35.0667 14.7754 35.1372 15.062 35.0807 15.3379L34.1622 15.15ZM30.1373 15.15L29.2351 14.8953C29.3491 14.4914 29.7175 14.2125 30.1373 14.2125V15.15ZM24.1997 21.3249L24.2991 22.2572C24.0347 22.2855 23.7707 22.2 23.5729 22.0223C23.3751 21.8443 23.2622 21.591 23.2622 21.3249H24.1997ZM24.1997 15.1625V14.225C24.7174 14.225 25.1372 14.6447 25.1372 15.1625H24.1997ZM20.1623 15.1625H19.2248C19.2248 14.6447 19.6444 14.225 20.1623 14.225V15.1625ZM20.1623 25.9626H21.0998C21.0998 26.2511 20.9667 26.5238 20.7392 26.7015C20.5116 26.8791 20.215 26.9421 19.9349 26.8719L20.1623 25.9626ZM14.3747 15.1625V14.225C14.8855 14.225 15.3022 14.6338 15.3121 15.1445L14.3747 15.1625ZM2.81226 21.75C2.81226 17.5326 2.81029 14.2773 3.14867 11.7491C3.49065 9.19391 4.19539 7.24288 5.70866 5.71519L7.04079 7.03476C5.92909 8.15706 5.32136 9.64984 5.00709 11.9978C4.68922 14.3727 4.68726 17.4799 4.68726 21.75H2.81226ZM2.81226 23.25V21.75H4.68726V23.25H2.81226ZM5.70716 39.2831C4.19535 37.7498 3.49067 35.7969 3.14867 33.2415C2.81029 30.7134 2.81226 27.4613 2.81226 23.25H4.68726C4.68726 27.5138 4.68922 30.6178 5.00709 32.9929C5.32132 35.3406 5.92916 36.8377 7.04235 37.9669L5.70716 39.2831ZM21.7497 42.1875C17.5324 42.1875 14.277 42.1896 11.7488 41.8511C9.19365 41.5091 7.24264 40.8043 5.71494 39.291L7.03451 37.959C8.15681 39.0707 9.64959 39.6784 11.9976 39.9926C14.3725 40.3104 17.4796 40.3125 21.7497 40.3125V42.1875ZM23.2497 42.1875H21.7497V40.3125H23.2497V42.1875ZM39.283 39.2927C37.7496 40.8045 35.7966 41.5091 33.2414 41.8511C30.7131 42.1896 27.4609 42.1875 23.2497 42.1875V40.3125C27.5136 40.3125 30.6177 40.3104 32.9926 39.9926C35.3404 39.6784 36.8374 39.0705 37.9666 37.9573L39.283 39.2927ZM42.1872 23.25C42.1872 27.4674 42.1892 30.7228 41.8508 33.2509C41.5088 35.8061 40.8042 37.7571 39.2909 39.2848L37.9587 37.9652C39.0704 36.843 39.6782 35.3501 39.9925 33.0023C40.3103 30.6272 40.3122 27.5201 40.3122 23.25H42.1872ZM42.1872 21.75V23.25H40.3122V21.75H42.1872ZM39.2924 5.7168C40.8042 7.25021 41.5088 9.20314 41.8508 11.7584C42.1892 14.2866 42.1872 17.5388 42.1872 21.75H40.3122C40.3122 17.4862 40.3103 14.3821 39.9925 12.0072C39.6782 9.65936 39.0704 8.16229 37.9572 7.0332L39.2924 5.7168ZM23.2497 2.8125C27.4671 2.8125 30.7225 2.81053 33.2507 3.14891C35.8058 3.49089 37.7567 4.19561 39.2845 5.70891L37.9651 7.04104C36.8427 5.92933 35.35 5.32161 33.0019 5.00734C30.6271 4.68947 27.5198 4.6875 23.2497 4.6875V2.8125ZM21.7497 2.8125H23.2497V4.6875H21.7497V2.8125ZM5.71656 5.70741C7.24997 4.19559 9.20289 3.49093 11.7582 3.14891C14.2864 2.81053 17.5386 2.8125 21.7497 2.8125V4.6875C17.4859 4.6875 14.3819 4.68947 12.0069 5.00734C9.65912 5.32157 8.16204 5.92941 7.03296 7.04259L5.71656 5.70741ZM23.6997 31.7001C19.1956 31.7001 15.5632 30.1496 13.0461 27.231C10.5476 24.3341 9.24034 20.1973 9.13744 15.1817L11.0121 15.1433C11.1092 19.8776 12.3394 23.5408 14.4659 26.0064C16.5738 28.4503 19.654 29.8251 23.6997 29.8251V31.7001ZM23.7122 31.7001H23.6997V29.8251H23.7122V31.7001ZM24.1997 31.7001H23.7122V29.8251H24.1997V31.7001ZM25.1372 25.1874V30.7626H23.2622V25.1874H25.1372ZM29.7696 31.0487C28.9109 28.371 26.8039 26.3889 24.1067 26.1204L24.2927 24.2546C27.8704 24.6111 30.5136 27.2289 31.555 30.4762L29.7696 31.0487ZM35.0997 31.7001H30.6623V29.8251H35.0997V31.7001ZM33.4576 25.5683C34.6469 27.0195 35.515 28.7064 36.0047 30.5179L34.1948 31.0073C33.7742 29.4518 33.0287 28.0029 32.0072 26.7568L33.4576 25.5683ZM29.1049 22.0982C30.7847 22.9342 32.2682 24.117 33.4576 25.5683L32.0072 26.7568C30.9859 25.5105 29.7121 24.4948 28.2694 23.7769L29.1049 22.0982ZM33.0034 20.1536C31.9872 21.5991 30.6839 22.8193 29.1749 23.7383L28.1997 22.1368C29.4886 21.3519 30.6016 20.3096 31.4695 19.0753L33.0034 20.1536ZM35.0807 15.3379C34.7267 17.0688 34.0195 18.7082 33.0034 20.1536L31.4695 19.0753C32.3374 17.8408 32.9414 16.4406 33.2438 14.9622L35.0807 15.3379ZM30.1373 14.2125H34.1622V16.0875H30.1373V14.2125ZM24.1004 20.3929C25.0313 20.2935 26.1047 19.6868 27.0841 18.6559C28.051 17.638 28.8406 16.2926 29.2351 14.8953L31.0396 15.4047C30.5588 17.1074 29.611 18.7183 28.4436 19.9472C27.2884 21.1631 25.8308 22.0939 24.2991 22.2572L24.1004 20.3929ZM25.1372 15.1625V21.3249H23.2622V15.1625H25.1372ZM20.1623 14.225H24.1997V16.1H20.1623V14.225ZM19.2248 25.9626V15.1625H21.0998V25.9626H19.2248ZM15.3121 15.1445C15.4446 22.0361 18.4412 24.5659 20.3896 25.053L19.9349 26.8719C16.8834 26.1092 13.5799 22.5889 13.4374 15.1805L15.3121 15.1445ZM10.0747 14.225H14.3747V16.1H10.0747V14.225Z" fill="#238F19"/>
</svg>
